<?xml version="1.0" encoding="utf-8"?>
<!-- Generator: Adobe Illustrator 24.3.0, SVG Export Plug-In . SVG Version: 6.00 Build 0)  -->
<svg version="1.1" id="Layer_1" xmlns="http://www.w3.org/2000/svg" xmlns:xlink="http://www.w3.org/1999/xlink" x="0px" y="0px"
	 width="219px" height="218.9px" viewBox="0 0 219 218.9" enable-background="new 0 0 219 218.9" xml:space="preserve">
<g id="a">
</g>
<g id="b">
</g>
<g id="c">
</g>
<g id="d">
</g>
<g id="e">
</g>
<g id="f">
</g>
<g id="g">
</g>
<g id="h">
	<path fill="#2879F9" d="M61.5,16.9c-0.8,0.8-1,1.7-1.8,2.4s-2.5,1.3-3.4,1.9c-1.1,0.8-1.9,1.8-3,2.7c-1.7,1.3-3.8,2.2-5.5,3.5
		c-1.7,1.2-3.1,2.9-4.8,4.2c-2.2,1.7-4.8,2.6-7,4.5c-3.2,2.8-6,5.6-8.8,8.7c-0.9,1-2,1.5-2.9,2.4c-1,1-1.7,2.4-2.7,3.5
		c-0.9,1-2.3,1.8-2.9,3.1c-0.2,0.5-0.2,1.1-0.5,1.6c-0.5,1.1-1.5,2-2.2,3c-1.1,1.4-1.2,3.8-1.9,5.5c-0.1,0.4-0.3,0.8-0.4,1.2
		c0,0-0.3,0.9-0.3,0.9c-0.1,0.8,0.1,1.6-0.1,2.3c-0.1,0.7-0.6,1.4-0.8,2c-0.3,0.7-0.4,1.6-0.8,2.3c-0.4,0.8-0.9,1.5-1.2,2.3
		c-0.8,1.8-1.5,3.7-2.1,5.6c-1.5,4.6-2,8.8-2.2,13.5c-0.3,5.9-1.5,11.7-1.7,17.6c-0.4,11.7-0.3,23.9,1.7,35.5
		c0.9,5.1,2.6,10.2,4.6,15.1c0.9,2.2,2.1,4.2,3.3,6.2c1.9,3.3,3.2,6.9,5.2,10.2c2.5,4.1,6.3,7.2,9.7,10.6c2.9,2.9,5.8,5.7,9.2,7.9
		c4,2.6,8.3,4.7,12.5,6.9c4.7,2.5,8.9,5.6,14,7.1c8.3,2.4,16.6,3.5,25.2,3.4c8.9,0,17.7,0.5,26.5-1.8c3.5-0.9,6.9-1.5,10.5-1.7
		c3.2-0.2,6.4-1.3,9.6-2c5.4-1.2,11.2-2.3,16.4-3.9c2.4-0.7,4.8-1.8,7-3c2.7-1.5,4-3.8,6.3-5.7s4-4.1,6.1-6.4
		c2.3-2.5,5.1-4.4,7.2-6.9c8.3-9.9,15.9-20.6,22.3-31.8c2.7-4.7,5-9.4,7.2-14.4c2.9-6.7,4-13.8,5.1-21c0.7-4.9,0.1-10.2,0.2-15.2
		c0.1-5.5-1-11.4-3.1-16.5c-2-4.9-4.2-9.5-7.2-13.9c-3.7-5.4-7.8-10.9-10.8-16.7c-1.1-2.1-1.7-4-3.2-5.9c-1.2-1.5-2.4-3.2-3.7-4.6
		c-2.6-2.9-4-6.2-6.6-9.1c-1.2-1.3-1.4-3.1-2.6-4.4c-1.2-1.4-2.3-2.8-3.5-4.3c-2.6-3.1-6-5.5-8.5-8.4c-1.8-2.2-3.5-2.6-5.9-3.6
		c-2.6-1.2-4.9-3.4-7.5-4.6c-1.2-0.6-2.1-1.1-3.5-1.3c-1.1-0.2-1.9-0.6-2.8-0.8c-2.9-0.5-5.9-1.5-8.8-1.9c-4.7-0.5-9.9,0.1-14.6,0.1
		c-5,0-10.1,0-15.1,0c-3.5,0-7-0.6-10.4-0.1c-2.8,0.4-5.3,2.1-8.2,2.7c-1.6,0.3-3.1,0.9-4.7,1.3s-3.1,0.3-4.8,0.4
		C75,9.2,72,11.9,68.4,13.1c-1.6,0.6-2.5,0.9-4,1.9C63.6,15.6,62.3,16.1,61.5,16.9L61.5,16.9L61.5,16.9z"/>
	<path fill="none" stroke="#97C8FD" stroke-width="2" stroke-linejoin="round" d="M135.2,33c-0.2-0.1-0.4-0.2-0.6-0.3
		c-0.9-0.4-1.9-0.4-2.8-0.7c-1.2-0.3-2.4-0.4-3.6-0.4c-0.6,0-1.2,0-1.7,0c-1.2,0-2.4-0.9-3.7-1c-3.2-0.5-7.2-0.4-10.4,0.4
		c-3.5,0.9-7.1,1.9-10.5,3.1c-3.9,1.4-7.4,3.7-11.3,5.3c-3,1.3-6.1,2.7-9.3,3.4c-1.8,0.5-3.7,0.5-5.5,0.9c-2.2,0.5-4.2,1.2-6.3,2.1
		c-3.1,1.2-6.2,2.6-9.2,3.8c-1.6,0.7-3.3,1.6-4.4,3c-3.5,4.9-7.4,10.2-10,15.6c-1.1,2.2-2.2,4.5-3.4,6.7s-2.5,4.3-3.4,6.6
		c-0.9,2.1-0.4,5-0.4,7.2c0,3.5,0.1,7-0.3,10.4c-0.4,2.9-1.3,5.4-2.1,8.2c-0.7,2.4-0.7,5-1.4,7.4c-1.5,4.8-3.6,9.6-4.3,14.5
		c-0.7,4.4,1,7.4,3.4,10.9c2.6,3.8,4.2,8.2,6.8,12c3.1,4.6,5.5,9.7,8.8,14.2c1.5,2,2.8,4.1,4.3,6.1c1.6,2.1,3.7,3.3,5.8,4.9
		c2.9,2.2,6.4,4.7,9.9,5.8c1.7,0.5,3.3,1.1,5,1.4c3.1,0.6,6.2,0.6,9.3,0.6c2.8,0,5.4,0,8.1,0.4c1.7,0.3,3.9,0.4,5.6,0
		c1.9-0.4,3.6-1.6,5.4-2.4c2.6-1.1,5.2-2.3,7.6-3.8c2.4-1.5,5.1-2.6,7.5-4.1c2.3-1.4,4.5-2.8,6.8-4.1c4.5-2.3,8.9-4.7,13.2-7.3
		c4.5-2.7,8.1-6.4,12.3-9.6c3.9-2.9,8.4-4.1,12.6-6.6c1.7-1,3.2-2,5-2.8s2.8-2.1,4-3.6c3.5-4.3,6.8-8.8,9.8-13.5
		c2.2-3.3,3.7-7.4,4.4-11.3c0.8-4.3,0.3-8.9,0.4-13.3c0-1.4,0.1-2.9-0.8-4.2c-0.8-1.2-1.8-2.3-2.4-3.7c-0.5-1.2-1-2.7-1.2-3.9
		c-0.1-0.7,0.1-1.3,0-2c-0.1-0.8-0.5-1.6-0.5-2.4c-0.1-1.4-0.2-2.3-0.9-3.6c-0.8-1.3-1.8-2.3-2.4-3.7c-1.1-2.5-3.4-4.6-5.5-6.5
		c-0.6-0.5-1.6-0.8-2-1.4c-0.3-0.4-0.3-0.9-0.5-1.4c-0.5-1-1.3-1.6-1.7-2.7c-0.4-1-0.9-1.6-1.5-2.4s-0.7-1.9-1-2.9
		c-1-4-3.8-7.2-5.7-11s-5-5.6-8.1-8.1c-3.3-2.7-6.5-5.7-10.1-7.9c-0.4-0.3-1-0.4-1.5-0.6c-0.4-0.2-0.8-0.5-1.2-0.8
		c-0.6-0.3-1.3-0.6-2-0.9c-0.5-0.2-0.8-0.2-1.3-0.2C135.7,33.2,135.4,33.1,135.2,33L135.2,33z"/>
</g>
<g id="i">
</g>
<g id="j">
</g>
</svg>
