<?xml version="1.0" encoding="utf-8"?>
<!-- Generator: Adobe Illustrator 24.3.0, SVG Export Plug-In . SVG Version: 6.00 Build 0)  -->
<svg version="1.1" id="Layer_1" xmlns="http://www.w3.org/2000/svg" xmlns:xlink="http://www.w3.org/1999/xlink" x="0px" y="0px"
	 width="2954.1px" height="1660.8px" viewBox="0 0 2954.1 1660.8" enable-background="new 0 0 2954.1 1660.8" xml:space="preserve">
<g id="a">
</g>
<g id="b">
</g>
<path fill="#FFB5D9" d="M168,493.7c229.7,6.8,462.7,0.9,693.5,18.5c16.4-2-27.9-20.8-23.9-32.8c9-27,92.6-0.4,128.4-2.8
	c50.7,9.4,474.7-22.2,468.8,20.8c-0.6,4.3-4.5,11-15.2,15.1c-48.7,18.5-94.1,21.1-132,32.2c-160.9,47.2-232.9,93.4-466.2,35.2
	c-64.6-3.3-142.9,52.5-208.8,52.5c-110.9,0.1-202-20.3-312.9-16c-40.9-3.1-214.9-0.1-259.8-4.1c-30.1-2.7-60.8,2.2-89.2-11
	c-23.3-8.3-165.5-5.1-212,0.7c-40.6,5-83.9-6.3-120.9-23.1c-16.8-6-28.6-15.6-31.5-34.8c-1.8-12.1-17.8-28.1-6.8-38.3
	c29.7-10.3,65.6-16.4,96.3-5.8c31.8,13.3,65.9,12.2,99.3,14.9c75.4,6,132.8,1.9,207.4-8.6C38.4,498.6,112.1,492.1,168,493.7
	L168,493.7z"/>
<path fill="#97C8FD" d="M1856.1,731.8c-83.5,61.3,108.3,41.3,330,37.7c190.4-3.1,405.2,14,459.4,10.7c98.6-6.2,78.5-41.6,132.4-59.5
	c47.7,4.3,91.6-20.4,118.6-58.1c13.3-61.6-80.5-44.8-118.5-48.5c-72.1-0.6-144.9-26.1-216.4-15.3c-35.9,7.9-58.1,40.4-93.1,48.8
	c-28.4,5.1-55.9,15.8-83.8,20.3c-113.2-15.2-226.4-12.5-333.9,25.2C1986.1,708,1916.5,701.8,1856.1,731.8L1856.1,731.8z"/>
<radialGradient id="SVGID_1_" cx="2954.04" cy="-42.88" r="1274.02" gradientTransform="matrix(1 0 0 1 0 580)" gradientUnits="userSpaceOnUse">
	<stop  offset="9.000000e-02" style="stop-color:#FF7D3B"/>
	<stop  offset="0.17" style="stop-color:#FF8446;stop-opacity:0.94"/>
	<stop  offset="0.34" style="stop-color:#FF9965;stop-opacity:0.78"/>
	<stop  offset="0.57" style="stop-color:#FFBA97;stop-opacity:0.53"/>
	<stop  offset="0.86" style="stop-color:#FFE7DB;stop-opacity:0.18"/>
	<stop  offset="1" style="stop-color:#FFFFFF;stop-opacity:0"/>
</radialGradient>
<path fill="url(#SVGID_1_)" d="M1856.1,731.8c-83.5,61.3,108.3,41.3,330,37.7c190.4-3.1,405.2,14,459.4,10.7
	c98.6-6.2,78.5-41.6,132.4-59.5c47.7,4.3,91.6-20.4,118.6-58.1c13.3-61.6-80.5-44.8-118.5-48.5c-72.1-0.6-144.9-26.1-216.4-15.3
	c-35.9,7.9-58.1,40.4-93.1,48.8c-28.4,5.1-55.9,15.8-83.8,20.3c-113.2-15.2-226.4-12.5-333.9,25.2
	C1986.1,708,1916.5,701.8,1856.1,731.8L1856.1,731.8z"/>
<path fill="#2879F9" d="M2662.5,1129.8c-2.6-10.4-6.2-20.6-9-30.9c-0.8-2.8-1.2-5.8-2.6-8.4c-0.1-0.6-0.4-1.2-0.5-1.9
	c-0.3-0.5-0.6-1-0.6-1.6c-0.3-1.1,1.1-0.4,1.5,0c0.2,0.2,0.4,0.5,0.6,0.7c10.6,9.7,23.9,16.1,36.3,23.3c3.7,2.1,7.4,4.2,11,6.6
	c16.6,15.3,35.1,28.2,55.8,37.1c1.3,1.7,4.7,2.5,2.9-1.1c-0.2-0.5-0.3-1-0.5-1.4c-3.4-10.4-4.8-21.3-5.9-32.1
	c-1-8.7-1.3-17.6-3.1-26.1c-0.5-4.4,1-8.6,0.6-13.1c-0.4-11.1,0.3-22.3-2.4-33.2c-0.2-0.5-0.3-1.1-0.5-1.6c-0.6-0.9-1.5-1.4-2.5-1.6
	c-2.7-0.8-5.6-1.2-8.4-1.4c-5.9-0.8-11-4.2-16.9-4.8c-27.7-5-55.9-0.1-83.9-1.3c-79-3.3-158-0.6-237.6-2.6
	c-68.3,2-137.7,4.8-205.2-5c-5-0.7-10.2-2.6-15-0.3c1,3.1,5.9,4,8.5,5.5c34.9,14.9,59.5,45.7,81.4,75.6c4.1,5.2,7.1,11,10.1,16.8
	c2.8,5.2,5.5,10.5,9.3,15.1c0.6,1.2,1.2,2.6,2,3.6c0.3,0.5,0.7,0.9,1.1,1.5c0.4,0.6,0.6,1.2,1.1,1.7c0.2,0.5,2.5,2.8,2.6,1.3
	c-0.6-23.1-9-45.3-16.2-67c-1.4-3.8-2.3-7.8-4-11.5c-0.4-1.1-1.1-2.1-1.3-3.3c-0.1-0.6-0.9-2.7,0.6-1.1c9.5,8.4,16.6,19.3,24.5,29.2
	c6.4,8.1,13.5,15.8,22.4,21.1c13.7,9.9,27.5,20.5,39.2,32.6c5.2,6.7,18.7,22.5,18.7,17.6c0-4.1-18.3-30.5-24.2-47
	c-3.9-8.3-6.9-17-10-25.7c-3.1-8.5-6.2-17.1-10.3-25.2c-0.9-1.6-1.6-3.4-2.7-4.9c-0.9-1.2-2-2.2-2.8-3.5c-0.5-0.5-0.6-1.2-0.9-1.9
	c-0.1-0.1-0.2-0.2-0.2-0.3s0.2-0.1,0.4-0.1c1.4,0.6,2.6,1.6,3.8,2.7c0.9,0.7,1.3,1.8,2.1,2.6c0.9,0.6,1.3,1.6,2.1,2.2
	c12.5,12.5,22.4,27.2,33.2,41.1c21.9,26.9,49.1,49.4,66.9,79.4c2.6,4.5,4.3,3.6,2.8-1.4c-12.4-41.7-16.1-85.6-24.1-127.9
	c13.2,25.7,22.8,54.6,43,76.3c11.1,12.3,19.4,27.9,28.8,41.4c1.8,2.9,4.3,5.3,5.7,8.3c0.2,0.7,0.6,1.3,1.1,1.9
	c0.1,0.1,0.2,0.3,0.4,0.4c0.1,0,0.2,0,0.3,0s0.2,0,0.2-0.1c0.1-0.2,0-0.3,0.1-0.5c0.5-3.8-1.2-7.5-2-11.2c-1.7-6-3.8-13-4-18.6
	c-3.2-25.5-3.8-51.3-5.8-76.9c-0.5-11.8-4-29.9,6.9-8.3c10.1,23,31.3,37.5,50.6,52.5c19.7,16.8,37.1,36,57.9,51.5
	c6.8,6.2,12.4,15.4,20.4,19.6c2.1-2.2-1.3-4.5-2.5-6.4c-6.7-7.8-11.1-17-16.1-26c-18.5-31.2-37.5-62.7-51-96.3
	c-0.1-0.2-0.3-0.7-0.1-0.9c0.1-0.1,0.7,0,0.8,0c0.3,0.2,0.5,0.4,0.8,0.6c6.2,4,12.9,7.8,18.8,12.5c11.4,9,21.4,19.7,32.3,29.3
	c8.2,7.3,17.2,13.9,27.3,18.4c0.5,0.3,1,0.2,1.4,0.7c1.6,1,3.3,1.7,4.7,3c1.4,1.1,2.9,1.9,4,3.3c0.9,0.4,1.4,1.4,2.3,1.9
	c2.9,2.5,5.3,5.4,8.3,7.8c4.3,3.6,8.8,7,13.5,10.2c4.3,2.8,7.6,7.2,11.5,10.4c1.1,0.2,0.7-3.9,0.5-4.5
	C2668.9,1149,2664.9,1139.6,2662.5,1129.8L2662.5,1129.8z"/>
<path fill="#FFB5D9" d="M2534.7,1129.3c-12.4,6,2.1,24.2,11.9,14.6C2556.2,1136.4,2542.8,1121.4,2534.7,1129.3z"/>
<path fill="#353332" d="M2519.2,1023.8c-8,22.4,28.1,13.9,17.2-3.3C2532.3,1014.8,2518.4,1014.5,2519.2,1023.8z"/>
<path fill="#97C8FD" d="M2350.5,1112.3c-6.4-1.3-9.2,10.4-4.1,13.5c5.3,8.1,21.5,1.4,16.6-8.1
	C2360.9,1112.4,2354.9,1110.4,2350.5,1112.3L2350.5,1112.3z"/>
<path fill="#1C5935" d="M2481.1,1101.8c-11.1,6.8-4.5,19.6,9.4,19C2502,1120.4,2502.6,1091.4,2481.1,1101.8z"/>
<path fill="#FEFDEF" d="M640.8,687c-5.1-1.3-10.3-2.3-15.5-3.4c-0.6,0.3-0.7-0.3-0.4-0.8c1.5-2.1,1-4.7,1.2-7.1
	c1-5.5,1.5-11.3,2.2-16.8c-3.6,8.9-6,18.5-6.5,27.9c-0.4,0.6-1.7-0.3-2.4-0.3c-2.4-0.2-4.7-0.8-7-1.2c-4.3-0.1-8.7-1.8-12.9-1.5
	c7.4,2,14.6,4.8,22.2,5.8c-0.9,5.3-1.7,10.7-2.5,16c-0.1,0.8-0.5,4.8,0.4,2.2c0-1,0.7-1.6,1-2.5c2.9-5.8,3.9-12.7,4.3-19.1
	c4.8,1.1,9.8,0.9,14.7,1.3C639.8,687.7,641.1,687.5,640.8,687L640.8,687z"/>
<path fill="#FEFDEF" d="M636.4,675.4c-4.7,2.4-9.2,5.2-13.8,7.9c-0.2,0.7-0.7,0.2-0.8-0.3c-0.3-2.6-2.3-4.2-3.9-6.1
	c-3-4.8-6.4-9.4-9.6-14c3.3,9,8,17.8,13.8,25.1c0.1,0.8-1.5,0.9-2,1.4c-1.9,1.4-4,2.5-6,3.8c-3.3,2.8-7.6,4.5-10.7,7.5
	c6.8-3.5,14.1-6.2,20.3-10.5c2.9,4.5,5.9,9.1,8.8,13.6c0.5,0.6,2.9,3.9,1.8,1.4c-0.6-0.8-0.5-1.7-0.9-2.5
	c-1.7-6.3-5.6-12.1-9.5-17.1c4.3-2.4,7.9-5.9,11.8-8.9C636.2,676.6,637,675.6,636.4,675.4L636.4,675.4z"/>
<path fill="#FEFDEF" d="M1961.6,776.6c-5.1-1.3-10.3-2.3-15.5-3.4c-0.6,0.3-0.7-0.3-0.4-0.8c1.6-2.1,1-4.7,1.2-7.1
	c1-5.5,1.6-11.3,2.2-16.8c-3.6,8.9-5.9,18.5-6.5,27.9c-0.4,0.6-1.7-0.3-2.4-0.3c-2.4-0.2-4.7-0.8-7-1.2c-4.3-0.1-8.7-1.8-12.9-1.5
	c7.4,2,14.6,4.8,22.2,5.8c-0.9,5.3-1.7,10.7-2.6,16c-0.1,0.8-0.5,4.8,0.4,2.2c0-1,0.7-1.6,1-2.5c2.9-5.8,3.9-12.7,4.3-19.1
	c4.8,1.1,9.8,0.9,14.7,1.3C1960.7,777.3,1961.9,777.1,1961.6,776.6L1961.6,776.6z"/>
<path fill="#FEFDEF" d="M1957.2,765c-4.7,2.4-9.2,5.2-13.8,7.9c-0.2,0.7-0.7,0.2-0.8-0.3c-0.3-2.6-2.3-4.2-3.9-6.1
	c-2.9-4.8-6.4-9.4-9.6-14c3.3,9,8,17.8,13.8,25.1c0.1,0.8-1.5,0.9-2,1.4c-1.9,1.4-4,2.5-6,3.8c-3.3,2.8-7.6,4.5-10.7,7.5
	c6.8-3.5,14.1-6.2,20.3-10.5c2.9,4.5,5.9,9.1,8.8,13.6c0.5,0.6,2.9,3.9,1.8,1.4c-0.6-0.8-0.6-1.7-0.9-2.5
	c-1.7-6.3-5.6-12.1-9.5-17.1c4.3-2.4,7.9-5.9,11.8-8.9C1957,766.2,1957.9,765.2,1957.2,765L1957.2,765z"/>
<path fill="#FEFDEF" d="M2168.9,1037.7c-5.1-1.3-10.4-2.3-15.5-3.4c-0.6,0.3-0.7-0.3-0.4-0.8c1.6-2.1,1-4.7,1.2-7.1
	c1-5.5,1.6-11.3,2.2-16.8c-3.6,8.9-5.9,18.5-6.5,27.9c-0.4,0.6-1.7-0.3-2.4-0.3c-2.4-0.2-4.7-0.8-7-1.2c-4.3-0.1-8.6-1.8-12.9-1.5
	c7.4,2,14.6,4.8,22.2,5.8c-0.9,5.3-1.7,10.7-2.6,16c-0.1,0.8-0.5,4.8,0.4,2.2c0-1,0.7-1.6,1-2.5c2.9-5.8,3.9-12.7,4.3-19.1
	c4.8,1.1,9.8,0.9,14.7,1.3C2168,1038.4,2169.3,1038.2,2168.9,1037.7L2168.9,1037.7z"/>
<path fill="#FEFDEF" d="M2164.6,1026.1c-4.7,2.4-9.2,5.2-13.8,7.9c-0.2,0.7-0.7,0.2-0.9-0.3c-0.3-2.6-2.4-4.2-3.9-6.1
	c-2.9-4.8-6.4-9.4-9.6-14c3.3,9,8,17.8,13.8,25.1c0.1,0.8-1.5,0.9-2,1.4c-1.9,1.4-4,2.5-6,3.8c-3.3,2.8-7.6,4.5-10.7,7.5
	c6.8-3.5,14.1-6.2,20.4-10.6c2.9,4.6,5.9,9.1,8.8,13.6c0.5,0.6,2.9,3.9,1.8,1.4c-0.6-0.8-0.6-1.7-0.9-2.5
	c-1.7-6.3-5.6-12.1-9.5-17.1c4.3-2.4,7.9-5.9,11.8-8.9C2164.4,1027.2,2165.2,1026.3,2164.6,1026.1L2164.6,1026.1z"/>
<path fill="#2879F9" d="M2337.9,684.4c-5.1-1.3-10.4-2.3-15.5-3.4c-0.6,0.3-0.7-0.3-0.4-0.8c1.6-2.1,1-4.7,1.2-7.1
	c1-5.5,1.6-11.3,2.2-16.8c-3.6,8.9-5.9,18.5-6.5,27.9c-0.4,0.6-1.7-0.3-2.4-0.3c-2.4-0.2-4.7-0.8-7-1.2c-4.3-0.1-8.6-1.8-12.9-1.5
	c7.4,2,14.6,4.8,22.2,5.8c-0.9,5.3-1.7,10.7-2.6,16c-0.1,0.8-0.5,4.8,0.4,2.2c0-1,0.7-1.6,1-2.5c2.9-5.8,3.9-12.7,4.3-19.1
	c4.8,1.1,9.8,0.9,14.7,1.3C2336.9,685.1,2338.2,685,2337.9,684.4L2337.9,684.4z"/>
<path fill="#2879F9" d="M2333.5,672.9c-4.7,2.4-9.2,5.2-13.8,7.9c-0.2,0.7-0.7,0.2-0.9-0.3c-0.3-2.6-2.4-4.2-3.9-6.1
	c-2.9-4.8-6.4-9.4-9.6-14c3.3,9,8,17.8,13.8,25.1c0.1,0.8-1.5,0.9-2,1.4c-1.9,1.4-4,2.5-6,3.8c-3.3,2.8-7.6,4.5-10.7,7.5
	c6.8-3.5,14.1-6.2,20.4-10.5c2.9,4.5,5.9,9.1,8.8,13.6c0.5,0.6,2.9,3.9,1.8,1.4c-0.6-0.8-0.6-1.7-0.9-2.5
	c-1.7-6.3-5.6-12.1-9.5-17.1c4.3-2.4,7.9-5.9,11.8-8.9C2333.3,674,2334.2,673.1,2333.5,672.9L2333.5,672.9z"/>
<path fill="#FEFDEF" d="M2573.4,763.8c-5.1-1.3-10.4-2.3-15.5-3.4c-0.6,0.3-0.7-0.3-0.4-0.8c1.6-2.1,1-4.7,1.2-7.1
	c1-5.5,1.6-11.3,2.2-16.8c-3.6,8.9-5.9,18.5-6.5,27.9c-0.4,0.6-1.7-0.3-2.4-0.3c-2.4-0.2-4.7-0.8-7-1.2c-4.3-0.1-8.6-1.8-12.9-1.5
	c7.4,2,14.6,4.8,22.2,5.8c-0.9,5.3-1.7,10.7-2.6,16c-0.1,0.8-0.5,4.8,0.4,2.2c0-1,0.7-1.6,1-2.5c2.9-5.8,3.9-12.7,4.3-19.1
	c4.8,1.1,9.8,0.9,14.7,1.3C2572.4,764.5,2573.7,764.3,2573.4,763.8L2573.4,763.8z"/>
<path fill="#FEFDEF" d="M2569,752.2c-4.7,2.4-9.2,5.2-13.8,7.9c-0.2,0.7-0.7,0.2-0.9-0.3c-0.3-2.6-2.4-4.2-3.9-6.1
	c-2.9-4.8-6.4-9.4-9.6-14c3.3,9,8,17.8,13.8,25.1c0.1,0.8-1.5,0.9-2,1.4c-1.9,1.4-4,2.5-6,3.8c-3.3,2.8-7.6,4.5-10.7,7.5
	c6.8-3.5,14.1-6.2,20.4-10.5c2.9,4.5,5.9,9.1,8.8,13.6c0.5,0.6,2.9,3.9,1.8,1.4c-0.6-0.8-0.6-1.7-0.9-2.5
	c-1.7-6.3-5.6-12.1-9.5-17.1c4.3-2.4,7.9-5.9,11.8-8.9C2568.8,753.4,2569.7,752.4,2569,752.2L2569,752.2z"/>
</svg>
