<?xml version="1.0" encoding="utf-8"?>
<!-- Generator: Adobe Illustrator 24.3.0, SVG Export Plug-In . SVG Version: 6.00 Build 0)  -->
<svg version="1.1" id="Layer_1" xmlns="http://www.w3.org/2000/svg" xmlns:xlink="http://www.w3.org/1999/xlink" x="0px" y="0px"
	 width="2954.1px" height="1660.8px" viewBox="0 0 2954.1 1660.8" enable-background="new 0 0 2954.1 1660.8" xml:space="preserve">
<g id="a">
</g>
<g id="b">
</g>
<g id="c">
	<path fill="none" stroke="#2879F9" stroke-linejoin="round" d="M1176.3,1259.9c17.6,5.6,40.5,43.2,52.7,58.4
		c15.2,17.6,28.7,36.8,35.6,59.3c10,25.8,19.6,53.2,25,79.6c5.1-23.7,51-63.4,73.7-71.9c8.8-2.7,18.8-2.1,28-1.6
		c7.9,3.3,15.5,9.1,21.6,15.1c4.9,6.3,7.1,14,11.9,20.5c4.6,7.7,7.7,16.9,12.3,24.3c0.1-9.1,3.9-18,8-26.2
		c8.1-16.4,16.5-32.9,31.4-44.2c21.8-12.5,42-0.2,55.7,17.6c5.9,7.4,9,16.3,12.7,24.7c2.4,6.1,5.5,12.2,6.1,18.6
		c1.5-0.4,0.7-6.2,0.7-7.3c-0.2-12,5.4-23.1,9.5-34.1c9.9-32.7,39.7-52.9,73.4-53.4c21.4-1,45.9,3.3,60.8,20.2
		c9.3,16.2,13.3,36.6,15.6,55v-0.6c0.2-0.1,2.2,0.8,2.4,0.7c3.7-16,13-30.1,19.6-44.9c3.7-8.3,8.6-16.3,14.4-23.4
		c24.3-32.1,45.2-25.3,61,9.2c5.4,9.4,5.5,20.4,7.7,30.7c0.2,5.2-0.1,11.3,3.4,15.6c0.1-11.4,7.8-20.9,11.7-31.2
		c11.8-29.3,30.5-54.8,48.4-80.5c12.5-19.4,26.9-38.2,46.6-50.6"/>
	<path fill="#2879F9" d="M2746.1,1253.9c-370.4,15.9-741.8,115.6-1215,162c-252.2,24.8-505.1,43.2-757.1,69.6
		c-71.5,7.5-144.2,14.3-214.5,30c-329.8,65.9-105.5,45.3-406.5-19.2c-53.1-7.8-95.9-48.5-150.5-48.2c-75.9-6-323,11.9-216,132.4
		c52.9,58.8,134.8,70.2,205.1,97.6c53.5,21.3,113.6,12.1,168,32.4c76.9,5.8,154.9-3.2,230.8-14.3c69.9,6,137.2-6.6,203.3-27.5
		c10.1-2,20.5,0.3,30.6,0c237.9-8.4,429.8,8.4,714.7,0c246.8-7.3,484.8,7.8,732,8.4c203.1,0.5,378,9,615.4,1.9
		c167.9-5,333.4-5.5,501.1-0.8c134.2,11.8,462,2.3,593.6-37.2c196.2-58.9,81-243-152.2-288.9
		C3401.2,1307.3,2979.4,1243.9,2746.1,1253.9L2746.1,1253.9z"/>
	<path fill="#FEFDEF" d="M2374.6,1363.4c-118.7-14.6-224.9-115.2-346.8-52.1c-62,29.4-129.4,51.1-193.7,72.6
		c-42.1,14.1-59.7,32-80.3,37.2c-45.9,14.4-92.2,25.8-139.1,35.9c-22.3,1.7-141.3,18.7-179.1,27.2c-22.2-0.9-114.2,15.2-138.9,23.5
		c-38.6,5.6-61.4,52.6-26.9,79.8c14.9,15.5,34.7,20,55.3,15.1c39-6.3,81.8-2.6,121.6-2.6c194,7,389.2-12.2,582.1,7.8
		c95.1-5.3,516.6,18.5,634.1,4.9c33.9,1.1,171.7-21.2,208.2-22.9c35.8-7.2,127,6.2,131-64.1c3-53.6-37.4-101.9-92.3-112.9
		c-42.4-14.4-86.8-12.7-130.6-5.7c-31.5,3.5-63.9-2.6-95.2,3.2c-47.8,0.8-93.7-10.8-141.1-12.9c-23.8-0.3-129.9-24.7-136.2-28.4
		C2396.3,1365,2385.5,1367.2,2374.6,1363.4L2374.6,1363.4z"/>
	<g>
		
			<radialGradient id="SVGID_1_" cx="7448.0122" cy="-8044.064" r="14.94" gradientTransform="matrix(-0.9928 0.12 0.12 0.9928 10222.2617 8408.3525)" gradientUnits="userSpaceOnUse">
			<stop  offset="0" style="stop-color:#2879F9"/>
			<stop  offset="0.11" style="stop-color:#4E90F7"/>
			<stop  offset="0.32" style="stop-color:#8CB6F4"/>
			<stop  offset="0.5" style="stop-color:#BDD5F2"/>
			<stop  offset="0.66" style="stop-color:#E0EAF0"/>
			<stop  offset="0.79" style="stop-color:#F6F8EF"/>
			<stop  offset="0.88" style="stop-color:#FEFDEF"/>
		</radialGradient>
		<path fill="url(#SVGID_1_)" d="M1865.9,1325c5.1-0.8,7.1-7.1,5.9-11.7c-1.3-4.4-7.8-6.8-11.7-4.6
			C1849.4,1314.8,1857,1329.8,1865.9,1325L1865.9,1325z"/>
		
			<radialGradient id="SVGID_2_" cx="4399.1899" cy="-6182.3203" r="14.94" gradientTransform="matrix(1 0 0 -1 0 2240)" gradientUnits="userSpaceOnUse">
			<stop  offset="0" style="stop-color:#2879F9"/>
			<stop  offset="0.11" style="stop-color:#4E90F7"/>
			<stop  offset="0.32" style="stop-color:#8CB6F4"/>
			<stop  offset="0.5" style="stop-color:#BDD5F2"/>
			<stop  offset="0.66" style="stop-color:#E0EAF0"/>
			<stop  offset="0.79" style="stop-color:#F6F8EF"/>
			<stop  offset="0.88" style="stop-color:#FEFDEF"/>
		</radialGradient>
		<path fill="url(#SVGID_2_)" d="M1928.9,1252.2c5.1-0.8,7.1-7.1,5.9-11.7c-1.3-4.4-7.8-6.8-11.7-4.6
			C1912.4,1242,1920,1257,1928.9,1252.2L1928.9,1252.2z"/>
		
			<radialGradient id="SVGID_3_" cx="4567.8501" cy="-6098.4199" r="24.3" gradientTransform="matrix(1 0 0 -1 0 2240)" gradientUnits="userSpaceOnUse">
			<stop  offset="0" style="stop-color:#2879F9"/>
			<stop  offset="0.11" style="stop-color:#4E90F7"/>
			<stop  offset="0.32" style="stop-color:#8CB6F4"/>
			<stop  offset="0.5" style="stop-color:#BDD5F2"/>
			<stop  offset="0.66" style="stop-color:#E0EAF0"/>
			<stop  offset="0.79" style="stop-color:#F6F8EF"/>
			<stop  offset="0.88" style="stop-color:#FEFDEF"/>
		</radialGradient>
		<path fill="url(#SVGID_3_)" d="M1748.7,1360.2c5.1-0.8,7.1-7.1,5.9-11.7c-1.3-4.4-7.8-6.8-11.7-4.6
			C1732.2,1350,1739.9,1365.1,1748.7,1360.2L1748.7,1360.2z"/>
		
			<radialGradient id="SVGID_4_" cx="7501.1421" cy="-8036.1841" r="30.14" gradientTransform="matrix(-0.9928 0.12 0.12 0.9928 10222.2617 8408.3525)" gradientUnits="userSpaceOnUse">
			<stop  offset="8.000000e-02" style="stop-color:#FF7D3B"/>
			<stop  offset="0.24" style="stop-color:#FE965F"/>
			<stop  offset="0.88" style="stop-color:#FEFDEF"/>
		</radialGradient>
		<path fill="url(#SVGID_4_)" d="M1812.6,1360.7c5.1-0.8,7.1-7.1,5.9-11.7c-1.3-4.4-7.8-6.8-11.7-4.6
			C1796.1,1350.5,1803.7,1365.6,1812.6,1360.7L1812.6,1360.7z"/>
		
			<radialGradient id="SVGID_5_" cx="1641.54" cy="882.38" r="38.41" gradientTransform="matrix(1 0 0 -1 0 2240)" gradientUnits="userSpaceOnUse">
			<stop  offset="8.000000e-02" style="stop-color:#FF7D3B"/>
			<stop  offset="0.24" style="stop-color:#FE965F"/>
			<stop  offset="0.88" style="stop-color:#FEFDEF"/>
		</radialGradient>
		<path fill="url(#SVGID_5_)" d="M1635.6,1350.7c5.1-0.8,7.1-7.1,5.9-11.7c-1.3-4.4-7.8-6.8-11.7-4.6
			C1619.1,1340.5,1626.7,1355.6,1635.6,1350.7L1635.6,1350.7z"/>
		
			<radialGradient id="SVGID_6_" cx="4636.1499" cy="-6108.21" r="14.94" gradientTransform="matrix(1 0 0 -1 0 2240)" gradientUnits="userSpaceOnUse">
			<stop  offset="0" style="stop-color:#2879F9"/>
			<stop  offset="0.11" style="stop-color:#4E90F7"/>
			<stop  offset="0.32" style="stop-color:#8CB6F4"/>
			<stop  offset="0.5" style="stop-color:#BDD5F2"/>
			<stop  offset="0.66" style="stop-color:#E0EAF0"/>
			<stop  offset="0.79" style="stop-color:#F6F8EF"/>
			<stop  offset="0.88" style="stop-color:#FEFDEF"/>
		</radialGradient>
		<path fill="url(#SVGID_6_)" d="M1695.3,1369.4c5.1-0.8,7.1-7.1,5.9-11.7c-1.3-4.4-7.8-6.8-11.7-4.6
			C1678.7,1359.2,1686.4,1374.3,1695.3,1369.4L1695.3,1369.4z"/>
		
			<radialGradient id="SVGID_7_" cx="4756.9199" cy="-6107.5703" r="14.94" gradientTransform="matrix(1 0 0 -1 0 2240)" gradientUnits="userSpaceOnUse">
			<stop  offset="0" style="stop-color:#2879F9"/>
			<stop  offset="0.11" style="stop-color:#4E90F7"/>
			<stop  offset="0.32" style="stop-color:#8CB6F4"/>
			<stop  offset="0.5" style="stop-color:#BDD5F2"/>
			<stop  offset="0.66" style="stop-color:#E0EAF0"/>
			<stop  offset="0.79" style="stop-color:#F6F8EF"/>
			<stop  offset="0.88" style="stop-color:#FEFDEF"/>
		</radialGradient>
		<path fill="url(#SVGID_7_)" d="M1569.6,1378.2c5.1-0.8,7.1-7.1,5.9-11.7c-1.3-4.4-7.8-6.8-11.7-4.6
			C1553,1368,1560.7,1383.1,1569.6,1378.2L1569.6,1378.2z"/>
		
			<radialGradient id="SVGID_8_" cx="4815.1699" cy="-6106.4102" r="14.94" gradientTransform="matrix(1 0 0 -1 0 2240)" gradientUnits="userSpaceOnUse">
			<stop  offset="8.000000e-02" style="stop-color:#FF7D3B"/>
			<stop  offset="0.24" style="stop-color:#FE965F"/>
			<stop  offset="0.88" style="stop-color:#FEFDEF"/>
		</radialGradient>
		<path fill="url(#SVGID_8_)" d="M1523.6,1387.4c5.1-0.8,7.1-7.1,5.9-11.7c-1.3-4.4-7.8-6.8-11.7-4.6
			C1507.1,1377.2,1514.7,1392.3,1523.6,1387.4L1523.6,1387.4z"/>
		
			<radialGradient id="SVGID_9_" cx="4946.8999" cy="-6126.1904" r="14.94" gradientTransform="matrix(1 0 0 -1 0 2240)" gradientUnits="userSpaceOnUse">
			<stop  offset="8.000000e-02" style="stop-color:#FF7D3B"/>
			<stop  offset="0.24" style="stop-color:#FE965F"/>
			<stop  offset="0.88" style="stop-color:#FEFDEF"/>
		</radialGradient>
		<path fill="url(#SVGID_9_)" d="M1388.4,1387.2c5.1-0.8,7.1-7.1,5.9-11.7c-1.3-4.4-7.8-6.8-11.7-4.6
			C1371.9,1377,1379.5,1392.1,1388.4,1387.2L1388.4,1387.2z"/>
		
			<radialGradient id="SVGID_10_" cx="4874.1699" cy="-6081.1699" r="14.94" gradientTransform="matrix(1 0 0 -1 0 2240)" gradientUnits="userSpaceOnUse">
			<stop  offset="0" style="stop-color:#2879F9"/>
			<stop  offset="0.11" style="stop-color:#4E90F7"/>
			<stop  offset="0.32" style="stop-color:#8CB6F4"/>
			<stop  offset="0.5" style="stop-color:#BDD5F2"/>
			<stop  offset="0.66" style="stop-color:#E0EAF0"/>
			<stop  offset="0.79" style="stop-color:#F6F8EF"/>
			<stop  offset="0.88" style="stop-color:#FEFDEF"/>
		</radialGradient>
		<path fill="url(#SVGID_10_)" d="M1460.1,1405.8c5.1-0.8,7.1-7.1,5.9-11.7c-1.3-4.4-7.8-6.8-11.7-4.6
			C1443.6,1395.6,1451.3,1410.7,1460.1,1405.8L1460.1,1405.8z"/>
		
			<radialGradient id="SVGID_11_" cx="5073.4302" cy="-6186.9697" r="14.94" gradientTransform="matrix(1 0 0 -1 0 2240)" gradientUnits="userSpaceOnUse">
			<stop  offset="0" style="stop-color:#2879F9"/>
			<stop  offset="0.11" style="stop-color:#4E90F7"/>
			<stop  offset="0.32" style="stop-color:#8CB6F4"/>
			<stop  offset="0.5" style="stop-color:#BDD5F2"/>
			<stop  offset="0.66" style="stop-color:#E0EAF0"/>
			<stop  offset="0.79" style="stop-color:#F6F8EF"/>
			<stop  offset="0.88" style="stop-color:#FEFDEF"/>
		</radialGradient>
		<path fill="url(#SVGID_11_)" d="M1245,1333.9c5.1-0.8,7.1-7.1,5.9-11.7c-1.3-4.4-7.8-6.8-11.7-4.6
			C1228.4,1323.7,1236.1,1338.8,1245,1333.9L1245,1333.9z"/>
		
			<radialGradient id="SVGID_12_" cx="8012.9824" cy="-8005.4644" r="14.94" gradientTransform="matrix(-0.9928 0.12 0.12 0.9928 10222.2617 8408.3525)" gradientUnits="userSpaceOnUse">
			<stop  offset="1.000000e-02" style="stop-color:#2879F9"/>
			<stop  offset="0.13" style="stop-color:#4E90F7"/>
			<stop  offset="0.32" style="stop-color:#8CB6F4"/>
			<stop  offset="0.51" style="stop-color:#BDD5F2"/>
			<stop  offset="0.66" style="stop-color:#E0EAF0"/>
			<stop  offset="0.79" style="stop-color:#F6F8EF"/>
			<stop  offset="0.88" style="stop-color:#FEFDEF"/>
		</radialGradient>
		<path fill="url(#SVGID_12_)" d="M1317.6,1423.3c5.1-0.8,7.1-7.1,5.9-11.7c-1.3-4.4-7.8-6.8-11.7-4.6
			C1301.1,1413.1,1308.7,1428.2,1317.6,1423.3L1317.6,1423.3z"/>
		
			<radialGradient id="SVGID_13_" cx="5148.6802" cy="-6258.25" r="14.94" gradientTransform="matrix(1 0 0 -1 0 2240)" gradientUnits="userSpaceOnUse">
			<stop  offset="8.000000e-02" style="stop-color:#FF7D3B"/>
			<stop  offset="0.24" style="stop-color:#FE965F"/>
			<stop  offset="0.88" style="stop-color:#FEFDEF"/>
		</radialGradient>
		<path fill="url(#SVGID_13_)" d="M1173,1270.6c5.1-0.8,7.1-7.1,5.9-11.7c-1.3-4.4-7.8-6.8-11.7-4.6
			C1156.5,1260.4,1164.2,1275.5,1173,1270.6L1173,1270.6z"/>
	</g>
	<g>
		<path fill="#353332" d="M734,1237.7c-4.1-10.3-10.7-19.8-19.5-26.7c-8.3-6.6-20.2-6.7-30.1-10.2c-64.6-13.2-132.4-9.9-196.6,4.2
			c-32.8,5.5-77,23.2-82.9,59.8c3.1,26.6,18.3,52.2,39.9,68.1c16.7,12.2,38.1,16.3,57,24.5c33.6,13.3,69.5,14,104.1,4.3
			c19.8-4.9,40.9-5,59.6-12.7C717.8,1331.9,765,1297,734,1237.7L734,1237.7z"/>
		
			<linearGradient id="SVGID_14_" gradientUnits="userSpaceOnUse" x1="597.2723" y1="1104.7712" x2="569.2123" y2="937.6613" gradientTransform="matrix(1 0 0 -1 0 2240)">
			<stop  offset="0.17" style="stop-color:#1C5935"/>
			<stop  offset="1" style="stop-color:#353332;stop-opacity:0"/>
		</linearGradient>
		<path fill="url(#SVGID_14_)" d="M734,1237.7c-4.1-10.3-10.7-19.8-19.5-26.7c-8.3-6.6-20.2-6.7-30.1-10.2
			c-64.6-13.2-132.4-9.9-196.6,4.2c-32.8,5.5-77,23.2-82.9,59.8c3.1,26.6,18.3,52.2,39.9,68.1c16.7,12.2,38.1,16.3,57,24.5
			c33.6,13.3,69.5,14,104.1,4.3c19.8-4.9,40.9-5,59.6-12.7C717.8,1331.9,765,1297,734,1237.7L734,1237.7z"/>
		
			<linearGradient id="SVGID_15_" gradientUnits="userSpaceOnUse" x1="546.7308" y1="841.7451" x2="574.8708" y2="970.1952" gradientTransform="matrix(1 0 0 -1 0 2240)">
			<stop  offset="0.17" style="stop-color:#FF7D3B"/>
			<stop  offset="1" style="stop-color:#353332;stop-opacity:0"/>
		</linearGradient>
		<path fill="url(#SVGID_15_)" d="M734,1237.7c-4.1-10.3-10.7-19.8-19.5-26.7c-8.3-6.6-20.2-6.7-30.1-10.2
			c-64.6-13.2-132.4-9.9-196.6,4.2c-32.8,5.5-77,23.2-82.9,59.8c3.1,26.6,18.3,52.2,39.9,68.1c16.7,12.2,38.1,16.3,57,24.5
			c33.6,13.3,69.5,14,104.1,4.3c19.8-4.9,40.9-5,59.6-12.7C717.8,1331.9,765,1297,734,1237.7L734,1237.7z"/>
		
			<radialGradient id="SVGID_16_" cx="408.1" cy="1034.62" r="195.49" gradientTransform="matrix(1 0 0 -1 0 2240)" gradientUnits="userSpaceOnUse">
			<stop  offset="0.17" style="stop-color:#2879F9"/>
			<stop  offset="1" style="stop-color:#353332;stop-opacity:0"/>
		</radialGradient>
		<path fill="url(#SVGID_16_)" d="M734,1237.7c-4.1-10.3-10.7-19.8-19.5-26.7c-8.3-6.6-20.2-6.7-30.1-10.2
			c-64.6-13.2-132.4-9.9-196.6,4.2c-32.8,5.5-77,23.2-82.9,59.8c3.1,26.6,18.3,52.2,39.9,68.1c16.7,12.2,38.1,16.3,57,24.5
			c33.6,13.3,69.5,14,104.1,4.3c19.8-4.9,40.9-5,59.6-12.7C717.8,1331.9,765,1297,734,1237.7L734,1237.7z"/>
		<path fill="#1C5935" d="M755.3,1250.9c-7.4-20.1-14.9-41-32.7-54.3c-37.9-15-79.4-21.1-120.1-21.3c-60.5-1.3-204.7,4.2-213.5,81.9
			c4.2,33.5,22.6,66.1,49.4,86.5c29.3,16.8,61.2,29.7,93.8,38.9c33,9.6,66.2-1.6,98.9-7.3C692.4,1369.1,782.9,1326.7,755.3,1250.9
			L755.3,1250.9z M737,1270.2c1.7,41.6-43.8,64.1-78,74.8c-6.7,4.7-15.6,4.2-23.3,5.9c-12.5,2-25,4.4-37.5,7.1
			c-38.6,11.3-78.2,2.4-114.2-13.7c-32.2-7.4-57.9-32.1-68.3-63.3c-24.3-71.9,117.9-85,164.7-85.9c42.1-1.4,85.2,0.7,125.2,14.5
			C724.9,1223.3,733.2,1247.4,737,1270.2L737,1270.2z"/>
	</g>
</g>
<g id="t">
	<path fill="#FEFDEF" d="M622.8,1388.4c-5.1-1.3-10.3-2.3-15.5-3.4c-0.6,0.3-0.7-0.3-0.4-0.8c1.5-2.1,1-4.7,1.2-7.1
		c1-5.5,1.5-11.3,2.2-16.8c-3.6,8.9-6,18.5-6.5,27.9c-0.4,0.6-1.7-0.3-2.4-0.3c-2.4-0.2-4.7-0.8-7-1.2c-4.3-0.1-8.7-1.8-12.9-1.5
		c7.4,2,14.6,4.8,22.2,5.8c-0.9,5.3-1.7,10.7-2.5,16c-0.1,0.8-0.5,4.8,0.4,2.2c0-1,0.7-1.6,1-2.5c2.9-5.8,3.9-12.7,4.3-19.1
		c4.8,1.1,9.8,0.9,14.7,1.3C621.9,1389.1,623.2,1388.9,622.8,1388.4L622.8,1388.4z"/>
	<path fill="#FEFDEF" d="M618.5,1376.8c-4.7,2.4-9.2,5.2-13.8,7.9c-0.2,0.7-0.7,0.2-0.8-0.3c-0.3-2.6-2.3-4.2-3.9-6.1
		c-3-4.8-6.4-9.4-9.6-14c3.3,9,8,17.8,13.8,25.1c0.1,0.8-1.5,0.9-2,1.4c-1.9,1.4-4,2.5-6,3.8c-3.3,2.8-7.6,4.5-10.7,7.5
		c6.8-3.5,14.1-6.2,20.3-10.6c2.9,4.6,5.9,9.1,8.8,13.6c0.5,0.6,2.9,3.9,1.8,1.4c-0.6-0.8-0.5-1.7-0.9-2.5
		c-1.7-6.3-5.6-12.1-9.5-17.1c4.3-2.4,7.9-5.9,11.8-8.9C618.3,1377.9,619.1,1377,618.5,1376.8L618.5,1376.8z"/>
	<path fill="#FEFDEF" d="M1703.1,1296.2c-5.1-1.3-10.3-2.3-15.5-3.4c-0.6,0.3-0.7-0.3-0.4-0.8c1.6-2.1,1-4.7,1.2-7.1
		c1-5.5,1.6-11.3,2.2-16.8c-3.6,8.9-5.9,18.5-6.5,27.9c-0.4,0.6-1.7-0.3-2.4-0.3c-2.4-0.2-4.7-0.8-7-1.2c-4.3-0.1-8.7-1.8-12.9-1.5
		c7.4,2,14.6,4.8,22.2,5.8c-0.9,5.3-1.7,10.7-2.6,16c-0.1,0.8-0.5,4.8,0.4,2.2c0-1,0.7-1.6,1-2.5c2.9-5.8,3.9-12.7,4.3-19.1
		c4.8,1.1,9.8,0.9,14.7,1.3C1702.1,1296.9,1703.4,1296.8,1703.1,1296.2L1703.1,1296.2z"/>
	<path fill="#FEFDEF" d="M1698.7,1284.7c-4.7,2.4-9.2,5.2-13.8,7.9c-0.2,0.7-0.7,0.2-0.8-0.3c-0.3-2.6-2.3-4.2-3.9-6.1
		c-2.9-4.8-6.4-9.4-9.6-14c3.3,9,8,17.8,13.8,25.1c0.1,0.8-1.5,0.9-2,1.4c-1.9,1.4-4,2.5-6,3.8c-3.3,2.8-7.6,4.5-10.7,7.5
		c6.8-3.5,14.1-6.2,20.3-10.6c2.9,4.6,5.9,9.1,8.8,13.6c0.5,0.6,2.9,3.9,1.8,1.4c-0.6-0.8-0.6-1.7-0.9-2.5
		c-1.7-6.3-5.6-12.1-9.5-17.1c4.3-2.4,7.9-5.9,11.8-8.9C1698.5,1285.8,1699.3,1284.8,1698.7,1284.7L1698.7,1284.7z"/>
	<path fill="#FEFDEF" d="M1004.3,1245.4c-5.1-1.3-10.3-2.3-15.5-3.4c-0.6,0.3-0.7-0.3-0.4-0.8c1.5-2.1,1-4.7,1.2-7.1
		c1-5.5,1.5-11.3,2.2-16.8c-3.6,8.9-6,18.5-6.5,27.9c-0.4,0.6-1.7-0.3-2.4-0.3c-2.4-0.2-4.7-0.8-7-1.2c-4.3-0.1-8.7-1.8-12.9-1.5
		c7.4,2,14.6,4.8,22.2,5.8c-0.9,5.3-1.7,10.7-2.5,16c-0.1,0.8-0.5,4.8,0.4,2.2c0-1,0.7-1.6,1-2.5c2.9-5.8,3.9-12.7,4.3-19.1
		c4.8,1.1,9.8,0.9,14.7,1.3C1003.3,1246.1,1004.6,1245.9,1004.3,1245.4L1004.3,1245.4z"/>
	<path fill="#FEFDEF" d="M999.9,1233.8c-4.7,2.4-9.2,5.2-13.8,7.9c-0.2,0.7-0.7,0.2-0.8-0.3c-0.3-2.6-2.3-4.2-3.9-6.1
		c-3-4.8-6.4-9.4-9.6-14c3.3,9,8,17.8,13.8,25.1c0.1,0.8-1.5,0.9-2,1.4c-1.9,1.4-4,2.5-6,3.8c-3.3,2.8-7.6,4.5-10.7,7.5
		c6.8-3.5,14.1-6.2,20.3-10.6c2.9,4.6,5.9,9.1,8.8,13.6c0.5,0.6,2.9,3.9,1.8,1.4c-0.6-0.8-0.5-1.7-0.9-2.5
		c-1.7-6.3-5.6-12.1-9.5-17.1c4.3-2.4,7.9-5.9,11.8-8.9C999.7,1234.9,1000.6,1234,999.9,1233.8L999.9,1233.8z"/>
	<path fill="#FEFDEF" d="M2573.4,1378.1c-5.1-1.3-10.4-2.3-15.5-3.4c-0.6,0.3-0.7-0.3-0.4-0.8c1.6-2.1,1-4.7,1.2-7.1
		c1-5.5,1.6-11.3,2.2-16.8c-3.6,8.9-5.9,18.5-6.5,27.9c-0.4,0.6-1.7-0.3-2.4-0.3c-2.4-0.2-4.7-0.8-7-1.2c-4.3-0.1-8.6-1.8-12.9-1.5
		c7.4,2,14.6,4.8,22.2,5.8c-0.9,5.3-1.7,10.7-2.6,16c-0.1,0.8-0.5,4.8,0.4,2.2c0-1,0.7-1.6,1-2.5c2.9-5.8,3.9-12.7,4.3-19.1
		c4.8,1.1,9.8,0.9,14.7,1.3C2572.4,1378.8,2573.7,1378.7,2573.4,1378.1L2573.4,1378.1z"/>
	<path fill="#FEFDEF" d="M2569,1366.6c-4.7,2.4-9.2,5.2-13.8,7.9c-0.2,0.7-0.7,0.2-0.9-0.3c-0.3-2.6-2.4-4.2-3.9-6.1
		c-2.9-4.8-6.4-9.4-9.6-14c3.3,9,8,17.8,13.8,25.1c0.1,0.8-1.5,0.9-2,1.4c-1.9,1.4-4,2.5-6,3.8c-3.3,2.8-7.6,4.5-10.7,7.5
		c6.8-3.5,14.1-6.2,20.4-10.6c2.9,4.6,5.9,9.1,8.8,13.6c0.5,0.6,2.9,3.9,1.8,1.4c-0.6-0.8-0.6-1.7-0.9-2.5
		c-1.7-6.3-5.6-12.1-9.5-17.1c4.3-2.4,7.9-5.9,11.8-8.9C2568.8,1367.7,2569.7,1366.8,2569,1366.6L2569,1366.6z"/>
</g>
<path fill="#FF7D3B" d="M-89.3,680.6c29.2-11.9,62.8-9,89.5-27.3c23.2-18.6,53.9-7.3,78.1-22c125.7-22,275.2,84,353.8,179.4
	c168.4,142,43-64.2,553.7-46.3c216-81.7,233.9,85.3,553.3,70.5c25.5-1.2,82.9,20,103.7,36c37,16,79.2,19,117.4,31.1
	c281.7,171.7-610.9,112.7-706,111.9c-323-2.7-647.1-6.2-967.3-27.7c-99.2-1.9-384.9,11.6-430.5,14c-46-0.2-403,10.6-447.1,11.3
	c-65.5,4.5-126.4-24.1-184.1-51.1c-13.1-4.1-20.7-17.2-22.3-30.6c-11.5-46,83.2-49.9,110-73.9c52.7-26.3,56.5-80.3,121.7-95.5
	c56.9-14.1,115.6,1.4,171.5,13.1c49.2,2.5,95.9,12.8,143.3,25.4c42.8,4.7,89.2-3.2,127.2-23.4C-280,757.9-127.2,691.7-89.3,680.6
	L-89.3,680.6z"/>
<radialGradient id="SVGID_17_" cx="-427.4765" cy="1656.6919" r="669.3" gradientTransform="matrix(0.6111 0.7915 -0.3483 0.2689 387.3145 538.0122)" gradientUnits="userSpaceOnUse">
	<stop  offset="0" style="stop-color:#FFB5D9"/>
	<stop  offset="9.000000e-02" style="stop-color:#FFB1CF;stop-opacity:0.94"/>
	<stop  offset="0.26" style="stop-color:#FFA8B6;stop-opacity:0.78"/>
	<stop  offset="0.5" style="stop-color:#FF9A8E;stop-opacity:0.53"/>
	<stop  offset="0.78" style="stop-color:#FF8757;stop-opacity:0.18"/>
	<stop  offset="0.93" style="stop-color:#FF7D3B;stop-opacity:0"/>
</radialGradient>
<path fill="url(#SVGID_17_)" d="M-89.3,680.6c29.2-11.9,62.8-9,89.5-27.3c23.2-18.6,53.9-7.3,78.1-22c125.7-22,275.2,84,353.8,179.4
	c168.4,142,43-64.2,553.7-46.3c216-81.7,233.9,85.3,553.3,70.5c25.5-1.2,82.9,20,103.7,36c37,16,79.2,19,117.4,31.1
	c281.7,171.7-610.9,112.7-706,111.9c-323-2.7-647.1-6.2-967.3-27.7c-99.2-1.9-384.9,11.6-430.5,14c-46-0.2-403,10.6-447.1,11.3
	c-65.5,4.5-126.4-24.1-184.1-51.1c-13.1-4.1-20.7-17.2-22.3-30.6c-11.5-46,83.2-49.9,110-73.9c52.7-26.3,56.5-80.3,121.7-95.5
	c56.9-14.1,115.6,1.4,171.5,13.1c49.2,2.5,95.9,12.8,143.3,25.4c42.8,4.7,89.2-3.2,127.2-23.4C-280,757.9-127.2,691.7-89.3,680.6
	L-89.3,680.6z"/>
<radialGradient id="SVGID_18_" cx="1366.0952" cy="-965.8242" r="669.3" fx="1338.0151" fy="-1634.5341" gradientTransform="matrix(0.9816 -0.191 8.403134e-02 0.4319 -102.8412 1477.4856)" gradientUnits="userSpaceOnUse">
	<stop  offset="9.000000e-02" style="stop-color:#FFB5D9"/>
	<stop  offset="0.18" style="stop-color:#FFB1CF;stop-opacity:0.94"/>
	<stop  offset="0.35" style="stop-color:#FFA8B6;stop-opacity:0.78"/>
	<stop  offset="0.58" style="stop-color:#FF9A8E;stop-opacity:0.53"/>
	<stop  offset="0.86" style="stop-color:#FF8757;stop-opacity:0.18"/>
	<stop  offset="1" style="stop-color:#FF7D3B;stop-opacity:0"/>
</radialGradient>
<path fill="url(#SVGID_18_)" d="M-89.3,680.6c29.2-11.9,62.8-9,89.5-27.3c23.2-18.6,53.9-7.3,78.1-22c125.7-22,275.2,84,353.8,179.4
	c168.4,142,43-64.2,553.7-46.3c216-81.7,233.9,85.3,553.3,70.5c25.5-1.2,82.9,20,103.7,36c37,16,79.2,19,117.4,31.1
	c281.7,171.7-610.9,112.7-706,111.9c-323-2.7-647.1-6.2-967.3-27.7c-99.2-1.9-384.9,11.6-430.5,14c-46-0.2-403,10.6-447.1,11.3
	c-65.5,4.5-126.4-24.1-184.1-51.1c-13.1-4.1-20.7-17.2-22.3-30.6c-11.5-46,83.2-49.9,110-73.9c52.7-26.3,56.5-80.3,121.7-95.5
	c56.9-14.1,115.6,1.4,171.5,13.1c49.2,2.5,95.9,12.8,143.3,25.4c42.8,4.7,89.2-3.2,127.2-23.4C-280,757.9-127.2,691.7-89.3,680.6
	L-89.3,680.6z"/>
<radialGradient id="SVGID_19_" cx="1737.5045" cy="516.8647" r="431.88" gradientTransform="matrix(0.9999 -1.239152e-02 1.239152e-02 0.9999 -88.5286 631.7947)" gradientUnits="userSpaceOnUse">
	<stop  offset="0.28" style="stop-color:#FFB5D9"/>
	<stop  offset="0.35" style="stop-color:#FFB1CF;stop-opacity:0.94"/>
	<stop  offset="0.48" style="stop-color:#FFA8B6;stop-opacity:0.78"/>
	<stop  offset="0.66" style="stop-color:#FF9A8E;stop-opacity:0.53"/>
	<stop  offset="0.89" style="stop-color:#FF8757;stop-opacity:0.18"/>
	<stop  offset="1" style="stop-color:#FF7D3B;stop-opacity:0"/>
</radialGradient>
<path fill="url(#SVGID_19_)" d="M-89.3,680.6c29.2-11.9,62.8-9,89.5-27.3c23.2-18.6,53.9-7.3,78.1-22c125.7-22,275.2,84,353.8,179.4
	c168.4,142,43-64.2,553.7-46.3c216-81.7,233.9,85.3,553.3,70.5c25.5-1.2,82.9,20,103.7,36c37,16,79.2,19,117.4,31.1
	c281.7,171.7-610.9,112.7-706,111.9c-323-2.7-647.1-6.2-967.3-27.7c-99.2-1.9-384.9,11.6-430.5,14c-46-0.2-403,10.6-447.1,11.3
	c-65.5,4.5-126.4-24.1-184.1-51.1c-13.1-4.1-20.7-17.2-22.3-30.6c-11.5-46,83.2-49.9,110-73.9c52.7-26.3,56.5-80.3,121.7-95.5
	c56.9-14.1,115.6,1.4,171.5,13.1c49.2,2.5,95.9,12.8,143.3,25.4c42.8,4.7,89.2-3.2,127.2-23.4C-280,757.9-127.2,691.7-89.3,680.6
	L-89.3,680.6z"/>
<radialGradient id="SVGID_20_" cx="2573.6802" cy="1329.787" r="474.92" gradientTransform="matrix(-0.9448 -0.3277 0.2065 -0.5952 2453.1653 2667.635)" gradientUnits="userSpaceOnUse">
	<stop  offset="0" style="stop-color:#2879F9"/>
	<stop  offset="0.1" style="stop-color:#3579ED;stop-opacity:0.94"/>
	<stop  offset="0.28" style="stop-color:#5779CE;stop-opacity:0.78"/>
	<stop  offset="0.54" style="stop-color:#8F7A9D;stop-opacity:0.52"/>
	<stop  offset="0.86" style="stop-color:#DC7C59;stop-opacity:0.16"/>
	<stop  offset="1" style="stop-color:#FF7D3B;stop-opacity:0"/>
</radialGradient>
<path fill="url(#SVGID_20_)" d="M-89.3,680.6c29.2-11.9,62.8-9,89.5-27.3c23.2-18.6,53.9-7.3,78.1-22c125.7-22,275.2,84,353.8,179.4
	c168.4,142,43-64.2,553.7-46.3c216-81.7,233.9,85.3,553.3,70.5c25.5-1.2,82.9,20,103.7,36c37,16,79.2,19,117.4,31.1
	c281.7,171.7-610.9,112.7-706,111.9c-323-2.7-647.1-6.2-967.3-27.7c-99.2-1.9-384.9,11.6-430.5,14c-46-0.2-403,10.6-447.1,11.3
	c-65.5,4.5-126.4-24.1-184.1-51.1c-13.1-4.1-20.7-17.2-22.3-30.6c-11.5-46,83.2-49.9,110-73.9c52.7-26.3,56.5-80.3,121.7-95.5
	c56.9-14.1,115.6,1.4,171.5,13.1c49.2,2.5,95.9,12.8,143.3,25.4c42.8,4.7,89.2-3.2,127.2-23.4C-280,757.9-127.2,691.7-89.3,680.6
	L-89.3,680.6z"/>
<radialGradient id="SVGID_21_" cx="-956.6754" cy="324.2347" r="975.44" gradientTransform="matrix(0.9999 -1.239152e-02 1.239152e-02 0.9999 -88.5286 631.7947)" gradientUnits="userSpaceOnUse">
	<stop  offset="0" style="stop-color:#2879F9"/>
	<stop  offset="0.1" style="stop-color:#3579ED;stop-opacity:0.94"/>
	<stop  offset="0.28" style="stop-color:#5779CE;stop-opacity:0.78"/>
	<stop  offset="0.54" style="stop-color:#8F7A9D;stop-opacity:0.52"/>
	<stop  offset="0.86" style="stop-color:#DC7C59;stop-opacity:0.16"/>
	<stop  offset="1" style="stop-color:#FF7D3B;stop-opacity:0"/>
</radialGradient>
<path fill="url(#SVGID_21_)" d="M-89.3,680.6c29.2-11.9,62.8-9,89.5-27.3c23.2-18.6,53.9-7.3,78.1-22c125.7-22,275.2,84,353.8,179.4
	c168.4,142,43-64.2,553.7-46.3c216-81.7,233.9,85.3,553.3,70.5c25.5-1.2,82.9,20,103.7,36c37,16,79.2,19,117.4,31.1
	c281.7,171.7-610.9,112.7-706,111.9c-323-2.7-647.1-6.2-967.3-27.7c-99.2-1.9-384.9,11.6-430.5,14c-46-0.2-403,10.6-447.1,11.3
	c-65.5,4.5-126.4-24.1-184.1-51.1c-13.1-4.1-20.7-17.2-22.3-30.6c-11.5-46,83.2-49.9,110-73.9c52.7-26.3,56.5-80.3,121.7-95.5
	c56.9-14.1,115.6,1.4,171.5,13.1c49.2,2.5,95.9,12.8,143.3,25.4c42.8,4.7,89.2-3.2,127.2-23.4C-280,757.9-127.2,691.7-89.3,680.6
	L-89.3,680.6z"/>
<radialGradient id="SVGID_22_" cx="2808.6267" cy="-469.4965" r="474.92" gradientTransform="matrix(-0.6373 -0.7706 0.3082 -0.2549 2521.9009 2674.0215)" gradientUnits="userSpaceOnUse">
	<stop  offset="0.21" style="stop-color:#FEFDEF"/>
	<stop  offset="0.29" style="stop-color:#FEF5E4;stop-opacity:0.94"/>
	<stop  offset="0.43" style="stop-color:#FEE1C7;stop-opacity:0.78"/>
	<stop  offset="0.63" style="stop-color:#FEC099;stop-opacity:0.53"/>
	<stop  offset="0.88" style="stop-color:#FE935A;stop-opacity:0.18"/>
	<stop  offset="1" style="stop-color:#FF7D3B;stop-opacity:0"/>
</radialGradient>
<path fill="url(#SVGID_22_)" d="M-89.3,680.6c29.2-11.9,62.8-9,89.5-27.3c23.2-18.6,53.9-7.3,78.1-22c125.7-22,275.2,84,353.8,179.4
	c168.4,142,43-64.2,553.7-46.3c216-81.7,233.9,85.3,553.3,70.5c25.5-1.2,82.9,20,103.7,36c37,16,79.2,19,117.4,31.1
	c281.7,171.7-610.9,112.7-706,111.9c-323-2.7-647.1-6.2-967.3-27.7c-99.2-1.9-384.9,11.6-430.5,14c-46-0.2-403,10.6-447.1,11.3
	c-65.5,4.5-126.4-24.1-184.1-51.1c-13.1-4.1-20.7-17.2-22.3-30.6c-11.5-46,83.2-49.9,110-73.9c52.7-26.3,56.5-80.3,121.7-95.5
	c56.9-14.1,115.6,1.4,171.5,13.1c49.2,2.5,95.9,12.8,143.3,25.4c42.8,4.7,89.2-3.2,127.2-23.4C-280,757.9-127.2,691.7-89.3,680.6
	L-89.3,680.6z"/>
<radialGradient id="SVGID_23_" cx="956.9727" cy="1008.1096" r="254.89" gradientTransform="matrix(0.9068 0.4215 -0.9695 2.0857 1214.8416 -1458.7051)" gradientUnits="userSpaceOnUse">
	<stop  offset="0" style="stop-color:#FF7D3B"/>
	<stop  offset="6.000000e-02" style="stop-color:#F57C43"/>
	<stop  offset="0.17" style="stop-color:#DA7C5B"/>
	<stop  offset="0.3" style="stop-color:#AF7B81"/>
	<stop  offset="0.46" style="stop-color:#737AB6"/>
	<stop  offset="0.64" style="stop-color:#2879F9"/>
</radialGradient>
<path fill="url(#SVGID_23_)" d="M1040.6,1111.2c65.9,59.8,143.8,2.2,139-78.8c-15-113.5-44.3-231.5-55.8-341
	c-1-9.3-13.7-89.8-27.4-46.4c-27.7,97.3-49.5,201.3-71.5,298.7C1016.3,997.6,992.1,1068.1,1040.6,1111.2L1040.6,1111.2z"/>
<path fill="#FEFDEF" d="M410.4,840.6c-5.1-1.3-10.4-2.3-15.5-3.4c-0.6,0.3-0.7-0.3-0.4-0.8c1.5-2.1,1-4.7,1.2-7.1
	c1-5.5,1.5-11.3,2.2-16.8c-3.6,8.9-6,18.5-6.5,27.9c-0.4,0.6-1.7-0.3-2.4-0.3c-2.4-0.2-4.7-0.8-7-1.2c-4.3-0.1-8.6-1.8-12.9-1.5
	c7.4,2,14.6,4.8,22.2,5.8c-0.9,5.3-1.7,10.7-2.5,16c-0.1,0.8-0.5,4.8,0.4,2.2c0-1,0.7-1.6,1-2.5c2.9-5.8,3.9-12.7,4.3-19.1
	c4.8,1.1,9.8,0.9,14.7,1.3C409.4,841.3,410.7,841.1,410.4,840.6L410.4,840.6z"/>
<path fill="#FEFDEF" d="M406,829c-4.7,2.4-9.2,5.2-13.8,7.9c-0.2,0.7-0.7,0.2-0.9-0.3c-0.3-2.6-2.4-4.2-3.9-6.1
	c-3-4.8-6.4-9.4-9.6-14c3.3,9,8,17.8,13.8,25.1c0.1,0.8-1.5,0.9-2,1.4c-1.9,1.4-4,2.5-6,3.8c-3.3,2.8-7.6,4.5-10.7,7.5
	c6.8-3.5,14.1-6.2,20.4-10.5c2.9,4.5,5.9,9.1,8.8,13.6c0.5,0.6,2.9,3.9,1.8,1.4c-0.6-0.8-0.5-1.7-0.9-2.5
	c-1.7-6.3-5.6-12.1-9.5-17.1c4.3-2.4,7.9-5.9,11.8-8.9C405.8,830.2,406.7,829.2,406,829L406,829z"/>
<path fill="#FEFDEF" d="M1562.3,853.4c-5.1-1.3-10.3-2.3-15.5-3.4c-0.6,0.3-0.7-0.3-0.4-0.8c1.6-2.1,1-4.7,1.2-7.1
	c1-5.5,1.6-11.3,2.2-16.8c-3.6,8.9-5.9,18.5-6.5,27.9c-0.4,0.6-1.7-0.3-2.4-0.3c-2.4-0.2-4.7-0.8-7-1.2c-4.3-0.1-8.7-1.8-12.9-1.5
	c7.4,2,14.6,4.8,22.2,5.8c-0.9,5.3-1.7,10.7-2.6,16c-0.1,0.8-0.5,4.8,0.4,2.2c0-1,0.7-1.6,1-2.5c2.9-5.8,3.9-12.7,4.3-19.1
	c4.8,1.1,9.8,0.9,14.7,1.3C1561.3,854.1,1562.6,853.9,1562.3,853.4L1562.3,853.4z"/>
<path fill="#FEFDEF" d="M1557.9,841.8c-4.7,2.4-9.2,5.2-13.8,7.9c-0.2,0.7-0.7,0.2-0.8-0.3c-0.3-2.6-2.3-4.2-3.9-6.1
	c-2.9-4.8-6.4-9.4-9.6-14c3.3,9,8,17.8,13.8,25.1c0.1,0.8-1.5,0.9-2,1.4c-1.9,1.4-4,2.5-6,3.8c-3.3,2.8-7.6,4.5-10.7,7.5
	c6.8-3.5,14.1-6.2,20.3-10.5c2.9,4.5,5.9,9.1,8.8,13.6c0.5,0.6,2.9,3.9,1.8,1.4c-0.6-0.8-0.6-1.7-0.9-2.5
	c-1.7-6.3-5.6-12.1-9.5-17.1c4.3-2.4,7.9-5.9,11.8-8.9C1557.7,843,1558.6,842,1557.9,841.8L1557.9,841.8z"/>
<path fill="#FEFDEF" d="M870.3,880.4c-5.1-1.3-10.3-2.3-15.5-3.4c-0.6,0.3-0.7-0.3-0.4-0.8c1.5-2.1,1-4.7,1.2-7.1
	c1-5.5,1.5-11.3,2.2-16.8c-3.6,8.9-6,18.5-6.5,27.9c-0.4,0.6-1.7-0.3-2.4-0.3c-2.4-0.2-4.7-0.8-7-1.2c-4.3-0.1-8.7-1.8-12.9-1.5
	c7.4,2,14.6,4.8,22.2,5.8c-0.9,5.3-1.7,10.7-2.5,16c-0.1,0.8-0.5,4.8,0.4,2.2c0-1,0.7-1.6,1-2.5c2.9-5.8,3.9-12.7,4.3-19.1
	c4.8,1.1,9.8,0.9,14.7,1.3C869.3,881.1,870.6,880.9,870.3,880.4L870.3,880.4z"/>
<path fill="#FEFDEF" d="M865.9,868.8c-4.7,2.4-9.2,5.2-13.8,7.9c-0.2,0.7-0.7,0.2-0.8-0.3c-0.3-2.6-2.3-4.2-3.9-6.1
	c-3-4.8-6.4-9.4-9.6-14c3.3,9,8,17.8,13.8,25.1c0.1,0.8-1.5,0.9-2,1.4c-1.9,1.4-4,2.5-6,3.8c-3.3,2.8-7.6,4.5-10.7,7.5
	c6.8-3.5,14.1-6.2,20.3-10.5c2.9,4.5,5.9,9.1,8.8,13.6c0.5,0.6,2.9,3.9,1.8,1.4c-0.6-0.8-0.5-1.7-0.9-2.5
	c-1.7-6.3-5.6-12.1-9.5-17.1c4.3-2.4,7.9-5.9,11.8-8.9C865.7,870,866.6,869,865.9,868.8L865.9,868.8z"/>
</svg>
