<?xml version="1.0" encoding="utf-8"?>
<!-- Generator: Adobe Illustrator 24.3.0, SVG Export Plug-In . SVG Version: 6.00 Build 0)  -->
<svg version="1.1" id="Layer_1" xmlns="http://www.w3.org/2000/svg" xmlns:xlink="http://www.w3.org/1999/xlink" x="0px" y="0px"
	 width="2954.1px" height="1660.8px" viewBox="0 0 2954.1 1660.8" enable-background="new 0 0 2954.1 1660.8" xml:space="preserve">
<g id="a">
</g>
<g id="b">
	<rect x="-92.5" y="-50" fill="#353332" width="3130.2" height="1756.5"/>
	
		<radialGradient id="SVGID_1_" cx="5149.6216" cy="101.3424" r="184.04" gradientTransform="matrix(5.52 0 0 4.85 -28656.5 1537.42)" gradientUnits="userSpaceOnUse">
		<stop  offset="0.19" style="stop-color:#1C5935"/>
		<stop  offset="0.36" style="stop-color:#1D5734;stop-opacity:0.95"/>
		<stop  offset="0.53" style="stop-color:#205134;stop-opacity:0.82"/>
		<stop  offset="0.71" style="stop-color:#264933;stop-opacity:0.58"/>
		<stop  offset="0.88" style="stop-color:#2E3D32;stop-opacity:0.26"/>
		<stop  offset="1" style="stop-color:#353332;stop-opacity:0"/>
	</radialGradient>
	<path fill="url(#SVGID_1_)" d="M-123.2,1006.2c-8.2,6-18,9.6-26.1,16.1c-20.1,16-35.5,33.6-51.2,52.3c-5.5,6.5-13.6,11.4-18.2,18.5
		c-3.9,6-7.2,13.3-9.6,19.8c-7.6,21.2-26.1,40.2-38.2,60c-23.9,39.5-43.4,80.7-60.1,122.6c-56.3,141.6-82.7,303.8-31.1,448.7
		c45.2,127.1,135.3,231.8,262,313.9c47.4,30.7,101.4,52.3,158.8,67.7c80.9,21.8,164.2,20.8,248.6,18.9c59-1.3,119.9-15.4,174.9-31.8
		c73.5-22,152.6-46.4,219.4-80.7c110.9-56.9,235.4-127.3,285.6-231c11.9-24.6,17.8-50.7,29.7-75.4c6.7-14,17-28.9,22.5-43.6
		c15.6-41.8,21.2-89.2,20.7-132.5c-0.4-39.1,7.3-84.3-0.7-123c-9.3-45.1-39.6-86.5-56.8-129.9c-15.1-38.1-40.6-69.4-61.3-105.5
		c-13.8-24.1-28.2-48-47.4-69.6c-21.8-24.5-52.9-43-77.4-65.4c-12.2-11.1-20.7-22.1-35.5-31c-11.8-7.1-24.6-12.8-36.2-20.2
		c-27.8-17.7-55.4-35.7-84-52.5c-21-12.4-43-23.4-64.7-35.1c-13.9-7.5-25.7-16.7-38.5-25.2c-32.2-21.6-79.4-24.1-118.9-30
		c-21.9-3.3-44-7.8-66.3-7.6c-14.4,0.1-28.8-0.5-43.1,0c-13.8,0.4-27.6,4.4-41.3,5.7c-6.9,0.7-11.8,1.2-18.5,2.4
		c-5.1,0.9-10.3-0.3-15.5,0.8c-10.4,2.3-21.4,4.2-31.8,6.2c-10.8,2.2-21.7,1.5-32.7,4.8c-13.6,4-27.8,6.8-41.3,10.6
		c-14.1,4-30.4,7.2-43,13.5c-15.8,7.9-32.4,13.3-49.7,18.2c-21,5.8-39.1,16.2-59.2,23.2c-10.2,3.6-19.8,8.3-28.6,13.9
		c-19.6,12.7-39.2,27-62.1,35.6c-10.7,4-21.4,6.4-29.3,13.6C-120.6,1004.2-121.9,1005.2-123.2,1006.2L-123.2,1006.2z"/>
	
		<radialGradient id="SVGID_2_" cx="2425.031" cy="-1008.957" r="577.37" gradientTransform="matrix(-6.627395e-02 -0.9978 0.7883 -5.235642e-02 1700.2467 2615.196)" gradientUnits="userSpaceOnUse">
		<stop  offset="0.19" style="stop-color:#2879F9;stop-opacity:0.7"/>
		<stop  offset="0.28" style="stop-color:#2875ED;stop-opacity:0.66"/>
		<stop  offset="0.44" style="stop-color:#2A6ACF;stop-opacity:0.55"/>
		<stop  offset="0.64" style="stop-color:#2D599E;stop-opacity:0.38"/>
		<stop  offset="0.87" style="stop-color:#32415A;stop-opacity:0.14"/>
		<stop  offset="1" style="stop-color:#353332;stop-opacity:0"/>
	</radialGradient>
	<rect x="-610.4" y="-16.3" fill="url(#SVGID_2_)" width="3663.2" height="1779.1"/>
	
		<radialGradient id="SVGID_3_" cx="1589.29" cy="489.51" r="413.18" gradientTransform="matrix(1 0 0 1 0 580)" gradientUnits="userSpaceOnUse">
		<stop  offset="0.19" style="stop-color:#1C5935;stop-opacity:0.7"/>
		<stop  offset="0.39" style="stop-color:#1F5334;stop-opacity:0.59"/>
		<stop  offset="0.73" style="stop-color:#2A4233;stop-opacity:0.29"/>
		<stop  offset="1" style="stop-color:#353332;stop-opacity:0"/>
	</radialGradient>
	<rect x="-155" y="167.6" fill="url(#SVGID_3_)" width="2990.1" height="1666.5"/>
	
		<radialGradient id="SVGID_4_" cx="4146.7681" cy="-823.6461" r="984.23" gradientTransform="matrix(-2.129877e-02 -1.1298 0.5798 -1.388993e-02 3146.2092 5809.8726)" gradientUnits="userSpaceOnUse">
		<stop  offset="0.19" style="stop-color:#FF7D3B;stop-opacity:0.7"/>
		<stop  offset="0.28" style="stop-color:#F3783A;stop-opacity:0.66"/>
		<stop  offset="0.43" style="stop-color:#D56D39;stop-opacity:0.56"/>
		<stop  offset="0.63" style="stop-color:#A45C36;stop-opacity:0.39"/>
		<stop  offset="0.86" style="stop-color:#614334;stop-opacity:0.16"/>
		<stop  offset="1" style="stop-color:#353332;stop-opacity:0"/>
	</radialGradient>
	<rect x="-148.8" y="-297.8" fill="url(#SVGID_4_)" width="3524.4" height="2184.4"/>
</g>
<g id="g">
</g>
<g id="h">
</g>
<g id="c">
	<path fill="#2879F9" d="M2532.7,493.2c-60-15.8-115.1,3.6-174.1-13.7c-27.7-6.1-60.5-3.6-87.5-2.7c-48.6-0.5-97.4-2.3-145.9,2.5
		c-99.9,7.8-198.6,26-296.7,45.6c-239.7,15-484.5-65.9-723.8-28.9c-3.3,1.4-130,6-160.4,5.5c-52.5,3.5-117.2,8.6-145.1,52.3
		c-43.3,67.9,4.2,71.9,74.4,87.4c22.3,4.9,35.8,0.3,66.1-0.8c24.9-0.9,50.1,3.2,74.4,2.7c42.4-0.9,66.4-1.7,125,1
		c40.7,1.8,77.8-6.7,112.3-7.7c450.6-12.4,435,229.5,975.2,43.7c58.2-8.4,119.3,7.3,176.9-4.5c15.6-5.2,27.2,1.5,42.4,5.4
		c19.1-0.3,33.2,12.5,52.4,13.3c21.1,15.5,46.1,17,71.8,18c67.7,10.5,133.3,39.4,202.5,36c42.7,3.8,83.9-7.5,124.7-18
		c33.4-4.8,85.9,0.1,90.6-43.6c7.3-32.8,4.6-69.5-2.6-101.4c-5.7-25.8-10.1-52.4-36.8-65c-25.1-17.2-53.7-13-82.6-13.1
		C2755.2,502.1,2641.8,514.9,2532.7,493.2L2532.7,493.2z"/>
	<path fill="#FF7D3B" d="M117.3,402.6c50.3,2,104.1,22.1,152.7,17.9c41.8-3.6,84-7.3,125.4-14.3c43.5-6,87.6-9.8,129.7-22.3
		c243.8-72.2,494.3-80.6,744.8-80.1c335.4,5.7,679-57.9,999.4,71.9c53.2,20.6,106.9,39.4,158.3,62.4
		c49.9,15.2,101.8,24.3,153.9,27.6c28.6,0.3,57,0.1,85.5-2.6c45.9,0.3,90.8,11.2,137,7.8c42.6-2.1,86.8,10.7,128.2-5.1
		c44.4-20.7,92.8-25.5,141.3-23.2c32.2,0.9,67.9,10.4,97.6-4.6c49-9.1,98.1-14.6,148.1-13.3c15.1,0,28.6,2.2,36.8-12.8
		c29-90.3,19.4-197.7-34.1-277c-14.1-27-7.2-59.2-48.3-51.2c-62.1,2.8-123.6-9.7-185.6-3.2c-73.2,12-145.6,33.3-220.3,34
		c-45.1-3.1-88.8-12.1-134.4-10.3c-27.4,3.6-179.8-1-211.3-2.5c-216.3-24.7-435.3-8.4-652.9-8.4c-407.3-31.8-812,36.4-1218.7,10.2
		c-81.4-7.3-164.7,1.6-245.2-9.8c-15-3.8-31-3.4-46,0.3c-46.2-2.6-90.3,23.2-136.5,13c-45.1-3.7-88.4-19.3-134.2-18.2
		C14.1,96-59.4,108.4-134,109.3c-17.5,0.1-34.3-2.7-51.9-2.6c-28.1-1.7-51.9-17.2-80.7-12.8c-7.1,2.1-10.8,2.3-17.3,4.4
		c-8.8,11.3-8.8,27.8-10.1,41.7c-9.8,45-18.6,89.6-14.9,136.2c8,74.9,85,128.3,157.9,120.3C-61.5,396.8,28.3,393.7,117.3,402.6
		L117.3,402.6z"/>
	<g>
		<path fill="#2879F9" d="M1102,224c19.5-0.8,35.6,7.2,54.2,11c100.4,36.1,210.4,33.9,314,56.2c209.8,46,426.7,27.7,637.8,38.3
			c123.9,6.4,250.4,14.6,376-1.8c50.1,0.7,91.8-27.4,139.5-34c19.9,1,39.5-0.9,59.3-2.3c26.4,2.2,44.2-20.2,69.2-19.8
			c13.6,0,24-11.7,37.4-11.5c13.9,1.8,27.9,1.6,39.8-7.1c51.9-18.4,96.8-53.8,154.8-46c17.5-1.8,28.5-17.7,44.5-23.6
			c11.3-4.1,24.5,1.5,33.7-5.9c8.7-7.2,17.2-11.4,27.9-14.4c9.1-6.5,18.3-14.9,29.3-18.5c27-28.6,0.6-103.6,3.3-140.6
			c-13-7.6-33,0.2-47.6,0.3c-34.3-2.2-68.2-4.3-102.6-0.1c-75.2-4.1-150.1-8.2-224.6-15.6c-60.2-10.3-118.9,4.9-178.5,8
			c-46.8-0.7-91.2-19.1-138.4-15.4c-73,4-146.4,22.1-218.1,30.1c-46.6-1.4-92.6-18.8-140.4-12.2c-167.6,0.6-333.2,24.2-501,21.1
			c-77.3,7-154.1,4.4-231.2,2c-39.4,2.4-77.3-1.7-114.9-12.9c-86.2,3-171.3,14.6-258,10.3c-58.1,1.5-114.1-17.2-172.5-18
			C694.4-4,593.7-33.3,493.5-22.1c-24.1,10.2-55.8,6.9-73.8,27.5c-18.2,29.4,14.4,55.8,39.8,65.4c56.3,37,125.4,41,183.9,71.7
			c19.4,13.8,38,28.7,62.3,31.3c26,9.4,50.1,21.5,78.1,25.1c30.9,12.8,62.3,25.7,94.9,33.4c40,3.4,82.9,5,123.2,0.6
			C1033.4,224.8,1069.2,220.7,1102,224L1102,224z"/>
		
			<radialGradient id="SVGID_5_" cx="2235.2195" cy="-1223.0901" r="923.55" gradientTransform="matrix(0.9998 -2.006994e-02 1.003497e-02 0.4999 0.8775 634.4213)" gradientUnits="userSpaceOnUse">
			<stop  offset="0" style="stop-color:#FF7D3B"/>
			<stop  offset="0.1" style="stop-color:#FF8446;stop-opacity:0.94"/>
			<stop  offset="0.28" style="stop-color:#FF9965;stop-opacity:0.78"/>
			<stop  offset="0.53" style="stop-color:#FFBA97;stop-opacity:0.53"/>
			<stop  offset="0.85" style="stop-color:#FFE7DB;stop-opacity:0.18"/>
			<stop  offset="1" style="stop-color:#FFFFFF;stop-opacity:0"/>
		</radialGradient>
		<path fill="url(#SVGID_5_)" d="M1102,224c19.5-0.8,35.6,7.2,54.2,11c100.4,36.1,210.4,33.9,314,56.2
			c209.8,46,426.7,27.7,637.8,38.3c123.9,6.4,250.4,14.6,376-1.8c50.1,0.7,91.8-27.4,139.5-34c19.9,1,39.5-0.9,59.3-2.3
			c26.4,2.2,44.2-20.2,69.2-19.8c13.6,0,24-11.7,37.4-11.5c13.9,1.8,27.9,1.6,39.8-7.1c51.9-18.4,96.8-53.8,154.8-46
			c17.5-1.8,28.5-17.7,44.5-23.6c11.3-4.1,24.5,1.5,33.7-5.9c8.7-7.2,17.2-11.4,27.9-14.4c9.1-6.5,18.3-14.9,29.3-18.5
			c27-28.6,0.6-103.6,3.3-140.6c-13-7.6-33,0.2-47.6,0.3c-34.3-2.2-68.2-4.3-102.6-0.1c-75.2-4.1-150.1-8.2-224.6-15.6
			c-60.2-10.3-118.9,4.9-178.5,8c-46.8-0.7-91.2-19.1-138.4-15.4c-73,4-146.4,22.1-218.1,30.1c-46.6-1.4-92.6-18.8-140.4-12.2
			c-167.6,0.6-333.2,24.2-501,21.1c-77.3,7-154.1,4.4-231.2,2c-39.4,2.4-77.3-1.7-114.9-12.9c-86.2,3-171.3,14.6-258,10.3
			c-58.1,1.5-114.1-17.2-172.5-18C694.4-4,593.7-33.3,493.5-22.1c-24.1,10.2-55.8,6.9-73.8,27.5c-18.2,29.4,14.4,55.8,39.8,65.4
			c56.3,37,125.4,41,183.9,71.7c19.4,13.8,38,28.7,62.3,31.3c26,9.4,50.1,21.5,78.1,25.1c30.9,12.8,62.3,25.7,94.9,33.4
			c40,3.4,82.9,5,123.2,0.6C1033.4,224.8,1069.2,220.7,1102,224L1102,224z"/>
		
			<radialGradient id="SVGID_6_" cx="1618.5596" cy="-1303.8002" r="923.55" gradientTransform="matrix(0.9998 -2.006994e-02 1.003497e-02 0.4999 1.5575 581.5114)" gradientUnits="userSpaceOnUse">
			<stop  offset="0" style="stop-color:#FEFDEF"/>
			<stop  offset="0.1" style="stop-color:#FEFDEF;stop-opacity:0.94"/>
			<stop  offset="0.28" style="stop-color:#FEFDF2;stop-opacity:0.78"/>
			<stop  offset="0.54" style="stop-color:#FEFDF6;stop-opacity:0.53"/>
			<stop  offset="0.85" style="stop-color:#FEFEFC;stop-opacity:0.18"/>
			<stop  offset="1" style="stop-color:#FFFFFF;stop-opacity:0"/>
		</radialGradient>
		<path fill="url(#SVGID_6_)" d="M1102,224c19.5-0.8,35.6,7.2,54.2,11c100.4,36.1,210.4,33.9,314,56.2
			c209.8,46,426.7,27.7,637.8,38.3c123.9,6.4,250.4,14.6,376-1.8c50.1,0.7,91.8-27.4,139.5-34c19.9,1,39.5-0.9,59.3-2.3
			c26.4,2.2,44.2-20.2,69.2-19.8c13.6,0,24-11.7,37.4-11.5c13.9,1.8,27.9,1.6,39.8-7.1c51.9-18.4,96.8-53.8,154.8-46
			c17.5-1.8,28.5-17.7,44.5-23.6c11.3-4.1,24.5,1.5,33.7-5.9c8.7-7.2,17.2-11.4,27.9-14.4c9.1-6.5,18.3-14.9,29.3-18.5
			c27-28.6,0.6-103.6,3.3-140.6c-13-7.6-33,0.2-47.6,0.3c-34.3-2.2-68.2-4.3-102.6-0.1c-75.2-4.1-150.1-8.2-224.6-15.6
			c-60.2-10.3-118.9,4.9-178.5,8c-46.8-0.7-91.2-19.1-138.4-15.4c-73,4-146.4,22.1-218.1,30.1c-46.6-1.4-92.6-18.8-140.4-12.2
			c-167.6,0.6-333.2,24.2-501,21.1c-77.3,7-154.1,4.4-231.2,2c-39.4,2.4-77.3-1.7-114.9-12.9c-86.2,3-171.3,14.6-258,10.3
			c-58.1,1.5-114.1-17.2-172.5-18C694.4-4,593.7-33.3,493.5-22.1c-24.1,10.2-55.8,6.9-73.8,27.5c-18.2,29.4,14.4,55.8,39.8,65.4
			c56.3,37,125.4,41,183.9,71.7c19.4,13.8,38,28.7,62.3,31.3c26,9.4,50.1,21.5,78.1,25.1c30.9,12.8,62.3,25.7,94.9,33.4
			c40,3.4,82.9,5,123.2,0.6C1033.4,224.8,1069.2,220.7,1102,224L1102,224z"/>
		
			<radialGradient id="SVGID_7_" cx="924.2596" cy="-1285.4701" r="923.55" gradientTransform="matrix(0.9998 -2.006994e-02 1.003497e-02 0.4999 1.2375 576.7813)" gradientUnits="userSpaceOnUse">
			<stop  offset="0" style="stop-color:#FFB5D9"/>
			<stop  offset="9.000000e-02" style="stop-color:#FFB9DB;stop-opacity:0.94"/>
			<stop  offset="0.26" style="stop-color:#FFC5E1;stop-opacity:0.78"/>
			<stop  offset="0.5" style="stop-color:#FFD7EA;stop-opacity:0.53"/>
			<stop  offset="0.78" style="stop-color:#FFF1F8;stop-opacity:0.18"/>
			<stop  offset="0.93" style="stop-color:#FFFFFF;stop-opacity:0"/>
		</radialGradient>
		<path fill="url(#SVGID_7_)" d="M1102,224c19.5-0.8,35.6,7.2,54.2,11c100.4,36.1,210.4,33.9,314,56.2
			c209.8,46,426.7,27.7,637.8,38.3c123.9,6.4,250.4,14.6,376-1.8c50.1,0.7,91.8-27.4,139.5-34c19.9,1,39.5-0.9,59.3-2.3
			c26.4,2.2,44.2-20.2,69.2-19.8c13.6,0,24-11.7,37.4-11.5c13.9,1.8,27.9,1.6,39.8-7.1c51.9-18.4,96.8-53.8,154.8-46
			c17.5-1.8,28.5-17.7,44.5-23.6c11.3-4.1,24.5,1.5,33.7-5.9c8.7-7.2,17.2-11.4,27.9-14.4c9.1-6.5,18.3-14.9,29.3-18.5
			c27-28.6,0.6-103.6,3.3-140.6c-13-7.6-33,0.2-47.6,0.3c-34.3-2.2-68.2-4.3-102.6-0.1c-75.2-4.1-150.1-8.2-224.6-15.6
			c-60.2-10.3-118.9,4.9-178.5,8c-46.8-0.7-91.2-19.1-138.4-15.4c-73,4-146.4,22.1-218.1,30.1c-46.6-1.4-92.6-18.8-140.4-12.2
			c-167.6,0.6-333.2,24.2-501,21.1c-77.3,7-154.1,4.4-231.2,2c-39.4,2.4-77.3-1.7-114.9-12.9c-86.2,3-171.3,14.6-258,10.3
			c-58.1,1.5-114.1-17.2-172.5-18C694.4-4,593.7-33.3,493.5-22.1c-24.1,10.2-55.8,6.9-73.8,27.5c-18.2,29.4,14.4,55.8,39.8,65.4
			c56.3,37,125.4,41,183.9,71.7c19.4,13.8,38,28.7,62.3,31.3c26,9.4,50.1,21.5,78.1,25.1c30.9,12.8,62.3,25.7,94.9,33.4
			c40,3.4,82.9,5,123.2,0.6C1033.4,224.8,1069.2,220.7,1102,224L1102,224z"/>
	</g>
	<path fill="#FF7D3B" d="M1117.7,382.2c-3,45.1,13.5,36.2-22.4,40.8c-12,0.7-24.2,2.6-36,3.9c5.4,1.3,11,1,16.5,1.9
		c72.4,4.3,45.7-22.3,57.5,51.6c7.2-59.2-14.5-54.8,31.4-57c5.2,0.1,10.4-1.1,15.5-1.9c-8.1-3.1-21.1-4.4-31.2-3.9
		c-6.9-0.2-20.6,3.2-24,0.7C1123,407.2,1123.3,390.1,1117.7,382.2L1117.7,382.2z"/>
	<path fill="#FFB5D9" d="M1093.2,398.7c27.9,35.6,34.3,17.9,10.6,45.4c-8.4,8.6-16.3,18.1-24.2,27c4.9-2.6,8.8-6.6,13.5-9.6
		c56.3-45.1,19.7-46.8,77.2-0.1c-34.6-49.3-47.2-31-14.7-63.4c3.9-3.4,7-7.8,10.3-11.7c-8.1,3.1-18.6,10.8-25.8,17.9
		c-5.3,4.5-13.1,16.2-17.4,16.6C1113.9,413.7,1102.7,400.8,1093.2,398.7L1093.2,398.7z"/>
	<path fill="none" stroke="#FF7D3B" stroke-width="2" stroke-linecap="square" stroke-linejoin="bevel" d="M913.2,316.4
		c34.9,96.6,80,79.2,126.4-9c34.9,68.9,93.8,116.6,160.4,12.7c2.5-5.5,6.6-16.7,6.6-16.7s15.9,44.4,29.6,55.1
		c41.5,40.9,90.2-13.9,104.3-54.5c8.4,62.3,109,56.4,123.7-2.6"/>
	<g>
		<path fill="#1C5935" d="M1413.2,347.9c-9.3,15.1-25.3,24.4-37.6,36.6c13.4-2.1,24.6-11,35.7-17.8c-9.7,14.3-23.6,24.7-36.2,36.3
			c13.5-0.3,25.6-8.7,38.1-12.9c-11.5,10.8-23.7,21.6-36.8,30.3c13.9-1.2,28.5-0.2,42-3.1c-13.8,9-33.3,11.3-44.2,24.4
			c17.6-3.8,35.8-0.9,53.7-1.4c15.1,0.7,30.1-1.9,45.1-0.6c-6.7-4-14.2-5.5-21.3-8.6c-8.8-4.1-16.6-10.5-24.9-15.3
			c8.9-0.7,18.1-0.9,26.7-3.1c-13-4.8-25.3-11.7-34.6-22.2c10.7,3.9,23.3,4,34.5,2.7c-13.8-5.6-27.7-12.9-37.1-24.8
			c7.9,3.3,16.3,6.4,24.9,7.2c-6.4-5.7-14-10.9-18.6-18.2c-1.9-3.7-5.4-6.1-7.4-9.8c-0.3-0.4-0.7-1.1-1.3-0.9
			C1413.4,346.7,1412.3,349.4,1413.2,347.9L1413.2,347.9z"/>
		<path fill="#FF7D3B" d="M1445.6,375.4c-1.4-3.4-6.9-1-5.1,2.4C1441.8,381.2,1447,378.4,1445.6,375.4z"/>
		<path fill="#FF7D3B" d="M1411.2,364.6c-1.7,2.1,1.7,5.2,3.3,2.8C1416.1,365.4,1412.7,362.1,1411.2,364.6z"/>
		<path fill="#FF7D3B" d="M1379.6,402.9c-3.4,3.4,3.5,7.2,5.2,3C1385.9,402.3,1382.1,401,1379.6,402.9z"/>
		<path fill="#FF7D3B" d="M1424.6,412.1c-1.1-0.2-1.5,2-1.4,2.9c0.2,2.3,4.1,3.2,5.4,1.4C1429.9,414,1427.3,409.9,1424.6,412.1z"/>
		<path fill="#FF7D3B" d="M1401.2,444.2c1.9,0.2,4.1-1.2,2.5-4.2c-1-1-3.3-0.9-3.9-0.1C1399.1,440.8,1399.5,444,1401.2,444.2
			L1401.2,444.2z"/>
	</g>
</g>
<g id="g_1_">
	<path fill="#FEFDEF" d="M1287.7,372.4c-5.1-1.3-10.3-2.3-15.5-3.4c-0.6,0.3-0.7-0.3-0.4-0.8c1.6-2.1,1-4.7,1.2-7.1
		c1-5.5,1.6-11.3,2.2-16.8c-3.6,8.9-5.9,18.5-6.5,27.9c-0.4,0.6-1.7-0.3-2.4-0.3c-2.4-0.2-4.7-0.8-7-1.2c-4.3-0.1-8.7-1.8-12.9-1.5
		c7.4,2,14.6,4.8,22.2,5.8c-0.9,5.3-1.7,10.7-2.6,16c-0.1,0.8-0.5,4.9,0.4,2.2c0-1,0.7-1.6,1-2.5c2.9-5.8,3.9-12.7,4.3-19.1
		c4.8,1.1,9.8,0.9,14.7,1.3C1286.8,373,1288.1,372.9,1287.7,372.4L1287.7,372.4z"/>
	<path fill="#FEFDEF" d="M1283.4,360.8c-4.7,2.4-9.2,5.2-13.8,7.9c-0.2,0.6-0.7,0.2-0.8-0.3c-0.3-2.6-2.3-4.2-3.9-6.1
		c-2.9-4.8-6.4-9.4-9.6-14c3.3,9,8,17.8,13.8,25.1c0.1,0.8-1.5,0.9-2,1.4c-1.9,1.4-4,2.5-6,3.8c-3.3,2.8-7.6,4.5-10.7,7.5
		c6.8-3.5,14.1-6.2,20.3-10.5c2.9,4.5,5.9,9.1,8.8,13.6c0.5,0.6,2.9,3.9,1.8,1.4c-0.6-0.8-0.6-1.6-0.9-2.5
		c-1.7-6.3-5.6-12.1-9.5-17.1c4.3-2.4,7.9-5.9,11.8-8.9C1283.2,361.9,1284,361,1283.4,360.8L1283.4,360.8z"/>
	<path fill="#FEFDEF" d="M425.7,267.2c-5.1-1.3-10.4-2.3-15.5-3.4c-0.6,0.3-0.7-0.3-0.4-0.8c1.5-2.1,1-4.7,1.2-7.1
		c1-5.5,1.5-11.3,2.2-16.8c-3.6,8.9-6,18.5-6.5,27.9c-0.4,0.6-1.7-0.3-2.4-0.3c-2.4-0.2-4.7-0.8-7-1.2c-4.3-0.1-8.6-1.8-12.9-1.5
		c7.4,2,14.6,4.8,22.2,5.8c-0.9,5.3-1.7,10.7-2.5,16c-0.1,0.8-0.5,4.9,0.4,2.2c0-1,0.7-1.6,1-2.5c2.9-5.8,3.9-12.7,4.3-19.1
		c4.8,1.1,9.8,0.9,14.7,1.3C424.8,267.9,426.1,267.8,425.7,267.2L425.7,267.2z"/>
	<path fill="#FEFDEF" d="M421.4,255.6c-4.7,2.4-9.2,5.2-13.8,7.9c-0.2,0.6-0.7,0.2-0.9-0.3c-0.3-2.6-2.4-4.2-3.9-6.1
		c-3-4.8-6.4-9.4-9.6-14c3.3,9,8,17.8,13.8,25.1c0.1,0.8-1.5,0.9-2,1.4c-1.9,1.4-4,2.5-6,3.8c-3.3,2.8-7.6,4.5-10.7,7.5
		c6.8-3.5,14.1-6.2,20.4-10.5c2.9,4.5,5.9,9.1,8.8,13.6c0.5,0.6,2.9,3.9,1.8,1.4c-0.6-0.8-0.5-1.6-0.9-2.5
		c-1.7-6.3-5.6-12.1-9.5-17.1c4.3-2.4,7.9-5.9,11.8-8.9C421.2,256.8,422,255.8,421.4,255.6L421.4,255.6z"/>
	<path fill="#FEFDEF" d="M2325.1,379.8c-5.1-1.3-10.4-2.3-15.5-3.4c-0.6,0.3-0.7-0.3-0.4-0.8c1.6-2.1,1-4.7,1.2-7.1
		c1-5.5,1.6-11.3,2.2-16.8c-3.6,8.9-5.9,18.5-6.5,27.9c-0.4,0.6-1.7-0.3-2.4-0.3c-2.4-0.2-4.7-0.8-7-1.2c-4.3-0.1-8.6-1.8-12.9-1.5
		c7.4,2,14.6,4.8,22.2,5.8c-0.9,5.3-1.7,10.7-2.6,16c-0.1,0.8-0.5,4.9,0.4,2.2c0-1,0.7-1.6,1-2.5c2.9-5.8,3.9-12.7,4.3-19.1
		c4.8,1.1,9.8,0.9,14.7,1.3C2324.1,380.5,2325.4,380.4,2325.1,379.8L2325.1,379.8z"/>
	<path fill="#FEFDEF" d="M2320.7,368.3c-4.7,2.4-9.2,5.2-13.8,7.9c-0.2,0.6-0.7,0.2-0.9-0.3c-0.3-2.6-2.4-4.2-3.9-6.1
		c-2.9-4.8-6.4-9.4-9.6-14c3.3,9,8,17.8,13.8,25.1c0.1,0.8-1.5,0.9-2,1.4c-1.9,1.4-4,2.5-6,3.8c-3.3,2.8-7.6,4.5-10.7,7.5
		c6.8-3.5,14.1-6.2,20.4-10.5c2.9,4.5,5.9,9.1,8.8,13.6c0.5,0.6,2.9,3.9,1.8,1.4c-0.6-0.8-0.6-1.6-0.9-2.5
		c-1.7-6.3-5.6-12.1-9.5-17.1c4.3-2.4,7.9-5.9,11.8-8.9C2320.5,369.4,2321.4,368.4,2320.7,368.3L2320.7,368.3z"/>
	<path fill="#FEFDEF" d="M1669.8,415.7c-5.1-1.3-10.3-2.3-15.5-3.4c-0.6,0.3-0.7-0.3-0.4-0.8c1.6-2.1,1-4.7,1.2-7.1
		c1-5.5,1.6-11.3,2.2-16.8c-3.6,8.9-5.9,18.5-6.5,27.9c-0.4,0.6-1.7-0.3-2.4-0.3c-2.4-0.2-4.7-0.8-7-1.2c-4.3-0.1-8.7-1.8-12.9-1.5
		c7.4,2,14.6,4.8,22.2,5.8c-0.9,5.3-1.7,10.7-2.6,16c-0.1,0.8-0.5,4.9,0.4,2.2c0-1,0.7-1.6,1-2.5c2.9-5.8,3.9-12.7,4.3-19.1
		c4.8,1.1,9.8,0.9,14.7,1.3C1668.8,416.3,1670.1,416.2,1669.8,415.7L1669.8,415.7z"/>
	<path fill="#FEFDEF" d="M1665.4,404.1c-4.7,2.4-9.2,5.2-13.8,7.9c-0.2,0.6-0.7,0.2-0.8-0.3c-0.3-2.6-2.3-4.2-3.9-6.1
		c-2.9-4.8-6.4-9.4-9.6-14c3.3,9,8,17.8,13.8,25.1c0.1,0.8-1.5,0.9-2,1.4c-1.9,1.4-4,2.5-6,3.8c-3.3,2.8-7.6,4.5-10.7,7.5
		c6.8-3.5,14.1-6.2,20.3-10.5c2.9,4.5,5.9,9.1,8.8,13.6c0.5,0.6,2.9,3.9,1.8,1.4c-0.6-0.8-0.6-1.6-0.9-2.5
		c-1.7-6.3-5.6-12.1-9.5-17.1c4.3-2.4,7.9-5.9,11.8-8.9C1665.2,405.2,1666.1,404.3,1665.4,404.1L1665.4,404.1z"/>
	<path fill="#FEFDEF" d="M1972.8,231.7c-5.1-1.3-10.3-2.3-15.5-3.4c-0.6,0.3-0.7-0.3-0.4-0.8c1.6-2.1,1-4.7,1.2-7.1
		c1-5.5,1.6-11.3,2.2-16.8c-3.6,8.9-5.9,18.5-6.5,27.9c-0.4,0.6-1.7-0.3-2.4-0.3c-2.4-0.2-4.7-0.8-7-1.2c-4.3-0.1-8.7-1.8-12.9-1.5
		c7.4,2,14.6,4.8,22.2,5.8c-0.9,5.3-1.7,10.7-2.6,16c-0.1,0.8-0.5,4.9,0.4,2.2c0-1,0.7-1.6,1-2.5c2.9-5.8,3.9-12.7,4.3-19.1
		c4.8,1.1,9.8,0.9,14.7,1.3C1971.8,232.3,1973.1,232.2,1972.8,231.7L1972.8,231.7z"/>
	<path fill="#FEFDEF" d="M1968.4,220.1c-4.7,2.4-9.2,5.2-13.8,7.9c-0.2,0.6-0.7,0.2-0.8-0.3c-0.3-2.6-2.3-4.2-3.9-6.1
		c-2.9-4.8-6.4-9.4-9.6-14c3.3,9,8,17.8,13.8,25.1c0.1,0.8-1.5,0.9-2,1.4c-1.9,1.4-4,2.5-6,3.8c-3.3,2.8-7.6,4.5-10.7,7.5
		c6.8-3.5,14.1-6.2,20.3-10.6c2.9,4.6,5.9,9.1,8.8,13.6c0.5,0.6,2.9,3.9,1.8,1.4c-0.6-0.8-0.6-1.6-0.9-2.5
		c-1.7-6.3-5.6-12.1-9.5-17.1c4.3-2.4,7.9-5.9,11.8-8.9C1968.2,221.2,1969.1,220.3,1968.4,220.1L1968.4,220.1z"/>
	<path fill="#FEFDEF" d="M2391.6,254.4c-5.1-1.3-10.4-2.3-15.5-3.4c-0.6,0.3-0.7-0.3-0.4-0.8c1.6-2.1,1-4.7,1.2-7.1
		c1-5.5,1.6-11.3,2.2-16.8c-3.6,8.9-5.9,18.5-6.5,27.9c-0.4,0.6-1.7-0.3-2.4-0.3c-2.4-0.2-4.7-0.8-7-1.2c-4.3-0.1-8.6-1.8-12.9-1.5
		c7.4,2,14.6,4.8,22.2,5.8c-0.9,5.3-1.7,10.7-2.6,16c-0.1,0.8-0.5,4.9,0.4,2.2c0-1,0.7-1.6,1-2.5c2.9-5.8,3.9-12.7,4.3-19.1
		c4.8,1.1,9.8,0.9,14.7,1.3C2390.7,255.1,2392,255,2391.6,254.4L2391.6,254.4z"/>
	<path fill="#FEFDEF" d="M2387.3,242.8c-4.7,2.4-9.2,5.2-13.8,7.9c-0.2,0.6-0.7,0.2-0.9-0.3c-0.3-2.6-2.4-4.2-3.9-6.1
		c-2.9-4.8-6.4-9.4-9.6-14c3.3,9,8,17.8,13.8,25.1c0.1,0.8-1.5,0.9-2,1.4c-1.9,1.4-4,2.5-6,3.8c-3.3,2.8-7.6,4.5-10.7,7.5
		c6.8-3.5,14.1-6.2,20.4-10.5c2.9,4.5,5.9,9.1,8.8,13.6c0.5,0.6,2.9,3.9,1.8,1.4c-0.6-0.8-0.6-1.6-0.9-2.5
		c-1.7-6.3-5.6-12.1-9.5-17.1c4.3-2.4,7.9-5.9,11.8-8.9C2387.1,244,2387.9,243,2387.3,242.8L2387.3,242.8z"/>
	<path fill="#FEFDEF" d="M931.8,315.4c-5.1-1.3-10.3-2.3-15.5-3.4c-0.6,0.3-0.7-0.3-0.4-0.8c1.5-2.1,1-4.7,1.2-7.1
		c1-5.5,1.5-11.3,2.2-16.8c-3.6,8.9-6,18.5-6.5,27.9c-0.4,0.6-1.7-0.3-2.4-0.3c-2.4-0.2-4.7-0.8-7-1.2c-4.3-0.1-8.7-1.8-12.9-1.5
		c7.4,2,14.6,4.8,22.2,5.8c-0.9,5.3-1.7,10.7-2.5,16c-0.1,0.8-0.5,4.9,0.4,2.2c0-1,0.7-1.6,1-2.5c2.9-5.8,3.9-12.7,4.3-19.1
		c4.8,1.1,9.8,0.9,14.7,1.3C930.9,316,932.2,315.9,931.8,315.4L931.8,315.4z"/>
	<path fill="#FEFDEF" d="M927.5,303.8c-4.7,2.4-9.2,5.2-13.8,7.9c-0.2,0.6-0.7,0.2-0.8-0.3c-0.3-2.6-2.3-4.2-3.9-6.1
		c-3-4.8-6.4-9.4-9.6-14c3.3,9,8,17.8,13.8,25.1c0.1,0.8-1.5,0.9-2,1.4c-1.9,1.4-4,2.5-6,3.8c-3.3,2.8-7.6,4.5-10.7,7.5
		c6.8-3.5,14.1-6.2,20.3-10.5c2.9,4.5,5.9,9.1,8.8,13.6c0.5,0.6,2.9,3.9,1.8,1.4c-0.6-0.8-0.5-1.6-0.9-2.5
		c-1.7-6.3-5.6-12.1-9.5-17.1c4.3-2.4,7.9-5.9,11.8-8.9C927.3,304.9,928.1,304,927.5,303.8L927.5,303.8z"/>
</g>
</svg>
