<?xml version="1.0" encoding="utf-8"?>
<!-- Generator: Adobe Illustrator 24.3.0, SVG Export Plug-In . SVG Version: 6.00 Build 0)  -->
<svg version="1.1" id="Layer_1" xmlns="http://www.w3.org/2000/svg" xmlns:xlink="http://www.w3.org/1999/xlink" x="0px" y="0px"
	 width="396px" height="306px" viewBox="0 0 396 306" enable-background="new 0 0 396 306" xml:space="preserve">
<g id="a">
</g>
<g id="b">
</g>
<g id="c">
</g>
<g id="d">
	<path fill="#FEFDEF" stroke="#FF7D3B" stroke-linejoin="bevel" d="M43.4,210.3c-8.9-9.5-16.2-20.3-24.2-30.5c-3-5.1-6-10-9.1-15
		c-1.1-1.4-1.1-3.4-1.2-5.2C8,145.7,15,138.8,28.6,138.1c7.6-1.2,14.4,2.2,21.2,4.9c19.4,7.2,30.1,26.2,37.5,44.3c0,2.7,1.1,1,2.7,2
		c11.3,2.8,21.8,8.4,32.6,12.8c7.8,4.6,16.9,7.2,24.2,12.6c8.2-15.7,25.3-25.1,34.5-40.4c4.9-9.6,10.3-19,17.2-27.3
		c5.9-8.9,8.6-19.2,11.2-29.4c2.5-10.3,5.2-20.7,6.4-31.2c0-8.9,2.6-17.5,3-26.2c-1-7.7-0.1-15.5,0.2-23.2
		c1.2-9.5,2.4-23.6,13.4-26.4c5.3-2.4,11-1.6,14.5,3.3c0.4,2.6,3.5,3.3,4.5,5.6c5.8,10,9.8,21.4,9.5,33c0.9,19.8-5.1,38.5-10.7,57.1
		c-4.6,16.6-8.8,33.6-16.1,49.3c-1.7,3.7-2.8,7.9-4.8,11.4c-0.4,1.1-1.1,1.8-2,2.6c-1,1.7-1.5,3.6-2.5,5.2
		c9.7-3.2,15.1-13.8,22.7-20.1c1-1.6,2.6-2.6,3.3-4.4c1-2.1,3.6-3.2,5.1-5c4.1-4.4,6.4-10.2,9.2-15.4c3.9-7.6,6.1-16,9.5-23.8
		c3.4-3.9,3.2-9,5.2-13.5c2.8-7.3,5.5-14.6,7.4-22.1c4.6-11.9,11.9-23.2,20.7-32.4c7.1-5.3,25.6-7.9,28.9,2.9c1.1,7.2,0,14.7,0.4,22
		c0,6.8-2.8,13.1-3.8,19.7c-2.2,9.6-9.3,16.7-12.9,25.7c-2.4,6.3-4.8,12.4-8.3,18.2c-4.8,7.1-9.5,14.2-14.5,21.1
		c-2.1,3.1-4.6,5.7-7.9,7.3c-10.6,12.7-23.3,23.6-36.1,33.7c5.5-0.3,10.2-4.4,15.4-6.3c8.4-4.7,15.2-11.8,23.3-17
		c5.5-2.9,10.3-6.4,15.2-10c8.1-5.8,16.7-10.8,24.9-16.4c7.1-5.4,14.7-10.2,23.7-11.6c8.1-0.6,20.6-3.2,25,5.7
		c2.6,7.1,2.7,15.7-0.6,22.7c-5.3,9.7-14.5,15.7-21.8,23.7c-1.9,2.5-3.7,5-6.1,7c-9.5,5.4-17.2,13.4-27,18.3
		c-23.3,11.3-46.7,22.7-69.3,35.4c15.4-4.4,31.9-4.7,47.7-7.6c14.2-3.4,28.5-6,42.8-8.8c12.5-1.3,27.4,6.6,20.5,20.8
		c-7.8,9.9-17.9,17.8-29.9,21.9c-9.6,4.5-18.5,10.6-29.3,12c-15,3.5-30,6.3-45.4,7c-9.1,1.2-17.9,3.8-27.1,3
		c-20.8,0.3-42.2,0.8-62.2-5.6c-7.9-2.7-15.8-5.7-23.5-9c-2.6-1-4.8-2.6-6.8-4.4c-2.8-1.6-6.4-2.1-9.4-3.1
		c-18.9-6.7-37-16.2-54.1-26.8C66.9,233.2,55.2,221.5,43.4,210.3L43.4,210.3z"/>
	<path fill="none" stroke="#FF7D3B" stroke-linejoin="bevel" d="M10.9,163.4C27,168,38,185,38.2,201.7"/>
	<path fill="none" stroke="#FF7D3B" stroke-linejoin="bevel" d="M233,13.4c1.2,10.1,3.6,21.8,11.1,29.2c1.6,1,3.1,2.4,5.2,2.2
		c1,0,2.9,0.4,3.5-0.6c2-2.8,2.7-6.2,2.6-9.6c0.3-1.4,0.4-3.4,0-4.8v0.1"/>
	<path fill="none" stroke="#FF7D3B" stroke-linejoin="bevel" d="M320.5,40.3c-6.1,6.3-7,23.6,3.3,26.2c10.8,2.5,11.3-12.2,11.5-19.5
		l-0.2,0"/>
	<path fill="none" stroke="#FF7D3B" stroke-linejoin="bevel" d="M366,242.1c-9.5,1.6-17.9,11-18.3,20.7"/>
	<path fill="none" stroke="#FF7D3B" stroke-linejoin="bevel" d="M376.9,135.9c-8.1,5.9-10,18.3-9,27.8c0.6,0.9,1,2,2,2.4
		c0.6,0.2,0.7,0.8,1.1,1.3"/>
</g>
<g id="e">
</g>
</svg>
