<?xml version="1.0" encoding="utf-8"?>
<!-- Generator: Adobe Illustrator 24.3.0, SVG Export Plug-In . SVG Version: 6.00 Build 0)  -->
<svg version="1.1" id="Layer_1" xmlns="http://www.w3.org/2000/svg" xmlns:xlink="http://www.w3.org/1999/xlink" x="0px" y="0px"
	 width="225px" height="238.5px" viewBox="0 0 225 238.5" enable-background="new 0 0 225 238.5" xml:space="preserve">
<g id="a">
</g>
<g id="b">
</g>
<g id="c">
</g>
<g id="d">
</g>
<g id="e">
</g>
<g id="f">
</g>
<g id="g">
</g>
<g id="h">
	<path fill="#1C5935" stroke="#2879F9" stroke-width="6" stroke-miterlimit="10" d="M11.6,160.9c0.6,2.1,1.8,4,2.5,6.1
		c1.6,4.3,3.8,8.2,6.4,11.9c1.5,2.1,2.6,4.4,3.5,6.7c0.8,2,2.2,3.8,3.3,5.7c0.7,1.2,1.4,1.7,2.4,2.7c0.9,0.9,1.4,2.2,2.2,3.2
		c1.7,2.2,3.6,2.9,5.7,4.3c2,1.4,3.7,3.1,5.8,4.4c2.3,1.4,4.6,2.4,7,3.5c2.3,1.1,4.3,2.2,6.8,2.9c2.9,0.7,6.2,1.8,8.8,3.3
		c4.4,2.5,9.4,3.9,14,6.2c3.8,2,8.2,2,12.2,3.3c6.9,2.4,14.3,3.5,21.2,5.4c2.9,0.8,6.8,0.1,9.8,0.1c1.4,0,2.9,0,4.3,0
		c2.1,0,3.2-0.7,5.2-1.2c2.7-0.7,5.4-1.2,8.1-2c2.9-0.8,5.4-2.2,8.2-3c2.6-0.8,5-2,7.4-3.2c2.5-1.2,5.2-2.3,7.6-3.7
		c2.2-1.3,3.7-3.8,5.9-5c0.8-0.5,1.8-0.6,2.5-1.2c1-0.8,1.2-2,2.1-2.7c0.9-0.7,1.8-0.9,2.6-1.8c0.9-1,1.5-2.1,2.3-3.1
		c1.7-2,3.2-4.2,5-6.1c3.9-4.2,6.4-9.7,9.4-14.4c1-1.6,2.3-3.1,3-5c1-2.7,2.6-5,3.5-7.7c0.7-2.1,2-3.7,2.9-5.6
		c1.2-2.6,2.8-4.8,4-7.4c1.6-3.4,3.4-6.5,5.2-9.8c1-1.8,1.8-3.9,2.2-6c1.7-7.7,4.1-16.5,2.1-24.3c-2.2-8.5-1.4-17.3-1.4-26
		c0-3.2-0.7-6.2-1.2-9.4c-0.5-3.2-1.5-5-2.6-7.9c-1.1-3.1-1.3-6.4-2.4-9.4c-1.5-4.1-3.9-8.3-5.9-12.1c-7.1-13.1-18.7-22.6-30.8-30.8
		c-6.6-4.5-13.8-6.5-21.5-8c-4.1-0.8-7.7-1.1-11.8-1.3c-4.5-0.2-8.9-1.8-13.4-2.4c-14.5-1.9-31.5-4.2-45.5,1c-5.4,2-10.9,4-16.4,5.7
		c-3.1,0.9-5.5,2.7-8.2,4.4c-2.8,1.8-6.7,2.6-9.3,4.6c-2,1.5-2.9,3.5-5.3,4.6c-2.6,1.3-3.5,2.5-5.6,4.5c-2.3,2.1-5.2,2.8-7.2,5.1
		c-1.9,2.2-3.5,4.9-5.3,7.3c-3,4-6.4,6.5-8.1,11.2c-1.7,4.9-3.8,9.7-4.8,14.7c-1,4.5-1.9,9.1-2.6,13.6C7,91,7.7,96.1,7.7,100.6
		c0,16.5-0.8,33.4,1.7,49.8c0.5,3.4,1.1,6.5,2,9.7C11.4,160.4,11.5,160.6,11.6,160.9L11.6,160.9z"/>
</g>
<g id="i">
</g>
<g id="j">
</g>
</svg>
