<?xml version="1.0" encoding="utf-8"?>
<!-- Generator: Adobe Illustrator 24.3.0, SVG Export Plug-In . SVG Version: 6.00 Build 0)  -->
<svg version="1.1" id="Layer_1" xmlns="http://www.w3.org/2000/svg" xmlns:xlink="http://www.w3.org/1999/xlink" x="0px" y="0px"
	 width="219px" height="218.9px" viewBox="0 0 219 218.9" enable-background="new 0 0 219 218.9" xml:space="preserve">
<g id="босх_снежки_кружки">
</g>
<g id="босх_челики">
</g>
<g id="рефы">
</g>
<g id="эскиз">
</g>
<g id="низ">
</g>
<g id="пятна">
</g>
<g id="снежки">
</g>
<g id="снежки_шарики">
	<path fill="#2879F9" d="M61.4,16.6c-0.8,0.8-1,1.7-1.8,2.4c-0.8,0.7-2.5,1.3-3.4,1.9c-1.1,0.8-1.9,1.8-3,2.7
		c-1.7,1.3-3.7,2.2-5.5,3.5C46,28.3,44.6,30,43,31.2c-2.2,1.7-4.8,2.6-7,4.5c-3.2,2.8-6,5.6-8.8,8.7c-0.9,1-2,1.5-2.9,2.4
		c-1.1,1-1.7,2.4-2.7,3.5c-0.9,1-2.3,1.8-2.9,3.1c-0.2,0.5-0.2,1.1-0.5,1.6c-0.5,1.1-1.5,2-2.2,3c-1.1,1.4-1.2,3.8-1.9,5.5
		c-0.2,0.4-0.3,0.8-0.4,1.2l-0.3,0.9c-0.2,0.8,0.1,1.6-0.1,2.3c-0.1,0.7-0.5,1.4-0.8,2c-0.3,0.7-0.4,1.6-0.8,2.3
		c-0.4,0.8-0.9,1.5-1.2,2.3C9.7,76.2,9,78.1,8.3,80c-1.5,4.6-2,8.8-2.2,13.5c-0.3,5.9-1.5,11.7-1.7,17.6C4,122.8,4.1,135,6.1,146.6
		c0.9,5.2,2.6,10.2,4.6,15.1c0.9,2.3,2.1,4.2,3.3,6.2c1.9,3.3,3.3,6.9,5.2,10.2c2.5,4.1,6.3,7.3,9.7,10.6c2.9,2.9,5.7,5.7,9.2,7.9
		c4,2.5,8.3,4.7,12.5,7c4.7,2.5,8.9,5.6,14,7.1c8.3,2.4,16.6,3.5,25.2,3.4c8.9,0,17.7,0.5,26.5-1.7c3.5-0.9,6.9-1.5,10.5-1.7
		c3.2-0.2,6.4-1.3,9.6-2c5.4-1.2,11.2-2.3,16.4-3.9c2.4-0.7,4.8-1.8,7-3c2.7-1.5,4-3.8,6.3-5.7c2.4-2,4-4.1,6.1-6.4
		c2.3-2.5,5.1-4.4,7.2-7c8.3-9.9,15.8-20.6,22.3-31.8c2.7-4.7,5-9.4,7.2-14.3c2.9-6.7,4-13.8,5.1-21c0.7-4.9,0.1-10.2,0.2-15.2
		c0.1-5.5-1-11.4-3-16.5c-2-4.9-4.2-9.5-7.2-13.9c-3.7-5.4-7.8-10.9-10.8-16.7c-1.1-2.1-1.7-4-3.2-5.9c-1.2-1.5-2.4-3.2-3.7-4.6
		c-2.5-2.9-4-6.2-6.6-9.1c-1.2-1.4-1.4-3.1-2.6-4.4c-1.3-1.4-2.3-2.8-3.5-4.3c-2.5-3.1-6-5.5-8.5-8.4c-1.8-2.2-3.5-2.6-5.9-3.6
		c-2.6-1.2-4.8-3.4-7.5-4.6c-1.3-0.6-2.1-1.1-3.5-1.3c-1.1-0.2-1.8-0.6-2.8-0.8c-2.9-0.5-5.9-1.6-8.8-1.9c-4.7-0.5-9.9,0-14.6,0
		c-5,0-10.1,0-15.1,0c-3.5,0-7-0.6-10.4-0.1c-2.8,0.4-5.3,2.1-8.2,2.7c-1.6,0.3-3.1,0.9-4.7,1.3c-1.7,0.5-3.1,0.3-4.8,0.4
		c-3.9,0.2-6.9,2.9-10.5,4.2c-1.6,0.6-2.5,0.9-4,1.9C63.4,15.4,62.2,15.8,61.4,16.6C61.4,16.5,61.4,16.6,61.4,16.6z"/>
	
		<radialGradient id="SVGID_1_" cx="-57.3327" cy="-10.7876" r="351.4638" gradientTransform="matrix(1 0 0 -1 0 220)" gradientUnits="userSpaceOnUse">
		<stop  offset="0.2922" style="stop-color:#FFB5D9"/>
		<stop  offset="0.3755" style="stop-color:#DCABDE;stop-opacity:0.8822"/>
		<stop  offset="0.5417" style="stop-color:#9D9AE8;stop-opacity:0.6474"/>
		<stop  offset="0.6933" style="stop-color:#6A8CEF;stop-opacity:0.4333"/>
		<stop  offset="0.825" style="stop-color:#4681F4;stop-opacity:0.2473"/>
		<stop  offset="0.9317" style="stop-color:#307BF8;stop-opacity:9.654993e-02"/>
		<stop  offset="1" style="stop-color:#2879F9;stop-opacity:0"/>
	</radialGradient>
	<path fill="url(#SVGID_1_)" d="M61.4,16.6c-0.8,0.8-1,1.7-1.8,2.4c-0.8,0.7-2.5,1.3-3.4,1.9c-1.1,0.8-1.9,1.8-3,2.7
		c-1.7,1.3-3.7,2.2-5.5,3.5C46,28.3,44.6,30,43,31.2c-2.2,1.7-4.8,2.6-7,4.5c-3.2,2.8-6,5.6-8.8,8.7c-0.9,1-2,1.5-2.9,2.4
		c-1.1,1-1.7,2.4-2.7,3.5c-0.9,1-2.3,1.8-2.9,3.1c-0.2,0.5-0.2,1.1-0.5,1.6c-0.5,1.1-1.5,2-2.2,3c-1.1,1.4-1.2,3.8-1.9,5.5
		c-0.2,0.4-0.3,0.8-0.4,1.2l-0.3,0.9c-0.2,0.8,0.1,1.6-0.1,2.3c-0.1,0.7-0.5,1.4-0.8,2c-0.3,0.7-0.4,1.6-0.8,2.3
		c-0.4,0.8-0.9,1.5-1.2,2.3C9.7,76.2,9,78.1,8.3,80c-1.5,4.6-2,8.8-2.2,13.5c-0.3,5.9-1.5,11.7-1.7,17.6C4,122.8,4.1,135,6.1,146.6
		c0.9,5.2,2.6,10.2,4.6,15.1c0.9,2.3,2.1,4.2,3.3,6.2c1.9,3.3,3.3,6.9,5.2,10.2c2.5,4.1,6.3,7.3,9.7,10.6c2.9,2.9,5.7,5.7,9.2,7.9
		c4,2.5,8.3,4.7,12.5,7c4.7,2.5,8.9,5.6,14,7.1c8.3,2.4,16.6,3.5,25.2,3.4c8.9,0,17.7,0.5,26.5-1.7c3.5-0.9,6.9-1.5,10.5-1.7
		c3.2-0.2,6.4-1.3,9.6-2c5.4-1.2,11.2-2.3,16.4-3.9c2.4-0.7,4.8-1.8,7-3c2.7-1.5,4-3.8,6.3-5.7c2.4-2,4-4.1,6.1-6.4
		c2.3-2.5,5.1-4.4,7.2-7c8.3-9.9,15.8-20.6,22.3-31.8c2.7-4.7,5-9.4,7.2-14.3c2.9-6.7,4-13.8,5.1-21c0.7-4.9,0.1-10.2,0.2-15.2
		c0.1-5.5-1-11.4-3-16.5c-2-4.9-4.2-9.5-7.2-13.9c-3.7-5.4-7.8-10.9-10.8-16.7c-1.1-2.1-1.7-4-3.2-5.9c-1.2-1.5-2.4-3.2-3.7-4.6
		c-2.5-2.9-4-6.2-6.6-9.1c-1.2-1.4-1.4-3.1-2.6-4.4c-1.3-1.4-2.3-2.8-3.5-4.3c-2.5-3.1-6-5.5-8.5-8.4c-1.8-2.2-3.5-2.6-5.9-3.6
		c-2.6-1.2-4.8-3.4-7.5-4.6c-1.3-0.6-2.1-1.1-3.5-1.3c-1.1-0.2-1.8-0.6-2.8-0.8c-2.9-0.5-5.9-1.6-8.8-1.9c-4.7-0.5-9.9,0-14.6,0
		c-5,0-10.1,0-15.1,0c-3.5,0-7-0.6-10.4-0.1c-2.8,0.4-5.3,2.1-8.2,2.7c-1.6,0.3-3.1,0.9-4.7,1.3c-1.7,0.5-3.1,0.3-4.8,0.4
		c-3.9,0.2-6.9,2.9-10.5,4.2c-1.6,0.6-2.5,0.9-4,1.9C63.4,15.4,62.2,15.8,61.4,16.6C61.4,16.5,61.4,16.6,61.4,16.6z"/>
	
		<radialGradient id="SVGID_2_" cx="0.5093" cy="214.4235" r="153.9372" gradientTransform="matrix(1 0 0 -1 0 220)" gradientUnits="userSpaceOnUse">
		<stop  offset="0.2922" style="stop-color:#97C8FD"/>
		<stop  offset="0.5097" style="stop-color:#6AA8FB;stop-opacity:0.6927"/>
		<stop  offset="0.7201" style="stop-color:#468EFA;stop-opacity:0.3955"/>
		<stop  offset="0.8906" style="stop-color:#307FF9;stop-opacity:0.1545"/>
		<stop  offset="1" style="stop-color:#2879F9;stop-opacity:0"/>
	</radialGradient>
	<path fill="url(#SVGID_2_)" d="M61.4,16.6c-0.8,0.8-1,1.7-1.8,2.4c-0.8,0.7-2.5,1.3-3.4,1.9c-1.1,0.8-1.9,1.8-3,2.7
		c-1.7,1.3-3.7,2.2-5.5,3.5C46,28.3,44.6,30,43,31.2c-2.2,1.7-4.8,2.6-7,4.5c-3.2,2.8-6,5.6-8.8,8.7c-0.9,1-2,1.5-2.9,2.4
		c-1.1,1-1.7,2.4-2.7,3.5c-0.9,1-2.3,1.8-2.9,3.1c-0.2,0.5-0.2,1.1-0.5,1.6c-0.5,1.1-1.5,2-2.2,3c-1.1,1.4-1.2,3.8-1.9,5.5
		c-0.2,0.4-0.3,0.8-0.4,1.2l-0.3,0.9c-0.2,0.8,0.1,1.6-0.1,2.3c-0.1,0.7-0.5,1.4-0.8,2c-0.3,0.7-0.4,1.6-0.8,2.3
		c-0.4,0.8-0.9,1.5-1.2,2.3C9.7,76.2,9,78.1,8.3,80c-1.5,4.6-2,8.8-2.2,13.5c-0.3,5.9-1.5,11.7-1.7,17.6C4,122.8,4.1,135,6.1,146.6
		c0.9,5.2,2.6,10.2,4.6,15.1c0.9,2.3,2.1,4.2,3.3,6.2c1.9,3.3,3.3,6.9,5.2,10.2c2.5,4.1,6.3,7.3,9.7,10.6c2.9,2.9,5.7,5.7,9.2,7.9
		c4,2.5,8.3,4.7,12.5,7c4.7,2.5,8.9,5.6,14,7.1c8.3,2.4,16.6,3.5,25.2,3.4c8.9,0,17.7,0.5,26.5-1.7c3.5-0.9,6.9-1.5,10.5-1.7
		c3.2-0.2,6.4-1.3,9.6-2c5.4-1.2,11.2-2.3,16.4-3.9c2.4-0.7,4.8-1.8,7-3c2.7-1.5,4-3.8,6.3-5.7c2.4-2,4-4.1,6.1-6.4
		c2.3-2.5,5.1-4.4,7.2-7c8.3-9.9,15.8-20.6,22.3-31.8c2.7-4.7,5-9.4,7.2-14.3c2.9-6.7,4-13.8,5.1-21c0.7-4.9,0.1-10.2,0.2-15.2
		c0.1-5.5-1-11.4-3-16.5c-2-4.9-4.2-9.5-7.2-13.9c-3.7-5.4-7.8-10.9-10.8-16.7c-1.1-2.1-1.7-4-3.2-5.9c-1.2-1.5-2.4-3.2-3.7-4.6
		c-2.5-2.9-4-6.2-6.6-9.1c-1.2-1.4-1.4-3.1-2.6-4.4c-1.3-1.4-2.3-2.8-3.5-4.3c-2.5-3.1-6-5.5-8.5-8.4c-1.8-2.2-3.5-2.6-5.9-3.6
		c-2.6-1.2-4.8-3.4-7.5-4.6c-1.3-0.6-2.1-1.1-3.5-1.3c-1.1-0.2-1.8-0.6-2.8-0.8c-2.9-0.5-5.9-1.6-8.8-1.9c-4.7-0.5-9.9,0-14.6,0
		c-5,0-10.1,0-15.1,0c-3.5,0-7-0.6-10.4-0.1c-2.8,0.4-5.3,2.1-8.2,2.7c-1.6,0.3-3.1,0.9-4.7,1.3c-1.7,0.5-3.1,0.3-4.8,0.4
		c-3.9,0.2-6.9,2.9-10.5,4.2c-1.6,0.6-2.5,0.9-4,1.9C63.4,15.4,62.2,15.8,61.4,16.6C61.4,16.5,61.4,16.6,61.4,16.6z"/>
	<path fill="none" stroke="#97C8FD" stroke-width="2" stroke-linejoin="round" stroke-miterlimit="10" d="M136.2,34
		c-0.2-0.1-0.4-0.2-0.6-0.3c-0.9-0.4-1.9-0.4-2.8-0.7c-1.2-0.3-2.4-0.4-3.6-0.4c-0.6,0-1.1,0-1.7,0c-1.2,0-2.4-0.8-3.7-1.1
		c-3.2-0.5-7.2-0.4-10.4,0.4c-3.5,0.9-7.1,1.9-10.5,3.1c-3.9,1.4-7.4,3.7-11.3,5.3c-3,1.3-6.1,2.7-9.3,3.4c-1.8,0.4-3.7,0.5-5.5,0.9
		c-2.2,0.5-4.2,1.3-6.3,2.1c-3.1,1.2-6.2,2.6-9.3,3.8c-1.6,0.6-3.3,1.6-4.4,3c-3.5,4.9-7.4,10.2-10,15.6c-1.1,2.3-2.2,4.5-3.4,6.7
		c-1.1,2.1-2.5,4.3-3.4,6.6c-0.9,2.1-0.4,5-0.4,7.2c0,3.5,0.1,7-0.3,10.4c-0.4,2.9-1.3,5.4-2.1,8.2c-0.7,2.4-0.7,5-1.4,7.4
		c-1.5,4.8-3.6,9.5-4.3,14.5c-0.7,4.4,1,7.4,3.4,10.9c2.6,3.8,4.2,8.2,6.8,12c3.1,4.6,5.5,9.7,8.8,14.2c1.5,2,2.8,4.1,4.4,6.1
		c1.6,2.1,3.7,3.3,5.8,4.9c2.9,2.2,6.4,4.7,9.9,5.8c1.7,0.5,3.3,1.1,5,1.5c3.1,0.6,6.2,0.6,9.3,0.6c2.8,0,5.4,0,8.1,0.4
		c1.7,0.3,3.9,0.4,5.6,0c1.9-0.4,3.6-1.6,5.4-2.4c2.6-1.1,5.2-2.3,7.6-3.8s5.1-2.6,7.5-4c2.3-1.4,4.5-2.8,6.8-4.1
		c4.5-2.3,8.9-4.7,13.2-7.3c4.5-2.7,8.1-6.4,12.3-9.6c3.8-3,8.4-4.1,12.6-6.6c1.7-1,3.2-2,5-2.8s2.8-2.1,4-3.6
		c3.5-4.3,6.8-8.8,9.8-13.5c2.2-3.3,3.7-7.4,4.4-11.3c0.8-4.3,0.3-8.9,0.4-13.3c0-1.5,0-2.9-0.8-4.1s-1.8-2.3-2.4-3.7
		c-0.5-1.2-1-2.7-1.2-3.9c-0.1-0.7,0.1-1.3,0-2c-0.1-0.9-0.5-1.6-0.5-2.4c-0.1-1.4-0.2-2.3-0.9-3.6c-0.8-1.3-1.8-2.3-2.4-3.7
		c-1.1-2.5-3.4-4.6-5.5-6.5c-0.6-0.5-1.6-0.8-2-1.4c-0.3-0.4-0.3-0.9-0.5-1.4c-0.5-1-1.3-1.6-1.7-2.7c-0.4-1-0.9-1.6-1.5-2.4
		c-0.6-0.9-0.7-1.9-1-2.9c-1-4-3.8-7.2-5.7-10.9c-1.8-3.7-5-5.6-8.1-8.1c-3.3-2.7-6.5-5.7-10.1-7.9c-0.4-0.3-1-0.4-1.5-0.6
		c-0.4-0.2-0.8-0.5-1.2-0.8c-0.6-0.3-1.3-0.6-2-0.9c-0.5-0.2-0.8-0.2-1.3-0.2C136.7,34.3,136.4,34.2,136.2,34z"/>
</g>
<g id="мелочь">
</g>
<g id="персонажи_ок">
</g>
</svg>
