<?xml version="1.0" encoding="utf-8"?>
<!-- Generator: Adobe Illustrator 24.3.0, SVG Export Plug-In . SVG Version: 6.00 Build 0)  -->
<svg version="1.1" id="Layer_1" xmlns="http://www.w3.org/2000/svg" xmlns:xlink="http://www.w3.org/1999/xlink" x="0px" y="0px"
	 width="219px" height="210.1px" viewBox="0 0 219 210.1" enable-background="new 0 0 219 210.1" xml:space="preserve">
<g id="a">
</g>
<g id="b">
</g>
<g id="c">
</g>
<g id="d">
</g>
<g id="e">
</g>
<g id="f">
</g>
<g id="g">
</g>
<g id="h">
	<path fill="#FF7D3B" d="M85.2,5.8c-1.7,0-2.9,0-4.5,0.5c-2.4,0.8-4.9,0.8-7.3,1.6c-3.8,1.3-7.6,2.9-11.2,4.7
		c-2.5,1.3-4.8,3-7.3,4.4c-3.8,2.1-7.8,4.2-11.5,6.7c-4.8,3.2-9.4,6.9-14,10.5c-5.1,4-10.7,7.8-14.9,12.7
		c-7.2,8.4-8.4,18.8-9.2,29.4c-0.9,11.4-0.9,22.8-0.9,34.3c0,10.6,1.4,21,4.9,31c3.1,8.7,7,17.1,12.8,24.3
		c6.7,8.3,14.1,15.8,21.9,23c2.9,2.7,5.7,6.2,9.1,8.3c2.6,1.6,6.3,2.7,9.2,3.4c4.2,1,8.4,1.9,12.6,3.1s7.6,0.9,11.6,1.1
		c3.8,0.1,7.4,0.8,11.3,0.8c3.7,0,7.5,0,11.2,0h20.6c4.8,0,10.6,0.8,15.3-0.1c5.4-1.1,10.5-3.6,15.5-5.8c6.3-2.7,9.7-9.4,14.4-14.1
		c3.7-3.6,7.2-7.2,10.5-11.2c3.5-4.3,7-8.7,10.7-12.9c1.7-1.9,3.8-3.4,5.6-5.2s3-3.9,4.2-6c0.9-1.6,2.5-2.6,3.4-4.2
		c1-1.8,2.1-3.6,2.6-5.6c0.6-2.2,0.9-4.4,1.3-6.7c0.5-2.7,1.4-5.4,1.3-8.2c-0.1-6.2,0-12.4,0-18.6c0-2.9,0-5.5-0.6-8.4
		c-0.2-1-0.1-2.1-0.3-3.2c-0.3-1.8-1.4-3.3-2-5.1c-0.6-2-1-4.1-1.8-6.1c-0.8-2-1.9-3.8-2.7-5.8c-1.5-4.2-3.1-8.3-5.4-11.9
		c-1.7-2.7-2.8-5.9-4.5-8.6c-1.6-2.6-3.2-5.2-4.7-7.9c-1.5-2.6-3.1-5-4.9-7.5c-1.7-2.5-4.1-5.4-5.1-8.2c-0.9-2.6-3.4-4.2-4.7-6.7
		c-1.7-3.4-3.6-6.9-6.2-9.8c-1.2-1.4-2.9-2.8-4.5-3.8c-1.3-0.8-2.8-1-4.3-1.6c-1.4-0.6-2.5-1.6-3.9-2c-1.8-0.5-3.5-0.5-5.2-0.8
		c-1.6-0.2-3.8-0.7-5.2-1.3c-1.6-0.7-2.8-0.7-4.5-1.1c-0.6-0.1-0.9-0.5-1.5-0.6c-0.7-0.1-1.6,0.2-2.3,0.1c-1.2-0.3-2.4-1.1-3.7-1.4
		c-6-1.4-12.4-0.9-18.7-0.9h-18C94.9,4.3,89,3.5,85.2,5.8L85.2,5.8z"/>
	
		<radialGradient id="SVGID_1_" cx="109.5052" cy="106.9534" r="103.0084" gradientTransform="matrix(1 0 0 -1 0 212)" gradientUnits="userSpaceOnUse">
		<stop  offset="0.19" style="stop-color:#FFB5D9"/>
		<stop  offset="0.23" style="stop-color:#FFBBDC;stop-opacity:0.91"/>
		<stop  offset="0.35" style="stop-color:#FFCDE5;stop-opacity:0.68"/>
		<stop  offset="0.47" style="stop-color:#FFDCED;stop-opacity:0.47"/>
		<stop  offset="0.59" style="stop-color:#FFE8F3;stop-opacity:0.3"/>
		<stop  offset="0.71" style="stop-color:#FFF2F8;stop-opacity:0.17"/>
		<stop  offset="0.81" style="stop-color:#FFF9FC;stop-opacity:8.000000e-02"/>
		<stop  offset="0.91" style="stop-color:#FFFDFE;stop-opacity:2.000000e-02"/>
		<stop  offset="1" style="stop-color:#FFFFFF;stop-opacity:0"/>
	</radialGradient>
	<path fill="url(#SVGID_1_)" d="M85.2,5.8c-1.7,0-2.9,0-4.5,0.5c-2.4,0.8-4.9,0.8-7.3,1.6c-3.8,1.3-7.6,2.9-11.2,4.7
		c-2.5,1.3-4.8,3-7.3,4.4c-3.8,2.1-7.8,4.2-11.5,6.7c-4.8,3.2-9.4,6.9-14,10.5c-5.1,4-10.7,7.8-14.9,12.7
		c-7.2,8.4-8.4,18.8-9.2,29.4c-0.9,11.4-0.9,22.8-0.9,34.3c0,10.6,1.4,21,4.9,31c3.1,8.7,7,17.1,12.8,24.3
		c6.7,8.3,14.1,15.8,21.9,23c2.9,2.7,5.7,6.2,9.1,8.3c2.6,1.6,6.3,2.7,9.2,3.4c4.2,1,8.4,1.9,12.6,3.1s7.6,0.9,11.6,1.1
		c3.8,0.1,7.4,0.8,11.3,0.8c3.7,0,7.5,0,11.2,0h20.6c4.8,0,10.6,0.8,15.3-0.1c5.4-1.1,10.5-3.6,15.5-5.8c6.3-2.7,9.7-9.4,14.4-14.1
		c3.7-3.6,7.2-7.2,10.5-11.2c3.5-4.3,7-8.7,10.7-12.9c1.7-1.9,3.8-3.4,5.6-5.2s3-3.9,4.2-6c0.9-1.6,2.5-2.6,3.4-4.2
		c1-1.8,2.1-3.6,2.6-5.6c0.6-2.2,0.9-4.4,1.3-6.7c0.5-2.7,1.4-5.4,1.3-8.2c-0.1-6.2,0-12.4,0-18.6c0-2.9,0-5.5-0.6-8.4
		c-0.2-1-0.1-2.1-0.3-3.2c-0.3-1.8-1.4-3.3-2-5.1c-0.6-2-1-4.1-1.8-6.1c-0.8-2-1.9-3.8-2.7-5.8c-1.5-4.2-3.1-8.3-5.4-11.9
		c-1.7-2.7-2.8-5.9-4.5-8.6c-1.6-2.6-3.2-5.2-4.7-7.9c-1.5-2.6-3.1-5-4.9-7.5c-1.7-2.5-4.1-5.4-5.1-8.2c-0.9-2.6-3.4-4.2-4.7-6.7
		c-1.7-3.4-3.6-6.9-6.2-9.8c-1.2-1.4-2.9-2.8-4.5-3.8c-1.3-0.8-2.8-1-4.3-1.6c-1.4-0.6-2.5-1.6-3.9-2c-1.8-0.5-3.5-0.5-5.2-0.8
		c-1.6-0.2-3.8-0.7-5.2-1.3c-1.6-0.7-2.8-0.7-4.5-1.1c-0.6-0.1-0.9-0.5-1.5-0.6c-0.7-0.1-1.6,0.2-2.3,0.1c-1.2-0.3-2.4-1.1-3.7-1.4
		c-6-1.4-12.4-0.9-18.7-0.9h-18C94.9,4.3,89,3.5,85.2,5.8L85.2,5.8z"/>
	
		<radialGradient id="SVGID_2_" cx="207.87" cy="7.91" r="158.24" gradientTransform="matrix(1 0 0 -1 0 212)" gradientUnits="userSpaceOnUse">
		<stop  offset="0.19" style="stop-color:#FFB5D9"/>
		<stop  offset="0.29" style="stop-color:#FFB6D9;stop-opacity:0.98"/>
		<stop  offset="0.39" style="stop-color:#FFB9DB;stop-opacity:0.94"/>
		<stop  offset="0.49" style="stop-color:#FFBFDE;stop-opacity:0.85"/>
		<stop  offset="0.59" style="stop-color:#FFC8E2;stop-opacity:0.74"/>
		<stop  offset="0.7" style="stop-color:#FFD2E8;stop-opacity:0.6"/>
		<stop  offset="0.8" style="stop-color:#FFE0EF;stop-opacity:0.42"/>
		<stop  offset="0.91" style="stop-color:#FFEFF6;stop-opacity:0.21"/>
		<stop  offset="1" style="stop-color:#FFFFFF;stop-opacity:0"/>
	</radialGradient>
	<path fill="url(#SVGID_2_)" d="M85.2,5.8c-1.7,0-2.9,0-4.5,0.5c-2.4,0.8-4.9,0.8-7.3,1.6c-3.8,1.3-7.6,2.9-11.2,4.7
		c-2.5,1.3-4.8,3-7.3,4.4c-3.8,2.1-7.8,4.2-11.5,6.7c-4.8,3.2-9.4,6.9-14,10.5c-5.1,4-10.7,7.8-14.9,12.7
		c-7.2,8.4-8.4,18.8-9.2,29.4c-0.9,11.4-0.9,22.8-0.9,34.3c0,10.6,1.4,21,4.9,31c3.1,8.7,7,17.1,12.8,24.3
		c6.7,8.3,14.1,15.8,21.9,23c2.9,2.7,5.7,6.2,9.1,8.3c2.6,1.6,6.3,2.7,9.2,3.4c4.2,1,8.4,1.9,12.6,3.1s7.6,0.9,11.6,1.1
		c3.8,0.1,7.4,0.8,11.3,0.8c3.7,0,7.5,0,11.2,0h20.6c4.8,0,10.6,0.8,15.3-0.1c5.4-1.1,10.5-3.6,15.5-5.8c6.3-2.7,9.7-9.4,14.4-14.1
		c3.7-3.6,7.2-7.2,10.5-11.2c3.5-4.3,7-8.7,10.7-12.9c1.7-1.9,3.8-3.4,5.6-5.2s3-3.9,4.2-6c0.9-1.6,2.5-2.6,3.4-4.2
		c1-1.8,2.1-3.6,2.6-5.6c0.6-2.2,0.9-4.4,1.3-6.7c0.5-2.7,1.4-5.4,1.3-8.2c-0.1-6.2,0-12.4,0-18.6c0-2.9,0-5.5-0.6-8.4
		c-0.2-1-0.1-2.1-0.3-3.2c-0.3-1.8-1.4-3.3-2-5.1c-0.6-2-1-4.1-1.8-6.1c-0.8-2-1.9-3.8-2.7-5.8c-1.5-4.2-3.1-8.3-5.4-11.9
		c-1.7-2.7-2.8-5.9-4.5-8.6c-1.6-2.6-3.2-5.2-4.7-7.9c-1.5-2.6-3.1-5-4.9-7.5c-1.7-2.5-4.1-5.4-5.1-8.2c-0.9-2.6-3.4-4.2-4.7-6.7
		c-1.7-3.4-3.6-6.9-6.2-9.8c-1.2-1.4-2.9-2.8-4.5-3.8c-1.3-0.8-2.8-1-4.3-1.6c-1.4-0.6-2.5-1.6-3.9-2c-1.8-0.5-3.5-0.5-5.2-0.8
		c-1.6-0.2-3.8-0.7-5.2-1.3c-1.6-0.7-2.8-0.7-4.5-1.1c-0.6-0.1-0.9-0.5-1.5-0.6c-0.7-0.1-1.6,0.2-2.3,0.1c-1.2-0.3-2.4-1.1-3.7-1.4
		c-6-1.4-12.4-0.9-18.7-0.9h-18C94.9,4.3,89,3.5,85.2,5.8L85.2,5.8z"/>
</g>
<g id="k">
</g>
<g id="l">
</g>
</svg>
