<?xml version="1.0" encoding="utf-8"?>
<!-- Generator: Adobe Illustrator 24.3.0, SVG Export Plug-In . SVG Version: 6.00 Build 0)  -->
<svg version="1.1" id="Layer_1" xmlns="http://www.w3.org/2000/svg" xmlns:xlink="http://www.w3.org/1999/xlink" x="0px" y="0px"
	 width="219px" height="218.7px" viewBox="0 0 219 218.7" enable-background="new 0 0 219 218.7" xml:space="preserve">
<g id="a">
</g>
<g id="b">
</g>
<g id="c">
</g>
<g id="d">
</g>
<g id="e">
</g>
<g id="f">
</g>
<g id="g">
</g>
<g id="h">
	<path fill="none" d="M147,2.4c0.2,2.7,2.4,4.8,3.4,7.1"/>
	<path fill="#FEFDEF" d="M82.1,7.8c-2.2,0.5-4.6,0.9-6.9,1.1c-2.9,0.3-5.8-0.6-8.7,0.2c-1,0.3-2.3,0.7-3.3,1.1
		c-1.6,0.6-2.7,2.2-4.3,2.9c-1.5,0.6-2.7,1.2-3.8,2.5c-1.2,1.4-2.6,2.1-3.8,3.4c-1.2,1.2-2.6,1.7-3.8,2.8c-1.5,1.3-2.9,2.9-4.3,4.3
		c-2.3,2.2-3.9,4.7-6,7.1c-1.5,1.7-3.2,3.2-4.8,4.8c-1.9,1.9-4.5,3.6-6,5.9c-1.7,2.5-3.9,4.5-5.7,6.9c-1.9,2.6-3.5,5.4-5.3,8
		c-2.5,3.6-4.4,6.8-5.3,11.1c-0.6,2.6-1.2,5.1-1.8,7.7c-0.5,2.8-1.7,5.3-2.2,8.2C5.3,89.2,4.7,92.6,4.4,96c-0.6,6.4-0.7,12.6-0.7,19
		c0,3.3-0.1,6.7,0,10c0,2.4,0.7,4.8,0.8,7.2c0.1,1.5-0.4,2.9-0.3,4.4c0.3,5,2,10.2,3.3,15c1.3,4.9,2.7,9.8,4.3,14.6
		c1.7,5,4.6,9.5,7.5,13.8c2.3,3.4,4.6,6.6,7.3,9.5c3.9,4.1,9.5,7.3,14.3,9.8c8.1,4.1,17,7,25.5,10.1c5.1,1.9,10.4,3.1,15.7,4.1
		c2,0.4,4,0.9,6,1.1c3,0.3,5.9,0,8.9,0.1c4.3,0.1,8.5,0.6,12.8,0.6c5.2,0,10.4,0,15.6,0c4.7,0,9.5,0.4,14.1-0.9
		c4.2-1.2,8.6-3.7,12.6-5.6c3.1-1.5,6.3-2.5,9.3-4.1c3.6-1.9,6.6-4.5,9.9-6.9c6.8-4.9,12.8-11.1,19-16.9c3.1-2.9,6.1-6.2,8.8-9.6
		c1-1.3,1.9-2.8,2.8-4.1c1.2-1.7,2.6-3.1,3.7-4.8c3.6-6,6.2-13,7.6-20c1.1-6,0.6-12.2,0.6-18.2c0-8.1-0.9-16.2-1.8-24.2
		c-1.4-12.5-3.7-25.3-9.1-36.5c-0.8-1.7-1.9-3.1-2.8-4.7c-1.3-2.6-2.5-4.9-4.3-7.2c-2.8-3.6-6.3-6.6-9.3-9.9c-1.6-1.7-3-3-4.8-4.3
		c-1.7-1.2-3-3-4.5-4.5c-1.6-1.5-3-3.2-4.9-4.3c-2-1.1-3.9-2.4-5.5-4.1c-2.9-3-5.8-5.6-9.3-7.7c-1.4-0.9-2.9-1.7-4.3-2.6
		c-1.4-1-2.6-2.4-4.2-3.1c-3-1.4-6.3-1.8-9.4-2.3c-3.9-0.7-7.8-1.4-11.7-1.9c-4.1-0.5-8.5-0.1-12.6,0c-2.4,0-4.4-1.2-6.8-1.2
		c-5.4,0.1-11.1-0.6-16.4,0.5c-1.3,0.3-2.7,0.6-4.1,0.7s-2.3,0.7-3.6,1.1C83.6,7.9,82.9,7.7,82.1,7.8L82.1,7.8z"/>
	
		<radialGradient id="SVGID_1_" cx="189.79" cy="-37.55" r="204.16" gradientTransform="matrix(1 0 0 -1 0 220)" gradientUnits="userSpaceOnUse">
		<stop  offset="0.19" style="stop-color:#FFB5D9"/>
		<stop  offset="0.29" style="stop-color:#FFB6D9;stop-opacity:0.98"/>
		<stop  offset="0.39" style="stop-color:#FFB9DB;stop-opacity:0.94"/>
		<stop  offset="0.49" style="stop-color:#FFBFDE;stop-opacity:0.85"/>
		<stop  offset="0.59" style="stop-color:#FFC8E2;stop-opacity:0.74"/>
		<stop  offset="0.7" style="stop-color:#FFD2E8;stop-opacity:0.6"/>
		<stop  offset="0.8" style="stop-color:#FFE0EF;stop-opacity:0.42"/>
		<stop  offset="0.91" style="stop-color:#FFEFF6;stop-opacity:0.21"/>
		<stop  offset="1" style="stop-color:#FFFFFF;stop-opacity:0"/>
	</radialGradient>
	<path fill="url(#SVGID_1_)" d="M82.1,7.8c-2.2,0.5-4.6,0.9-6.9,1.1c-2.9,0.3-5.8-0.6-8.7,0.2c-1,0.3-2.3,0.7-3.3,1.1
		c-1.6,0.6-2.7,2.2-4.3,2.9c-1.5,0.6-2.7,1.2-3.8,2.5c-1.2,1.4-2.6,2.1-3.8,3.4c-1.2,1.2-2.6,1.7-3.8,2.8c-1.5,1.3-2.9,2.9-4.3,4.3
		c-2.3,2.2-3.9,4.7-6,7.1c-1.5,1.7-3.2,3.2-4.8,4.8c-1.9,1.9-4.5,3.6-6,5.9c-1.7,2.5-3.9,4.5-5.7,6.9c-1.9,2.6-3.5,5.4-5.3,8
		c-2.5,3.6-4.4,6.8-5.3,11.1c-0.6,2.6-1.2,5.1-1.8,7.7c-0.5,2.8-1.7,5.3-2.2,8.2C5.3,89.2,4.7,92.6,4.4,96c-0.6,6.4-0.7,12.6-0.7,19
		c0,3.3-0.1,6.7,0,10c0,2.4,0.7,4.8,0.8,7.2c0.1,1.5-0.4,2.9-0.3,4.4c0.3,5,2,10.2,3.3,15c1.3,4.9,2.7,9.8,4.3,14.6
		c1.7,5,4.6,9.5,7.5,13.8c2.3,3.4,4.6,6.6,7.3,9.5c3.9,4.1,9.5,7.3,14.3,9.8c8.1,4.1,17,7,25.5,10.1c5.1,1.9,10.4,3.1,15.7,4.1
		c2,0.4,4,0.9,6,1.1c3,0.3,5.9,0,8.9,0.1c4.3,0.1,8.5,0.6,12.8,0.6c5.2,0,10.4,0,15.6,0c4.7,0,9.5,0.4,14.1-0.9
		c4.2-1.2,8.6-3.7,12.6-5.6c3.1-1.5,6.3-2.5,9.3-4.1c3.6-1.9,6.6-4.5,9.9-6.9c6.8-4.9,12.8-11.1,19-16.9c3.1-2.9,6.1-6.2,8.8-9.6
		c1-1.3,1.9-2.8,2.8-4.1c1.2-1.7,2.6-3.1,3.7-4.8c3.6-6,6.2-13,7.6-20c1.1-6,0.6-12.2,0.6-18.2c0-8.1-0.9-16.2-1.8-24.2
		c-1.4-12.5-3.7-25.3-9.1-36.5c-0.8-1.7-1.9-3.1-2.8-4.7c-1.3-2.6-2.5-4.9-4.3-7.2c-2.8-3.6-6.3-6.6-9.3-9.9c-1.6-1.7-3-3-4.8-4.3
		c-1.7-1.2-3-3-4.5-4.5c-1.6-1.5-3-3.2-4.9-4.3c-2-1.1-3.9-2.4-5.5-4.1c-2.9-3-5.8-5.6-9.3-7.7c-1.4-0.9-2.9-1.7-4.3-2.6
		c-1.4-1-2.6-2.4-4.2-3.1c-3-1.4-6.3-1.8-9.4-2.3c-3.9-0.7-7.8-1.4-11.7-1.9c-4.1-0.5-8.5-0.1-12.6,0c-2.4,0-4.4-1.2-6.8-1.2
		c-5.4,0.1-11.1-0.6-16.4,0.5c-1.3,0.3-2.7,0.6-4.1,0.7s-2.3,0.7-3.6,1.1C83.6,7.9,82.9,7.7,82.1,7.8L82.1,7.8z"/>
	<path fill="none" stroke="#FF7D3B" stroke-width="5" stroke-linejoin="round" d="M82.7,44c-1.2,0-2.3,0-3.4,0.3
		c-1.3,0.4-2.2,1-3.4,1.8c-1.3,0.9-2.6,1.9-4,2.8c-1.7,1.2-3.3,2-5.2,2.9c-4.7,2.1-9.6,5.3-12.9,9.3c-0.5,0.6-0.9,1.5-1.4,2
		c-0.4,0.4-0.9,0.7-1.3,1.2c-0.7,0.9-1.2,1.9-1.7,2.9c-0.7,1.3-1.8,2.3-2.4,3.7c-0.5,1.1-1,2.2-1.5,3.3c-0.5,1.1-0.8,2.3-1.3,3.4
		c-0.8,1.7-1.7,3.3-2.4,5s-1.1,2.8-1.1,4.5c0,1.3,0,2.6,0,3.9c0,1.6,0,3.1,0.3,4.6c0.4,1.8,0.1,4,0.1,5.8c0,4.5,0,8.9,0.4,13.3
		c0.1,1.1,0.5,1.9,0.5,3c0,1,0,2,0,3s0,2.1,0,3.1c0,1.3-0.5,2.5-0.5,3.8c0,4.6-0.7,9.2-0.4,13.8c0.1,1.5,0.8,2.6,1.2,3.9
		c0.2,0.8,0.1,1.4,0.4,2.2c0.3,0.7,0.5,1.4,0.8,2.1c1.1,2.6,3.2,4.7,4.5,7.1c0.7,1.3,1.5,2.1,2.6,3c1.1,1,1.9,2.2,3,3.3
		c2.1,2,4.7,3.3,7.3,4.4c0.6,0.3,1.1,0.4,1.7,0.7s1.1,0.9,1.7,1.2c1.5,0.8,3.2,1.3,4.8,1.9c1.4,0.6,2.7,1.5,4.1,2.2
		c1.6,0.8,3.4,1.2,5,1.9c2.2,0.9,4.5,1.5,6.7,2.2c1.3,0.4,2.5,1,3.7,1.5c1.9,0.7,4,0.7,6,0.8c4.2,0,8.3,0,12.5,0c2,0,4-0.4,6.1-0.4
		s4.2,0.1,6.4-0.3c2.3-0.4,4.6-0.9,6.9-1.5c1-0.2,2-0.5,3-0.7c1.3-0.4,2.3-1.2,3.6-1.6c1.5-0.6,3.1-0.7,4.6-1.1
		c0.8-0.3,1.3-0.6,2.2-0.7s2.1-0.2,3-0.5c1.5-0.6,2.5-1.9,3.9-2.5c1.9-0.9,3.2-2.4,4.7-4c1.6-1.8,2.6-3.9,3.8-6
		c1.1-2,2.7-3.7,4.3-5.3c1.3-1.3,1.7-3.2,2.8-4.7c1.7-2.3,3.3-4.3,4.5-7c2.1-4.7,5-9.1,7.3-13.6c0.9-1.8,1.9-3.7,1.9-5.7
		c0.1-2.4,0.4-4.8,0.4-7.2c0-2.7,0-5.5,0-8.2c0-2.3-0.8-4.7-1.2-6.9c-0.7-3.7-0.4-7.5-2.3-10.9c-1.1-2-1.4-4.3-2.2-6.4
		c-0.8-2.2-2.4-4-4-5.7c-3-3.3-5.7-6.8-7.7-10.8c-0.8-1.6-1.7-3.1-2.6-4.6c-0.5-0.9-0.8-1.8-1.3-2.6s-1.2-1.5-1.8-2.3
		c-1-1.5-1.9-2.7-3.4-3.7s-3.3-1.7-4.9-2.6c-1.7-1-3.6-2.1-5.4-2.9c-0.7-0.3-1.6-0.4-2.3-0.6c-0.8-0.3-1.4-0.8-2.1-1.2
		c-0.9-0.5-1.8-1-2.7-1.3s-1.9-0.4-2.8-0.7c-1.4-0.5-2.5-1.4-3.8-2.2c-0.8-0.5-2-1.2-3-1.3c-0.6-0.1-1.1,0-1.8-0.2
		c-1.2-0.3-1.9-0.7-3.1-0.7c-0.9,0-1.8,0-2.7,0c-1.1,0-2-0.4-3-0.5c-1.6-0.1-3.2,0-4.7,0h-6.7c-2.4,0-5.1-0.4-7.3,0.4
		c-1.1,0.4-2,0.5-3.2,0.5c-0.6,0-1.2,0-1.7,0c-0.6,0-0.9,0.2-1.4,0.3C86,42.2,84.3,43.2,82.7,44L82.7,44z"/>
</g>
<g id="j">
</g>
<g id="k">
</g>
</svg>
