<?xml version="1.0" encoding="utf-8"?>
<!-- Generator: Adobe Illustrator 24.3.0, SVG Export Plug-In . SVG Version: 6.00 Build 0)  -->
<svg version="1.1" id="Layer_1" xmlns="http://www.w3.org/2000/svg" xmlns:xlink="http://www.w3.org/1999/xlink" x="0px" y="0px"
	 width="232px" height="220.6px" viewBox="0 0 232 220.6" enable-background="new 0 0 232 220.6" xml:space="preserve">
<g id="босх_снежки_кружки">
</g>
<g id="босх_челики">
</g>
<g id="рефы">
</g>
<g id="эскиз">
</g>
<g id="низ">
</g>
<g id="пятна">
</g>
<g id="снежки">
</g>
<g id="снежки_шарики">
	<path fill="#FF7D3B" d="M70.4,18.3L70.4,18.3c-2.8,0.5-6,1-8.5,2.2c-6.1,3-10.4,8.8-16.2,12.2c-4.1,2.4-7.3,5.7-11.2,8.3
		c-1.9,1.2-3.4,2.9-5.3,4.1c-2.4,1.4-3.5,2.2-5.2,4.5c-1.9,2.5-3.1,5.3-4.9,7.8c-1.5,2.1-2.4,4.6-3.4,7c-0.3,0.7-0.9,1.4-1.2,2.2
		c-0.3,0.9,0,1.9-0.1,2.8c-0.1,1.4-0.5,2.8-0.8,4.2c-0.5,3.3-1.7,6.5-1.9,9.9c-0.4,8.3,0,16.7,0,25c0,3.5-0.4,7.1,0.6,10.5
		c0.9,3.1,2.1,5.9,2.8,9.1c1.3,5.5,2.3,10.9,4.4,16.1c1,2.5,1.7,5.1,2.6,7.6c1,2.8,2.6,5.5,3.9,8.1c2.9,5.9,6.2,11,10.2,16.2
		c1.6,2.1,3.2,4.2,5,6.2c2,2.2,4.4,4.1,6.4,6.2c3.4,3.5,7.3,6.7,11.8,8.8c3.7,1.8,7,4.5,10.7,6.3c1.6,0.8,3.5,1.1,5.2,1.6
		c3,0.8,6.1,2.7,9.3,2.8c3.1,0,6,0.2,9.1,0.6c5,0.7,9.8,0.6,14.8,0.6c5.2,0,10.5,0.2,15.8,0c9.4-0.5,19.6-1.9,28.6-4.9
		c6.1-2,12.6-3.8,17.9-7.4c6.9-4.6,13.8-9.4,20-14.9c5.5-5,9.5-11.1,14.4-16.7c5.4-6.1,9.1-13,12.2-20.5c2.6-6.2,3.4-12.8,4.2-19.4
		c1.1-8.9-0.1-17.1-2.1-25.7c-0.6-2.5-1.1-5.1-1.6-7.6c-1.8-8.6-3.8-17.1-8.7-24.6c-2-3.1-3.5-6.2-4.6-9.7
		c-1.6-4.7-3.6-9.1-6.3-13.4c-0.8-1.3-1.2-2.7-2.1-3.9c-0.8-1.1-1.7-2.1-2.4-3.2c-0.7-1.1-1.4-2.3-2.3-3.2c-0.9-1-2.1-1.6-3.1-2.4
		c-0.6-0.5-0.8-1-1.4-1.6c-0.7-0.8-1.8-1-2.5-1.8c-1-1-1.2-1.8-2.5-2.6c-2.2-1.4-3.7-3.4-5.8-5c-1.9-1.5-3.3-3.6-5.3-5.2
		c-0.9-0.7-1.9-1.5-2.8-2.1c-1.5-0.8-3.1-0.4-4.7-0.8c-1.4-0.4-2.6-1.5-4-1.9c-0.4-0.1-0.9,0.2-1.3,0.1c-0.9-0.2-1.5-0.6-2.5-0.7
		c-2.7-0.3-5.7,0-8.4,0c-11.1,0-22.5-0.6-33.4,1.8c-3.3,0.7-6.5,1.6-9.7,2.3c-2.5,0.5-5,0.5-7.6,0.5c-5.2,0-10.5,0.2-15.6,1.4
		C77.1,16.9,73.8,17.7,70.4,18.3z"/>
	
		<radialGradient id="SVGID_1_" cx="-21.3761" cy="58.0396" r="209.8142" gradientTransform="matrix(1 0 0 -1 0 222)" gradientUnits="userSpaceOnUse">
		<stop  offset="0" style="stop-color:#2879F9"/>
		<stop  offset="0.1145" style="stop-color:#2D79F5;stop-opacity:0.8844"/>
		<stop  offset="0.2495" style="stop-color:#3B79E8;stop-opacity:0.7481"/>
		<stop  offset="0.395" style="stop-color:#537AD3;stop-opacity:0.6013"/>
		<stop  offset="0.5477" style="stop-color:#747AB6;stop-opacity:0.4471"/>
		<stop  offset="0.7062" style="stop-color:#9F7B90;stop-opacity:0.2871"/>
		<stop  offset="0.867" style="stop-color:#D27C63;stop-opacity:0.1248"/>
		<stop  offset="0.9907" style="stop-color:#FF7D3B;stop-opacity:0"/>
	</radialGradient>
	<path fill="url(#SVGID_1_)" d="M70.4,18.3L70.4,18.3c-2.8,0.5-6,1-8.5,2.2c-6.1,3-10.4,8.8-16.2,12.2c-4.1,2.4-7.3,5.7-11.2,8.3
		c-1.9,1.2-3.4,2.9-5.3,4.1c-2.4,1.4-3.5,2.2-5.2,4.5c-1.9,2.5-3.1,5.3-4.9,7.8c-1.5,2.1-2.4,4.6-3.4,7c-0.3,0.7-0.9,1.4-1.2,2.2
		c-0.3,0.9,0,1.9-0.1,2.8c-0.1,1.4-0.5,2.8-0.8,4.2c-0.5,3.3-1.7,6.5-1.9,9.9c-0.4,8.3,0,16.7,0,25c0,3.5-0.4,7.1,0.6,10.5
		c0.9,3.1,2.1,5.9,2.8,9.1c1.3,5.5,2.3,10.9,4.4,16.1c1,2.5,1.7,5.1,2.6,7.6c1,2.8,2.6,5.5,3.9,8.1c2.9,5.9,6.2,11,10.2,16.2
		c1.6,2.1,3.2,4.2,5,6.2c2,2.2,4.4,4.1,6.4,6.2c3.4,3.5,7.3,6.7,11.8,8.8c3.7,1.8,7,4.5,10.7,6.3c1.6,0.8,3.5,1.1,5.2,1.6
		c3,0.8,6.1,2.7,9.3,2.8c3.1,0,6,0.2,9.1,0.6c5,0.7,9.8,0.6,14.8,0.6c5.2,0,10.5,0.2,15.8,0c9.4-0.5,19.6-1.9,28.6-4.9
		c6.1-2,12.6-3.8,17.9-7.4c6.9-4.6,13.8-9.4,20-14.9c5.5-5,9.5-11.1,14.4-16.7c5.4-6.1,9.1-13,12.2-20.5c2.6-6.2,3.4-12.8,4.2-19.4
		c1.1-8.9-0.1-17.1-2.1-25.7c-0.6-2.5-1.1-5.1-1.6-7.6c-1.8-8.6-3.8-17.1-8.7-24.6c-2-3.1-3.5-6.2-4.6-9.7
		c-1.6-4.7-3.6-9.1-6.3-13.4c-0.8-1.3-1.2-2.7-2.1-3.9c-0.8-1.1-1.7-2.1-2.4-3.2c-0.7-1.1-1.4-2.3-2.3-3.2c-0.9-1-2.1-1.6-3.1-2.4
		c-0.6-0.5-0.8-1-1.4-1.6c-0.7-0.8-1.8-1-2.5-1.8c-1-1-1.2-1.8-2.5-2.6c-2.2-1.4-3.7-3.4-5.8-5c-1.9-1.5-3.3-3.6-5.3-5.2
		c-0.9-0.7-1.9-1.5-2.8-2.1c-1.5-0.8-3.1-0.4-4.7-0.8c-1.4-0.4-2.6-1.5-4-1.9c-0.4-0.1-0.9,0.2-1.3,0.1c-0.9-0.2-1.5-0.6-2.5-0.7
		c-2.7-0.3-5.7,0-8.4,0c-11.1,0-22.5-0.6-33.4,1.8c-3.3,0.7-6.5,1.6-9.7,2.3c-2.5,0.5-5,0.5-7.6,0.5c-5.2,0-10.5,0.2-15.6,1.4
		C77.1,16.9,73.8,17.7,70.4,18.3z"/>
	
		<radialGradient id="SVGID_2_" cx="261.2153" cy="52.6135" r="132.6623" gradientTransform="matrix(1 0 0 -1 0 222)" gradientUnits="userSpaceOnUse">
		<stop  offset="0" style="stop-color:#2879F9"/>
		<stop  offset="0.1152" style="stop-color:#2D79F5;stop-opacity:0.8844"/>
		<stop  offset="0.2511" style="stop-color:#3B79E8;stop-opacity:0.7481"/>
		<stop  offset="0.3974" style="stop-color:#537AD3;stop-opacity:0.6013"/>
		<stop  offset="0.5511" style="stop-color:#747AB6;stop-opacity:0.4471"/>
		<stop  offset="0.7106" style="stop-color:#9F7B90;stop-opacity:0.2871"/>
		<stop  offset="0.8725" style="stop-color:#D27C63;stop-opacity:0.1248"/>
		<stop  offset="0.9969" style="stop-color:#FF7D3B;stop-opacity:0"/>
	</radialGradient>
	<path fill="url(#SVGID_2_)" d="M70.4,18.3L70.4,18.3c-2.8,0.5-6,1-8.5,2.2c-6.1,3-10.4,8.8-16.2,12.2c-4.1,2.4-7.3,5.7-11.2,8.3
		c-1.9,1.2-3.4,2.9-5.3,4.1c-2.4,1.4-3.5,2.2-5.2,4.5c-1.9,2.5-3.1,5.3-4.9,7.8c-1.5,2.1-2.4,4.6-3.4,7c-0.3,0.7-0.9,1.4-1.2,2.2
		c-0.3,0.9,0,1.9-0.1,2.8c-0.1,1.4-0.5,2.8-0.8,4.2c-0.5,3.3-1.7,6.5-1.9,9.9c-0.4,8.3,0,16.7,0,25c0,3.5-0.4,7.1,0.6,10.5
		c0.9,3.1,2.1,5.9,2.8,9.1c1.3,5.5,2.3,10.9,4.4,16.1c1,2.5,1.7,5.1,2.6,7.6c1,2.8,2.6,5.5,3.9,8.1c2.9,5.9,6.2,11,10.2,16.2
		c1.6,2.1,3.2,4.2,5,6.2c2,2.2,4.4,4.1,6.4,6.2c3.4,3.5,7.3,6.7,11.8,8.8c3.7,1.8,7,4.5,10.7,6.3c1.6,0.8,3.5,1.1,5.2,1.6
		c3,0.8,6.1,2.7,9.3,2.8c3.1,0,6,0.2,9.1,0.6c5,0.7,9.8,0.6,14.8,0.6c5.2,0,10.5,0.2,15.8,0c9.4-0.5,19.6-1.9,28.6-4.9
		c6.1-2,12.6-3.8,17.9-7.4c6.9-4.6,13.8-9.4,20-14.9c5.5-5,9.5-11.1,14.4-16.7c5.4-6.1,9.1-13,12.2-20.5c2.6-6.2,3.4-12.8,4.2-19.4
		c1.1-8.9-0.1-17.1-2.1-25.7c-0.6-2.5-1.1-5.1-1.6-7.6c-1.8-8.6-3.8-17.1-8.7-24.6c-2-3.1-3.5-6.2-4.6-9.7
		c-1.6-4.7-3.6-9.1-6.3-13.4c-0.8-1.3-1.2-2.7-2.1-3.9c-0.8-1.1-1.7-2.1-2.4-3.2c-0.7-1.1-1.4-2.3-2.3-3.2c-0.9-1-2.1-1.6-3.1-2.4
		c-0.6-0.5-0.8-1-1.4-1.6c-0.7-0.8-1.8-1-2.5-1.8c-1-1-1.2-1.8-2.5-2.6c-2.2-1.4-3.7-3.4-5.8-5c-1.9-1.5-3.3-3.6-5.3-5.2
		c-0.9-0.7-1.9-1.5-2.8-2.1c-1.5-0.8-3.1-0.4-4.7-0.8c-1.4-0.4-2.6-1.5-4-1.9c-0.4-0.1-0.9,0.2-1.3,0.1c-0.9-0.2-1.5-0.6-2.5-0.7
		c-2.7-0.3-5.7,0-8.4,0c-11.1,0-22.5-0.6-33.4,1.8c-3.3,0.7-6.5,1.6-9.7,2.3c-2.5,0.5-5,0.5-7.6,0.5c-5.2,0-10.5,0.2-15.6,1.4
		C77.1,16.9,73.8,17.7,70.4,18.3z"/>
	<path fill="none" stroke="#FFB5D9" stroke-width="13" stroke-linecap="round" stroke-linejoin="round" stroke-miterlimit="10" d="
		M70.4,18.3L70.4,18.3c-2.8,0.5-6,1-8.5,2.2c-6.1,3-10.4,8.8-16.2,12.2c-4.1,2.4-7.3,5.7-11.2,8.3c-1.9,1.2-3.4,2.9-5.3,4.1
		c-2.4,1.4-3.5,2.2-5.2,4.5c-1.9,2.5-3.1,5.3-4.9,7.8c-1.5,2.1-2.4,4.6-3.4,7c-0.3,0.7-0.9,1.4-1.2,2.2c-0.3,0.9,0,1.9-0.1,2.8
		c-0.1,1.4-0.5,2.8-0.8,4.2c-0.5,3.3-1.7,6.5-1.9,9.9c-0.4,8.3,0,16.7,0,25c0,3.5-0.4,7.1,0.6,10.5c0.9,3.1,2.1,5.9,2.8,9.1
		c1.3,5.5,2.3,10.9,4.4,16.1c1,2.5,1.7,5.1,2.6,7.6c1,2.8,2.6,5.5,3.9,8.1c2.9,5.9,6.2,11,10.2,16.2c1.6,2.1,3.2,4.2,5,6.2
		c2,2.2,4.4,4.1,6.4,6.2c3.4,3.5,7.3,6.7,11.8,8.8c3.7,1.8,7,4.5,10.7,6.3c1.6,0.8,3.5,1.1,5.2,1.6c3,0.8,6.1,2.7,9.3,2.8
		c3.1,0,6,0.2,9.1,0.6c5,0.7,9.8,0.6,14.8,0.6c5.2,0,10.5,0.2,15.8,0c9.4-0.5,19.6-1.9,28.6-4.9c6.1-2,12.6-3.8,17.9-7.4
		c6.9-4.6,13.8-9.4,20-14.9c5.5-5,9.5-11.1,14.4-16.7c5.4-6.1,9.1-13,12.2-20.5c2.6-6.2,3.4-12.8,4.2-19.4
		c1.1-8.9-0.1-17.1-2.1-25.7c-0.6-2.5-1.1-5.1-1.6-7.6c-1.8-8.6-3.8-17.1-8.7-24.6c-2-3.1-3.5-6.2-4.6-9.7
		c-1.6-4.7-3.6-9.1-6.3-13.4c-0.8-1.3-1.2-2.7-2.1-3.9c-0.8-1.1-1.7-2.1-2.4-3.2c-0.7-1.1-1.4-2.3-2.3-3.2c-0.9-1-2.1-1.6-3.1-2.4
		c-0.6-0.5-0.8-1-1.4-1.6c-0.7-0.8-1.8-1-2.5-1.8c-1-1-1.2-1.8-2.5-2.6c-2.2-1.4-3.7-3.4-5.8-5c-1.9-1.5-3.3-3.6-5.3-5.2
		c-0.9-0.7-1.9-1.5-2.8-2.1c-1.5-0.8-3.1-0.4-4.7-0.8c-1.4-0.4-2.6-1.5-4-1.9c-0.4-0.1-0.9,0.2-1.3,0.1c-0.9-0.2-1.5-0.6-2.5-0.7
		c-2.7-0.3-5.7,0-8.4,0c-11.1,0-22.5-0.6-33.4,1.8c-3.3,0.7-6.5,1.6-9.7,2.3c-2.5,0.5-5,0.5-7.6,0.5c-5.2,0-10.5,0.2-15.6,1.4
		C77.1,16.9,73.8,17.7,70.4,18.3z"/>
</g>
<g id="мелочь">
</g>
<g id="персонажи_ок">
</g>
</svg>
