<?xml version="1.0" encoding="utf-8"?>
<!-- Generator: Adobe Illustrator 24.3.0, SVG Export Plug-In . SVG Version: 6.00 Build 0)  -->
<svg version="1.1" id="Layer_1" xmlns="http://www.w3.org/2000/svg" xmlns:xlink="http://www.w3.org/1999/xlink" x="0px" y="0px"
	 width="219px" height="221.6px" viewBox="0 0 219 221.6" enable-background="new 0 0 219 221.6" xml:space="preserve">
<g id="a">
</g>
<g id="b">
</g>
<g id="c">
</g>
<g id="d">
</g>
<g id="e">
</g>
<g id="f">
</g>
<g id="g">
</g>
<g id="h">
	<path fill="#FEFDEF" d="M42.1,29.4c-1.2,1-2.6,1.6-3.8,2.7c-2.9,2.6-5.1,5.5-7.4,8.6c-0.8,1.1-2,1.9-2.6,3c-0.6,1-1,2.2-1.4,3.3
		c-1.1,3.5-3.8,6.6-5.5,9.9c-3.5,6.5-6.3,13.3-8.7,20.2c-8.1,23.3-12,50.1-4.5,73.9c6.5,20.9,19.6,38.2,37.9,51.7
		c6.9,5.1,14.7,8.6,23,11.2c11.7,3.6,23.8,3.4,36,3.1c8.6-0.2,17.3-2.5,25.3-5.2c10.6-3.6,22.1-7.6,31.8-13.3
		c16.1-9.4,34.1-21,41.3-38.1c1.7-4.1,2.6-8.4,4.3-12.4c1-2.3,2.5-4.8,3.2-7.2c2.3-6.9,3.1-14.7,3-21.8c-0.1-6.4,1.1-13.9-0.1-20.3
		c-1.3-7.4-5.7-14.3-8.2-21.4c-2.2-6.3-5.9-11.4-8.9-17.4c-2-4-4.1-7.9-6.9-11.5c-3.1-4-7.7-7.1-11.2-10.8c-1.8-1.8-3-3.6-5.1-5.1
		c-1.7-1.2-3.6-2.1-5.2-3.3c-4-2.9-8-5.9-12.1-8.7c-3-2-6.2-3.9-9.4-5.8c-2-1.2-3.7-2.7-5.6-4.2c-4.7-3.6-11.5-4-17.2-4.9
		c-3.2-0.5-6.4-1.3-9.6-1.2c-2.1,0-4.2-0.1-6.2,0c-2,0.1-4,0.7-6,0.9c-1,0.1-1.7,0.2-2.7,0.4c-0.7,0.2-1.5-0.1-2.2,0.1
		c-1.5,0.4-3.1,0.7-4.6,1c-1.6,0.4-3.1,0.2-4.7,0.8c-2,0.7-4,1.1-6,1.8c-2,0.6-4.4,1.2-6.2,2.2c-2.3,1.3-4.7,2.2-7.2,3
		c-3,1-5.7,2.7-8.6,3.8c-1.5,0.6-2.9,1.4-4.1,2.3c-2.8,2.1-5.7,4.5-9,5.9c-1.5,0.7-3.1,1-4.2,2.2C42.6,29.1,42.4,29.3,42.1,29.4
		L42.1,29.4z"/>
	
		<radialGradient id="SVGID_1_" cx="30.2" cy="211.24" r="101.43" gradientTransform="matrix(1 0 0 -1 0 224)" gradientUnits="userSpaceOnUse">
		<stop  offset="0.2" style="stop-color:#FF7D3B"/>
		<stop  offset="1" style="stop-color:#FFFFFF;stop-opacity:0"/>
	</radialGradient>
	<path fill="url(#SVGID_1_)" d="M42.1,29.4c-1.2,1-2.6,1.6-3.8,2.7c-2.9,2.6-5.1,5.5-7.4,8.6c-0.8,1.1-2,1.9-2.6,3
		c-0.6,1-1,2.2-1.4,3.3c-1.1,3.5-3.8,6.6-5.5,9.9c-3.5,6.5-6.3,13.3-8.7,20.2c-8.1,23.3-12,50.1-4.5,73.9
		c6.5,20.9,19.6,38.2,37.9,51.7c6.9,5.1,14.7,8.6,23,11.2c11.7,3.6,23.8,3.4,36,3.1c8.6-0.2,17.3-2.5,25.3-5.2
		c10.6-3.6,22.1-7.6,31.8-13.3c16.1-9.4,34.1-21,41.3-38.1c1.7-4.1,2.6-8.4,4.3-12.4c1-2.3,2.5-4.8,3.2-7.2c2.3-6.9,3.1-14.7,3-21.8
		c-0.1-6.4,1.1-13.9-0.1-20.3c-1.3-7.4-5.7-14.3-8.2-21.4c-2.2-6.3-5.9-11.4-8.9-17.4c-2-4-4.1-7.9-6.9-11.5
		c-3.1-4-7.7-7.1-11.2-10.8c-1.8-1.8-3-3.6-5.1-5.1c-1.7-1.2-3.6-2.1-5.2-3.3c-4-2.9-8-5.9-12.1-8.7c-3-2-6.2-3.9-9.4-5.8
		c-2-1.2-3.7-2.7-5.6-4.2c-4.7-3.6-11.5-4-17.2-4.9c-3.2-0.5-6.4-1.3-9.6-1.2c-2.1,0-4.2-0.1-6.2,0c-2,0.1-4,0.7-6,0.9
		c-1,0.1-1.7,0.2-2.7,0.4c-0.7,0.2-1.5-0.1-2.2,0.1c-1.5,0.4-3.1,0.7-4.6,1c-1.6,0.4-3.1,0.2-4.7,0.8c-2,0.7-4,1.1-6,1.8
		c-2,0.6-4.4,1.2-6.2,2.2c-2.3,1.3-4.7,2.2-7.2,3c-3,1-5.7,2.7-8.6,3.8c-1.5,0.6-2.9,1.4-4.1,2.3c-2.8,2.1-5.7,4.5-9,5.9
		c-1.5,0.7-3.1,1-4.2,2.2C42.6,29.1,42.4,29.3,42.1,29.4L42.1,29.4z"/>
	
		<radialGradient id="SVGID_2_" cx="105.32" cy="105.18" r="73.97" gradientTransform="matrix(1 0 0 -1 0 224)" gradientUnits="userSpaceOnUse">
		<stop  offset="0" style="stop-color:#2879F9"/>
		<stop  offset="0.11" style="stop-color:#2C7BF9;stop-opacity:0.98"/>
		<stop  offset="0.23" style="stop-color:#3883F9;stop-opacity:0.92"/>
		<stop  offset="0.37" style="stop-color:#4D90FA;stop-opacity:0.83"/>
		<stop  offset="0.51" style="stop-color:#69A2FA;stop-opacity:0.69"/>
		<stop  offset="0.65" style="stop-color:#8EB9FB;stop-opacity:0.52"/>
		<stop  offset="0.8" style="stop-color:#BBD5FD;stop-opacity:0.31"/>
		<stop  offset="0.96" style="stop-color:#F0F5FE;stop-opacity:7.000000e-02"/>
		<stop  offset="1" style="stop-color:#FFFFFF;stop-opacity:0"/>
	</radialGradient>
	<path fill="url(#SVGID_2_)" d="M42.1,29.4c-1.2,1-2.6,1.6-3.8,2.7c-2.9,2.6-5.1,5.5-7.4,8.6c-0.8,1.1-2,1.9-2.6,3
		c-0.6,1-1,2.2-1.4,3.3c-1.1,3.5-3.8,6.6-5.5,9.9c-3.5,6.5-6.3,13.3-8.7,20.2c-8.1,23.3-12,50.1-4.5,73.9
		c6.5,20.9,19.6,38.2,37.9,51.7c6.9,5.1,14.7,8.6,23,11.2c11.7,3.6,23.8,3.4,36,3.1c8.6-0.2,17.3-2.5,25.3-5.2
		c10.6-3.6,22.1-7.6,31.8-13.3c16.1-9.4,34.1-21,41.3-38.1c1.7-4.1,2.6-8.4,4.3-12.4c1-2.3,2.5-4.8,3.2-7.2c2.3-6.9,3.1-14.7,3-21.8
		c-0.1-6.4,1.1-13.9-0.1-20.3c-1.3-7.4-5.7-14.3-8.2-21.4c-2.2-6.3-5.9-11.4-8.9-17.4c-2-4-4.1-7.9-6.9-11.5
		c-3.1-4-7.7-7.1-11.2-10.8c-1.8-1.8-3-3.6-5.1-5.1c-1.7-1.2-3.6-2.1-5.2-3.3c-4-2.9-8-5.9-12.1-8.7c-3-2-6.2-3.9-9.4-5.8
		c-2-1.2-3.7-2.7-5.6-4.2c-4.7-3.6-11.5-4-17.2-4.9c-3.2-0.5-6.4-1.3-9.6-1.2c-2.1,0-4.2-0.1-6.2,0c-2,0.1-4,0.7-6,0.9
		c-1,0.1-1.7,0.2-2.7,0.4c-0.7,0.2-1.5-0.1-2.2,0.1c-1.5,0.4-3.1,0.7-4.6,1c-1.6,0.4-3.1,0.2-4.7,0.8c-2,0.7-4,1.1-6,1.8
		c-2,0.6-4.4,1.2-6.2,2.2c-2.3,1.3-4.7,2.2-7.2,3c-3,1-5.7,2.7-8.6,3.8c-1.5,0.6-2.9,1.4-4.1,2.3c-2.8,2.1-5.7,4.5-9,5.9
		c-1.5,0.7-3.1,1-4.2,2.2C42.6,29.1,42.4,29.3,42.1,29.4L42.1,29.4z"/>
	
		<radialGradient id="SVGID_3_" cx="28.46" cy="26.01" r="147.1" gradientTransform="matrix(1 0 0 -1 0 224)" gradientUnits="userSpaceOnUse">
		<stop  offset="0.19" style="stop-color:#97C8FD"/>
		<stop  offset="0.29" style="stop-color:#98C8FD;stop-opacity:0.98"/>
		<stop  offset="0.39" style="stop-color:#9DCBFD;stop-opacity:0.94"/>
		<stop  offset="0.49" style="stop-color:#A6D0FD;stop-opacity:0.85"/>
		<stop  offset="0.6" style="stop-color:#B2D6FD;stop-opacity:0.74"/>
		<stop  offset="0.7" style="stop-color:#C1DEFD;stop-opacity:0.59"/>
		<stop  offset="0.81" style="stop-color:#D4E8FE;stop-opacity:0.41"/>
		<stop  offset="0.91" style="stop-color:#E9F3FE;stop-opacity:0.2"/>
		<stop  offset="1" style="stop-color:#FFFFFF;stop-opacity:0"/>
	</radialGradient>
	<path fill="url(#SVGID_3_)" d="M42.1,29.4c-1.2,1-2.6,1.6-3.8,2.7c-2.9,2.6-5.1,5.5-7.4,8.6c-0.8,1.1-2,1.9-2.6,3
		c-0.6,1-1,2.2-1.4,3.3c-1.1,3.5-3.8,6.6-5.5,9.9c-3.5,6.5-6.3,13.3-8.7,20.2c-8.1,23.3-12,50.1-4.5,73.9
		c6.5,20.9,19.6,38.2,37.9,51.7c6.9,5.1,14.7,8.6,23,11.2c11.7,3.6,23.8,3.4,36,3.1c8.6-0.2,17.3-2.5,25.3-5.2
		c10.6-3.6,22.1-7.6,31.8-13.3c16.1-9.4,34.1-21,41.3-38.1c1.7-4.1,2.6-8.4,4.3-12.4c1-2.3,2.5-4.8,3.2-7.2c2.3-6.9,3.1-14.7,3-21.8
		c-0.1-6.4,1.1-13.9-0.1-20.3c-1.3-7.4-5.7-14.3-8.2-21.4c-2.2-6.3-5.9-11.4-8.9-17.4c-2-4-4.1-7.9-6.9-11.5
		c-3.1-4-7.7-7.1-11.2-10.8c-1.8-1.8-3-3.6-5.1-5.1c-1.7-1.2-3.6-2.1-5.2-3.3c-4-2.9-8-5.9-12.1-8.7c-3-2-6.2-3.9-9.4-5.8
		c-2-1.2-3.7-2.7-5.6-4.2c-4.7-3.6-11.5-4-17.2-4.9c-3.2-0.5-6.4-1.3-9.6-1.2c-2.1,0-4.2-0.1-6.2,0c-2,0.1-4,0.7-6,0.9
		c-1,0.1-1.7,0.2-2.7,0.4c-0.7,0.2-1.5-0.1-2.2,0.1c-1.5,0.4-3.1,0.7-4.6,1c-1.6,0.4-3.1,0.2-4.7,0.8c-2,0.7-4,1.1-6,1.8
		c-2,0.6-4.4,1.2-6.2,2.2c-2.3,1.3-4.7,2.2-7.2,3c-3,1-5.7,2.7-8.6,3.8c-1.5,0.6-2.9,1.4-4.1,2.3c-2.8,2.1-5.7,4.5-9,5.9
		c-1.5,0.7-3.1,1-4.2,2.2C42.6,29.1,42.4,29.3,42.1,29.4L42.1,29.4z"/>
	<path fill="none" stroke="#2879F9" stroke-width="4" stroke-linecap="round" stroke-linejoin="round" d="M42.1,29.4
		c-1.2,1-2.6,1.6-3.8,2.7c-2.9,2.6-5.1,5.5-7.4,8.6c-0.8,1.1-2,1.9-2.6,3c-0.6,1-1,2.2-1.4,3.3c-1.1,3.5-3.8,6.6-5.5,9.9
		c-3.5,6.5-6.3,13.3-8.7,20.2c-8.1,23.3-12,50.1-4.5,73.9c6.5,20.9,19.6,38.2,37.9,51.7c6.9,5.1,14.7,8.6,23,11.2
		c11.7,3.6,23.8,3.4,36,3.1c8.6-0.2,17.3-2.5,25.3-5.2c10.6-3.6,22.1-7.6,31.8-13.3c16.1-9.4,34.1-21,41.3-38.1
		c1.7-4.1,2.6-8.4,4.3-12.4c1-2.3,2.5-4.8,3.2-7.2c2.3-6.9,3.1-14.7,3-21.8c-0.1-6.4,1.1-13.9-0.1-20.3c-1.3-7.4-5.7-14.3-8.2-21.4
		c-2.2-6.3-5.9-11.4-8.9-17.4c-2-4-4.1-7.9-6.9-11.5c-3.1-4-7.7-7.1-11.2-10.8c-1.8-1.8-3-3.6-5.1-5.1c-1.7-1.2-3.6-2.1-5.2-3.3
		c-4-2.9-8-5.9-12.1-8.7c-3-2-6.2-3.9-9.4-5.8c-2-1.2-3.7-2.7-5.6-4.2c-4.7-3.6-11.5-4-17.2-4.9c-3.2-0.5-6.4-1.3-9.6-1.2
		c-2.1,0-4.2-0.1-6.2,0c-2,0.1-4,0.7-6,0.9c-1,0.1-1.7,0.2-2.7,0.4c-0.7,0.2-1.5-0.1-2.2,0.1c-1.5,0.4-3.1,0.7-4.6,1
		c-1.6,0.4-3.1,0.2-4.7,0.8c-2,0.7-4,1.1-6,1.8c-2,0.6-4.4,1.2-6.2,2.2c-2.3,1.3-4.7,2.2-7.2,3c-3,1-5.7,2.7-8.6,3.8
		c-1.5,0.6-2.9,1.4-4.1,2.3c-2.8,2.1-5.7,4.5-9,5.9c-1.5,0.7-3.1,1-4.2,2.2C42.6,29.1,42.4,29.3,42.1,29.4L42.1,29.4z"/>
</g>
<g id="l">
</g>
<g id="m">
</g>
</svg>
