<?xml version="1.0" encoding="utf-8"?>
<!-- Generator: Adobe Illustrator 24.3.0, SVG Export Plug-In . SVG Version: 6.00 Build 0)  -->
<svg version="1.1" id="Layer_1" xmlns="http://www.w3.org/2000/svg" xmlns:xlink="http://www.w3.org/1999/xlink" x="0px" y="0px"
	 width="227.4px" height="211.9px" viewBox="0 0 227.4 211.9" enable-background="new 0 0 227.4 211.9" xml:space="preserve">
<g id="a">
</g>
<g id="b">
</g>
<g id="c">
</g>
<g id="d">
</g>
<g id="e">
</g>
<g id="f">
</g>
<g id="g">
</g>
<g id="h">
	<path fill="#97C8FD" d="M128.2,4.4c-2-0.2-4-0.3-6-0.1c-2.7,0.2-5.3,0.6-8.1,0.5c-5.5-0.2-11.1,1-16.5,2c-3.3,0.6-6.8,1.1-10.1,1.9
		c-3.1,0.9-5.9,2.6-8.8,3.8c-2.5,1.1-5.2,1.7-7.6,3.1c-2.8,1.7-5.5,3.6-8.7,4.6c-2.3,0.8-4.6,1.2-6.7,2.5c-2.9,1.8-5.4,3.7-8.5,5.3
		c-0.7,0.4-1.4,0.7-2.1,1.1c-1.4,0.8-2.7,1.8-4,2.7c-4.2,3-7.7,6.6-11.4,10.2c-7.1,6.8-12.5,14-16.7,22.9c-1.9,4.1-3.4,8.7-4.4,13.1
		c-0.6,2.4-1.8,4.3-2.1,6.8c-0.3,2.2-0.7,4.4-1,6.6c-0.6,4-1.2,7.8-1.1,11.8c0.1,3.9,0.4,7.9,0.3,11.9c-0.1,3.1-0.6,6.7,0.1,9.7
		c0.3,1.5,1.4,2.8,1.7,4.4c0.2,1.4-0.1,2.7,0.4,4.1c0.5,1.7,1.3,3.5,1.8,5.1c0.9,2.3,1.4,4.7,2.2,7c0.9,2.3,2.4,3.5,3.8,5.4
		c2.4,3.4,4.8,6,6.3,10c3.6,9.2,11.4,15.7,19.3,21.3c5.2,3.7,10.7,6.9,16.5,9.5c8.1,3.6,15.2,8.9,23.7,11.6c6.8,2.2,14,1.6,21,2.6
		c4.6,0.6,8.9,1.3,13.5,1.6c4.4,0.3,8.2-0.3,12.5-0.9c7.9-1.1,16-3.4,23.1-7.1c4.9-2.6,10.2-4.2,14.9-7.2c5.2-3.3,9.9-7.4,14.8-11.3
		s10.1-7.4,14.4-11.9c4.1-4.4,7.3-9.7,10.7-14.6c3.7-5.2,8.1-10.3,10.2-16.4c0.4-1.1,0.8-2.2,1.1-3.4c1.8-5.4,2.6-10.7,3.8-16.2
		c0.7-3.3,1.6-6.7,1.9-10.1c0.3-3.3-0.2-6.6-0.8-9.9c-0.4-2.6-1-5.1-0.9-7.8c0-2.6,0.2-5.3-0.4-7.9c-0.6-2.8-1.3-5.5-2.1-8.3
		c-0.7-2.4-1.2-5.2-2.2-7.5c-0.5-1.1-0.8-2.1-1.5-3.1c-0.4-0.7-0.9-1.1-1.2-1.9c-0.5-1.3-0.6-2.7-1-4.1c-1.1-3.6-3.4-6-5.1-9.3
		c-0.7-1.3-0.8-2-1.8-3.1c-0.8-0.8-1.7-1.7-2.4-2.6c-1.1-1.3-1.6-2.7-3-3.8c-2.6-2-4.7-4.2-7.5-6.2c-1.5-1-2.2-1.7-3.3-3
		c-1.2-1.4-3-2-4.4-3.2c-1.5-1.4-2.4-2.7-4.1-3.9c-1.3-0.9-2.5-1.9-3.9-2.5c-1.1-0.5-2.2-1.2-3.4-1.7c-1-0.5-2.1-0.2-3.2-0.6
		c-1.9-0.6-3.9-1.5-5.7-2.2c-1.1-0.5-2.1-1.3-3.1-2c-1.6-1.1-3.2-1.4-4.7-2.4c-7.7-4.9-17.4-6.2-26.4-6.8
		C129.8,4.5,129,4.4,128.2,4.4L128.2,4.4z"/>
	
		<radialGradient id="SVGID_1_" cx="15.06" cy="202.73" r="226.29" gradientTransform="matrix(1 0 0 -1 0 214)" gradientUnits="userSpaceOnUse">
		<stop  offset="0.17" style="stop-color:#1C5935"/>
		<stop  offset="1" style="stop-color:#FFFFFF;stop-opacity:0"/>
	</radialGradient>
	<path fill="url(#SVGID_1_)" d="M128.2,4.4c-2-0.2-4-0.3-6-0.1c-2.7,0.2-5.3,0.6-8.1,0.5c-5.5-0.2-11.1,1-16.5,2
		c-3.3,0.6-6.8,1.1-10.1,1.9c-3.1,0.9-5.9,2.6-8.8,3.8c-2.5,1.1-5.2,1.7-7.6,3.1c-2.8,1.7-5.5,3.6-8.7,4.6c-2.3,0.8-4.6,1.2-6.7,2.5
		c-2.9,1.8-5.4,3.7-8.5,5.3c-0.7,0.4-1.4,0.7-2.1,1.1c-1.4,0.8-2.7,1.8-4,2.7c-4.2,3-7.7,6.6-11.4,10.2c-7.1,6.8-12.5,14-16.7,22.9
		c-1.9,4.1-3.4,8.7-4.4,13.1c-0.6,2.4-1.8,4.3-2.1,6.8c-0.3,2.2-0.7,4.4-1,6.6c-0.6,4-1.2,7.8-1.1,11.8c0.1,3.9,0.4,7.9,0.3,11.9
		c-0.1,3.1-0.6,6.7,0.1,9.7c0.3,1.5,1.4,2.8,1.7,4.4c0.2,1.4-0.1,2.7,0.4,4.1c0.5,1.7,1.3,3.5,1.8,5.1c0.9,2.3,1.4,4.7,2.2,7
		c0.9,2.3,2.4,3.5,3.8,5.4c2.4,3.4,4.8,6,6.3,10c3.6,9.2,11.4,15.7,19.3,21.3c5.2,3.7,10.7,6.9,16.5,9.5c8.1,3.6,15.2,8.9,23.7,11.6
		c6.8,2.2,14,1.6,21,2.6c4.6,0.6,8.9,1.3,13.5,1.6c4.4,0.3,8.2-0.3,12.5-0.9c7.9-1.1,16-3.4,23.1-7.1c4.9-2.6,10.2-4.2,14.9-7.2
		c5.2-3.3,9.9-7.4,14.8-11.3s10.1-7.4,14.4-11.9c4.1-4.4,7.3-9.7,10.7-14.6c3.7-5.2,8.1-10.3,10.2-16.4c0.4-1.1,0.8-2.2,1.1-3.4
		c1.8-5.4,2.6-10.7,3.8-16.2c0.7-3.3,1.6-6.7,1.9-10.1c0.3-3.3-0.2-6.6-0.8-9.9c-0.4-2.6-1-5.1-0.9-7.8c0-2.6,0.2-5.3-0.4-7.9
		c-0.6-2.8-1.3-5.5-2.1-8.3c-0.7-2.4-1.2-5.2-2.2-7.5c-0.5-1.1-0.8-2.1-1.5-3.1c-0.4-0.7-0.9-1.1-1.2-1.9c-0.5-1.3-0.6-2.7-1-4.1
		c-1.1-3.6-3.4-6-5.1-9.3c-0.7-1.3-0.8-2-1.8-3.1c-0.8-0.8-1.7-1.7-2.4-2.6c-1.1-1.3-1.6-2.7-3-3.8c-2.6-2-4.7-4.2-7.5-6.2
		c-1.5-1-2.2-1.7-3.3-3c-1.2-1.4-3-2-4.4-3.2c-1.5-1.4-2.4-2.7-4.1-3.9c-1.3-0.9-2.5-1.9-3.9-2.5c-1.1-0.5-2.2-1.2-3.4-1.7
		c-1-0.5-2.1-0.2-3.2-0.6c-1.9-0.6-3.9-1.5-5.7-2.2c-1.1-0.5-2.1-1.3-3.1-2c-1.6-1.1-3.2-1.4-4.7-2.4c-7.7-4.9-17.4-6.2-26.4-6.8
		C129.8,4.5,129,4.4,128.2,4.4L128.2,4.4z"/>
	
		<radialGradient id="SVGID_2_" cx="226.8" cy="22.88" r="186.55" gradientTransform="matrix(1 0 0 -1 0 214)" gradientUnits="userSpaceOnUse">
		<stop  offset="0.17" style="stop-color:#FEFDEF"/>
		<stop  offset="0.17" style="stop-color:#FEFDEF;stop-opacity:0.99"/>
		<stop  offset="0.21" style="stop-color:#FEFDF2;stop-opacity:0.8"/>
		<stop  offset="0.25" style="stop-color:#FEFDF4;stop-opacity:0.64"/>
		<stop  offset="0.29" style="stop-color:#FEFEF7;stop-opacity:0.48"/>
		<stop  offset="0.34" style="stop-color:#FEFEF9;stop-opacity:0.35"/>
		<stop  offset="0.39" style="stop-color:#FEFEFB;stop-opacity:0.24"/>
		<stop  offset="0.45" style="stop-color:#FEFEFC;stop-opacity:0.15"/>
		<stop  offset="0.52" style="stop-color:#FEFEFD;stop-opacity:8.000000e-02"/>
		<stop  offset="0.6" style="stop-color:#FEFEFE;stop-opacity:4.000000e-02"/>
		<stop  offset="0.72" style="stop-color:#FEFEFE;stop-opacity:0"/>
		<stop  offset="1" style="stop-color:#FFFFFF;stop-opacity:0"/>
	</radialGradient>
	<path fill="url(#SVGID_2_)" d="M128.2,4.4c-2-0.2-4-0.3-6-0.1c-2.7,0.2-5.3,0.6-8.1,0.5c-5.5-0.2-11.1,1-16.5,2
		c-3.3,0.6-6.8,1.1-10.1,1.9c-3.1,0.9-5.9,2.6-8.8,3.8c-2.5,1.1-5.2,1.7-7.6,3.1c-2.8,1.7-5.5,3.6-8.7,4.6c-2.3,0.8-4.6,1.2-6.7,2.5
		c-2.9,1.8-5.4,3.7-8.5,5.3c-0.7,0.4-1.4,0.7-2.1,1.1c-1.4,0.8-2.7,1.8-4,2.7c-4.2,3-7.7,6.6-11.4,10.2c-7.1,6.8-12.5,14-16.7,22.9
		c-1.9,4.1-3.4,8.7-4.4,13.1c-0.6,2.4-1.8,4.3-2.1,6.8c-0.3,2.2-0.7,4.4-1,6.6c-0.6,4-1.2,7.8-1.1,11.8c0.1,3.9,0.4,7.9,0.3,11.9
		c-0.1,3.1-0.6,6.7,0.1,9.7c0.3,1.5,1.4,2.8,1.7,4.4c0.2,1.4-0.1,2.7,0.4,4.1c0.5,1.7,1.3,3.5,1.8,5.1c0.9,2.3,1.4,4.7,2.2,7
		c0.9,2.3,2.4,3.5,3.8,5.4c2.4,3.4,4.8,6,6.3,10c3.6,9.2,11.4,15.7,19.3,21.3c5.2,3.7,10.7,6.9,16.5,9.5c8.1,3.6,15.2,8.9,23.7,11.6
		c6.8,2.2,14,1.6,21,2.6c4.6,0.6,8.9,1.3,13.5,1.6c4.4,0.3,8.2-0.3,12.5-0.9c7.9-1.1,16-3.4,23.1-7.1c4.9-2.6,10.2-4.2,14.9-7.2
		c5.2-3.3,9.9-7.4,14.8-11.3s10.1-7.4,14.4-11.9c4.1-4.4,7.3-9.7,10.7-14.6c3.7-5.2,8.1-10.3,10.2-16.4c0.4-1.1,0.8-2.2,1.1-3.4
		c1.8-5.4,2.6-10.7,3.8-16.2c0.7-3.3,1.6-6.7,1.9-10.1c0.3-3.3-0.2-6.6-0.8-9.9c-0.4-2.6-1-5.1-0.9-7.8c0-2.6,0.2-5.3-0.4-7.9
		c-0.6-2.8-1.3-5.5-2.1-8.3c-0.7-2.4-1.2-5.2-2.2-7.5c-0.5-1.1-0.8-2.1-1.5-3.1c-0.4-0.7-0.9-1.1-1.2-1.9c-0.5-1.3-0.6-2.7-1-4.1
		c-1.1-3.6-3.4-6-5.1-9.3c-0.7-1.3-0.8-2-1.8-3.1c-0.8-0.8-1.7-1.7-2.4-2.6c-1.1-1.3-1.6-2.7-3-3.8c-2.6-2-4.7-4.2-7.5-6.2
		c-1.5-1-2.2-1.7-3.3-3c-1.2-1.4-3-2-4.4-3.2c-1.5-1.4-2.4-2.7-4.1-3.9c-1.3-0.9-2.5-1.9-3.9-2.5c-1.1-0.5-2.2-1.2-3.4-1.7
		c-1-0.5-2.1-0.2-3.2-0.6c-1.9-0.6-3.9-1.5-5.7-2.2c-1.1-0.5-2.1-1.3-3.1-2c-1.6-1.1-3.2-1.4-4.7-2.4c-7.7-4.9-17.4-6.2-26.4-6.8
		C129.8,4.5,129,4.4,128.2,4.4L128.2,4.4z"/>
	<path fill="none" stroke="#FFB5D9" stroke-width="6" stroke-linejoin="round" d="M128.2,4.4c-2-0.2-4-0.3-6-0.1
		c-2.7,0.2-5.3,0.6-8.1,0.5c-5.5-0.2-11.1,1-16.5,2c-3.3,0.6-6.8,1.1-10.1,1.9c-3.1,0.9-5.9,2.6-8.8,3.8c-2.5,1.1-5.2,1.7-7.6,3.1
		c-2.8,1.7-5.5,3.6-8.7,4.6c-2.3,0.8-4.6,1.2-6.7,2.5c-2.9,1.8-5.4,3.7-8.5,5.3c-0.7,0.4-1.4,0.7-2.1,1.1c-1.4,0.8-2.7,1.8-4,2.7
		c-4.2,3-7.7,6.6-11.4,10.2c-7.1,6.8-12.5,14-16.7,22.9c-1.9,4.1-3.4,8.7-4.4,13.1c-0.6,2.4-1.8,4.3-2.1,6.8c-0.3,2.2-0.7,4.4-1,6.6
		c-0.6,4-1.2,7.8-1.1,11.8c0.1,3.9,0.4,7.9,0.3,11.9c-0.1,3.1-0.6,6.7,0.1,9.7c0.3,1.5,1.4,2.8,1.7,4.4c0.2,1.4-0.1,2.7,0.4,4.1
		c0.5,1.7,1.3,3.5,1.8,5.1c0.9,2.3,1.4,4.7,2.2,7c0.9,2.3,2.4,3.5,3.8,5.4c2.4,3.4,4.8,6,6.3,10c3.6,9.2,11.4,15.7,19.3,21.3
		c5.2,3.7,10.7,6.9,16.5,9.5c8.1,3.6,15.2,8.9,23.7,11.6c6.8,2.2,14,1.6,21,2.6c4.6,0.6,8.9,1.3,13.5,1.6c4.4,0.3,8.2-0.3,12.5-0.9
		c7.9-1.1,16-3.4,23.1-7.1c4.9-2.6,10.2-4.2,14.9-7.2c5.2-3.3,9.9-7.4,14.8-11.3s10.1-7.4,14.4-11.9c4.1-4.4,7.3-9.7,10.7-14.6
		c3.7-5.2,8.1-10.3,10.2-16.4c0.4-1.1,0.8-2.2,1.1-3.4c1.8-5.4,2.6-10.7,3.8-16.2c0.7-3.3,1.6-6.7,1.9-10.1c0.3-3.3-0.2-6.6-0.8-9.9
		c-0.4-2.6-1-5.1-0.9-7.8c0-2.6,0.2-5.3-0.4-7.9c-0.6-2.8-1.3-5.5-2.1-8.3c-0.7-2.4-1.2-5.2-2.2-7.5c-0.5-1.1-0.8-2.1-1.5-3.1
		c-0.4-0.7-0.9-1.1-1.2-1.9c-0.5-1.3-0.6-2.7-1-4.1c-1.1-3.6-3.4-6-5.1-9.3c-0.7-1.3-0.8-2-1.8-3.1c-0.8-0.8-1.7-1.7-2.4-2.6
		c-1.1-1.3-1.6-2.7-3-3.8c-2.6-2-4.7-4.2-7.5-6.2c-1.5-1-2.2-1.7-3.3-3c-1.2-1.4-3-2-4.4-3.2c-1.5-1.4-2.4-2.7-4.1-3.9
		c-1.3-0.9-2.5-1.9-3.9-2.5c-1.1-0.5-2.2-1.2-3.4-1.7c-1-0.5-2.1-0.2-3.2-0.6c-1.9-0.6-3.9-1.5-5.7-2.2c-1.1-0.5-2.1-1.3-3.1-2
		c-1.6-1.1-3.2-1.4-4.7-2.4c-7.7-4.9-17.4-6.2-26.4-6.8C129.8,4.5,129,4.4,128.2,4.4L128.2,4.4z"/>
</g>
<g id="k">
</g>
<g id="l">
</g>
</svg>
