<?xml version="1.0" encoding="utf-8"?>
<!-- Generator: Adobe Illustrator 24.3.0, SVG Export Plug-In . SVG Version: 6.00 Build 0)  -->
<svg version="1.1" id="Layer_1" xmlns="http://www.w3.org/2000/svg" xmlns:xlink="http://www.w3.org/1999/xlink" x="0px" y="0px"
	 width="219px" height="214.1px" viewBox="0 0 219 214.1" enable-background="new 0 0 219 214.1" xml:space="preserve">
<path fill="#FEFDEF" d="M71,19.1c-1.7,1.4-3.1,2.8-5.2,3.6c-1.7,0.6-3.2,1.3-4.9,2.1c-2.6,1.1-5.1,1.7-7.4,3.4
	c-2.2,1.6-4.5,2.6-6.6,4.2c-2.6,2-5,4-7.4,6.2c-2,1.9-4.2,3.2-6.2,5.1c-4.6,4.2-8.6,8.3-12.1,13.5c-1.9,2.8-4,6.1-6.2,8.5
	c-0.8,0.8-1.7,1.5-2.4,2.4C10,71.6,9.2,76.8,8,80.9c-4.8,15.4-5,32.4-4.1,48.4c0.4,7.7,1.9,14.9,6.2,21.4c2.1,3.2,4.5,6.1,7,9
	c3.3,3.7,6.3,7.8,9.8,11.3c3.4,3.4,7,6.6,10.1,10.2c2.5,2.9,4.8,6,7.9,8.4c3.4,2.7,7.9,4.9,12,6.4c4.3,1.6,8.2,4.1,12.4,6
	c2.9,1.3,5.6,2.4,8.7,2.9c3.3,0.6,6.7,0.8,9.9,1.5c5.2,1.1,10,2.8,15,4.4c4.3,1.3,8.9,0.8,13.3,0.8c3.3,0,6.3-0.1,9.5-1.1
	c2.5-0.8,5-2.2,7.5-2.7c1.2-0.2,2.6,0.3,3.8,0.1c1.4-0.2,2.4-0.7,3.8-0.8c2.4-0.2,5.2-1.4,7.3-2.4c1.5-0.7,2.4-1.1,4-1.5
	c1.2-0.3,2.7-0.6,3.8-1.1c1.3-0.6,1.9-1.6,2.9-2.5c1.4-1.2,3.1-2.3,4.6-3.4c1.3-1,2.3-1.9,3.4-3.1c1.2-1.4,2.6-1.7,3.8-2.9
	c1.1-1,1.6-2.4,2.6-3.5c1.8-1.9,3.4-2.8,4.6-5.3c1.2-2.6,1.8-5.4,3.7-7.6c2.1-2.5,4.1-4.8,6.7-6.8c1.1-0.9,1.4-1.9,2.4-2.9
	s2.1-1.2,2.9-2.4c0.6-1,0.9-2.1,1.6-3c1-1.2,2.4-2.1,3.4-3.4c1.5-1.9,2.7-4.1,4.2-6c1.1-1.3,1.5-2.6,2.4-4c1.6-2.5,3.1-4.8,3.7-7.8
	c0.2-1.3-0.1-2.4,0.3-3.8c0.5-1.7,1.1-3.5,1.7-5.2c1-2.5,0.9-4.6,0.9-7.3c0-1.3-0.1-2.7,0-4c0.1-2,1.4-3.1,1.7-5.2
	c0.2-1.7-0.1-3.5-0.1-5.2c0-2.8-0.4-5-1.1-7.6c-1.3-4.9-3.9-9.5-4.2-14.4c-0.3-4.7-2.4-8.2-4.4-12.5c-1-2.1-2.4-4.2-3.3-6.4
	c-0.9-2-1.7-4.7-2.9-6.4c-2.5-3.5-4-7.7-6.9-11.2c-1.2-1.5-3-2.6-4.3-4.1c-1.8-2.1-3.6-4.3-5.5-6.2c-2-2-3.9-4-5.9-5.9
	c-1.7-1.7-2.6-4.5-4.4-5.9c-1.3-1-2.5-1.4-3.7-2.6c-0.9-1-1.7-1.8-3-2.3s-2.9-0.5-4.2-1.1c-1.2-0.5-1.9-1.4-3-2.1
	c-2.2-1.5-4.8-1.8-7.2-2.4c-2.3-0.6-3.9-1.4-6.4-1.5c-2.9-0.1-5.1-1.4-7.6-2.5c-3.2-1.4-6.4-2.2-9.5-3.8c-2.1-1.1-4.1-1.5-6.4-1.6
	c-1.7-0.1-3.4-0.1-5.1,0.3c-1.4,0.3-2.6,1.2-3.9,1.5c-0.6,0.1-1.3-0.1-1.9,0c-0.3,0.1-0.3,0.5-0.6,0.5c-1.8,0.5-3.3,1.1-5.1,1.5
	s-3.7-0.2-5.3,0.5c-0.8,0.4-1.2,1-2.3,1.2c-0.7,0.1-1.5-0.2-2.3-0.1c-1.2,0.2-1.9,1.1-3,1.4c-0.9,0.3-1.8,0.2-2.7,0.1
	c-2,0-3.4,0.2-5.3,0.9c-3.8,1.3-7.4,2.4-10.6,4.9C71.3,18.8,71.1,19,71,19.1L71,19.1z"/>
<radialGradient id="SVGID_1_" cx="293.49" cy="959.62" r="222.62" gradientTransform="matrix(1 0 0 1 0 -864)" gradientUnits="userSpaceOnUse">
	<stop  offset="0.19" style="stop-color:#97C8FD"/>
	<stop  offset="0.29" style="stop-color:#98C8FD;stop-opacity:0.98"/>
	<stop  offset="0.39" style="stop-color:#9DCBFD;stop-opacity:0.94"/>
	<stop  offset="0.49" style="stop-color:#A6D0FD;stop-opacity:0.85"/>
	<stop  offset="0.6" style="stop-color:#B2D6FD;stop-opacity:0.74"/>
	<stop  offset="0.7" style="stop-color:#C1DEFD;stop-opacity:0.59"/>
	<stop  offset="0.81" style="stop-color:#D4E8FE;stop-opacity:0.41"/>
	<stop  offset="0.91" style="stop-color:#E9F3FE;stop-opacity:0.2"/>
	<stop  offset="1" style="stop-color:#FFFFFF;stop-opacity:0"/>
</radialGradient>
<path fill="url(#SVGID_1_)" d="M71,19.1c-1.7,1.4-3.1,2.8-5.2,3.6c-1.7,0.6-3.2,1.3-4.9,2.1c-2.6,1.1-5.1,1.7-7.4,3.4
	s-4.5,2.6-6.6,4.2c-2.6,2-5,4-7.4,6.2c-2,1.9-4.2,3.2-6.2,5.1c-4.6,4.2-8.6,8.3-12.1,13.5c-1.9,2.8-4,6.1-6.2,8.5
	c-0.8,0.8-1.7,1.5-2.4,2.4C10,71.6,9.2,76.8,8,80.9c-4.8,15.4-5,32.4-4.1,48.4c0.4,7.7,1.9,14.9,6.2,21.4c2.1,3.2,4.5,6.1,7,9
	c3.3,3.7,6.3,7.8,9.8,11.3c3.4,3.4,7,6.6,10.1,10.2c2.5,2.9,4.8,6,7.9,8.4c3.4,2.7,7.9,4.9,12,6.4c4.3,1.6,8.2,4.1,12.4,6
	c2.9,1.3,5.6,2.4,8.7,2.9c3.3,0.6,6.7,0.8,9.9,1.5c5.2,1.1,10,2.8,15,4.4c4.3,1.3,8.9,0.8,13.3,0.8c3.3,0,6.3-0.1,9.5-1.1
	c2.5-0.8,5-2.2,7.5-2.7c1.2-0.2,2.6,0.3,3.8,0.1c1.4-0.2,2.4-0.7,3.8-0.8c2.4-0.2,5.2-1.4,7.3-2.4c1.5-0.7,2.4-1.1,4-1.5
	c1.2-0.3,2.7-0.6,3.8-1.1c1.3-0.6,1.9-1.6,2.9-2.5c1.4-1.2,3.1-2.3,4.6-3.4c1.3-1,2.3-1.9,3.4-3.1c1.2-1.4,2.6-1.7,3.8-2.9
	c1.1-1,1.6-2.4,2.6-3.5c1.8-1.9,3.4-2.8,4.6-5.3c1.2-2.6,1.8-5.4,3.7-7.6c2.1-2.5,4.1-4.8,6.7-6.8c1.1-0.9,1.4-1.9,2.4-2.9
	s2.1-1.2,2.9-2.4c0.6-1,0.9-2.1,1.6-3c1-1.2,2.4-2.1,3.4-3.4c1.5-1.9,2.7-4.1,4.2-6c1.1-1.3,1.5-2.6,2.4-4c1.6-2.5,3.1-4.8,3.7-7.8
	c0.2-1.3-0.1-2.4,0.3-3.8c0.5-1.7,1.1-3.5,1.7-5.2c1-2.5,0.9-4.6,0.9-7.3c0-1.3-0.1-2.7,0-4c0.1-2,1.4-3.1,1.7-5.2
	c0.2-1.7-0.1-3.5-0.1-5.2c0-2.8-0.4-5-1.1-7.6c-1.3-4.9-3.9-9.5-4.2-14.4c-0.3-4.7-2.4-8.2-4.4-12.5c-1-2.1-2.4-4.2-3.3-6.4
	c-0.9-2-1.7-4.7-2.9-6.4c-2.5-3.5-4-7.7-6.9-11.2c-1.2-1.5-3-2.6-4.3-4.1c-1.8-2.1-3.6-4.3-5.5-6.2s-3.9-4-5.9-5.9
	c-1.7-1.7-2.6-4.5-4.4-5.9c-1.3-1-2.5-1.4-3.7-2.6c-0.9-1-1.7-1.8-3-2.3s-2.9-0.5-4.2-1.1c-1.2-0.5-1.9-1.4-3-2.1
	c-2.2-1.5-4.8-1.8-7.2-2.4c-2.3-0.6-3.9-1.4-6.4-1.5c-2.9-0.1-5.1-1.4-7.6-2.5c-3.2-1.4-6.4-2.2-9.5-3.8c-2.1-1.1-4.1-1.5-6.4-1.6
	c-1.7-0.1-3.4-0.1-5.1,0.3c-1.4,0.3-2.6,1.2-3.9,1.5c-0.6,0.1-1.3-0.1-1.9,0c-0.3,0.1-0.3,0.5-0.6,0.5c-1.8,0.5-3.3,1.1-5.1,1.5
	s-3.7-0.2-5.3,0.5c-0.8,0.4-1.2,1-2.3,1.2c-0.7,0.1-1.5-0.2-2.3-0.1c-1.2,0.2-1.9,1.1-3,1.4c-0.9,0.3-1.8,0.2-2.7,0.1
	c-2,0-3.4,0.2-5.3,0.9c-3.8,1.3-7.4,2.4-10.6,4.9C71.3,18.8,71.1,19,71,19.1L71,19.1z"/>
<path fill="none" stroke="#97C8FD" stroke-width="5" stroke-linejoin="round" d="M30.6,84.4c-0.2,0.6-0.5,1.3-0.6,1.9s0,1.1-0.1,1.7
	c-0.1,0.5-0.5,0.6-0.6,1.1c-0.2,0.9-0.1,2.4,0.1,3.3c0.3,1.2,0.2,2.5,0.5,3.7c0.6,2.4,1.2,4.8,2.5,7c1.7,2.8,3.2,5.9,5.1,8.6
	c1.8,2.4,3.7,4.2,6,5.9c2.3,1.7,4.7,1.8,7.2,2.9c1,0.4,1.5,0.6,2.7,0.6c1.3,0,2.6,0,3.8,0c2.2,0,4.4,0,6.6,0c1.2,0,2.1-0.5,3.3-0.6
	s2.2,0.1,3.3-0.4c2.4-1,2.2-2.8,2.2-5.1c0-0.9,0-1.8,0-2.8s0.4-3-0.1-3.7s-2.4-1.7-3.2-1.8c-0.9-0.2-2.1,0-3,0c-2.8,0-4.9,0-7.5,1.2
	c-5.1,2.5-8.5,7.5-11.6,12c-1.2,1.8-1.6,3.6-2.1,5.5c-0.5,2.1-1.7,4.5-1.8,6.6c-0.2,2.7,0,4.9,1.1,7.3c0.7,1.5,1.4,2.8,2.2,4.3
	c1.2,2.4,3,4.3,4.3,6.7c0.6,1.1,1,2.3,1.7,3.3c1,1.2,2.3,2.3,3.5,3.4c1.2,1.2,2,2.5,3,3.7c0.9,1,1.9,1.8,2.9,2.8
	c0.9,0.9,1.8,1.8,2.6,2.8c0.7,0.8,1.6,1.4,2.3,2.2c0.8,1,1.7,2,2.7,2.8c1.2,0.9,2.5,2.2,3.9,2.8c2.7,1.1,4.9,1.6,7.7,1.6
	c1.9,0,3.6-0.6,5.5-0.6c0.7,0,1.5,0.1,2.2,0.1c1.6-0.1,2.5-1,3.8-1.7c2.1-1.1,4-2.1,5.6-4s2.8-3.7,4.3-5.4c1.3-1.5,1.8-3.4,2.9-5.2
	c1-1.6,1.6-2.8,1.6-4.8c0.1-2.6-0.9-3.6-2.8-5.1c-1.1-0.8-1.9-1.8-3.3-2.1c-1.1-0.2-3.5-0.3-4.4,0.1c-1.7,0.7-2.8,3.9-2.8,5.4
	c0,2.1-0.5,4.8,0.5,6.6c1.1,1.8,2.7,3.3,3.9,4.9c1.1,1.5,2.3,2.8,3.7,4c1.3,1,2.5,2,3.8,3c0.7,0.6,1.6,1,2.4,1.4
	c0.7,0.4,1.6,1.3,2.3,1.5c2.8,1,6.2,0.6,9.3,0.6c1.4,0,3.1,0.3,4.4,0c2.1-0.4,4.1-1.7,6.1-2.7c0.9-0.4,1.7-0.6,2.5-1.2
	c0.9-0.7,1.6-1.6,2.5-2.3c0.6-0.4,1.2-0.7,1.8-1c1.2-0.7,1.8-1.8,2.7-2.8c2.2-2.3,3.9-4.9,6.1-7.2c2.4-2.4,4-5.6,5.1-8.8
	c0.6-1.9,1.8-3.2,2.6-5c0.7-1.4,1.2-3,1.6-4.5c1-3.7,1.1-7.1,1.1-10.9c0-3.9-0.5-8.9-2.8-12.2c-1.9-2.7-2.4-6-5.5-7.6
	c-1.9-0.9-4.2-1.8-6.4-1.8c-1,0-2.1-0.2-3,0c-1.4,0.2-2.8,1.5-3.9,2.4c-2.5,1.9-2.7,5.2-3.2,8.1c-0.6,3.5-0.6,7.6,1.4,10.6
	c0.6,0.9,1.1,1.9,1.8,2.7c1.1,1.6,2.5,2.6,3.9,3.9c2.2,1.9,4,3.3,6.6,4.6c1.4,0.7,3,1.3,4.3,2.1c1.1,0.7,1.9,1.3,3.1,1.8
	s2.4,1.1,3.6,1.7c1.5,0.7,3.4,1.8,5.1,2.1c2.2,0.4,4.5,0,6.4-1s4.1-1.2,6.1-1.9c0.9-0.3,2-1,2.9-1.5c1.2-0.7,1.7-1.6,2.8-2.4
	c1.9-1.4,3.5-2.4,4.9-4.5c2.6-3.9,2.1-10.2,2.3-14.5c0.2-3.7,1.2-7.1,0-10.8c-1-3.3-1.9-6.4-3.3-9.6c-0.8-1.7-1.9-3.2-2.7-4.9
	c-0.6-1.1-1-2.4-1.7-3.4c-1.6-2.4-3.9-4.6-6-6.6c-2.2-2.2-4.3-3.4-7.1-4.7c-2.5-1.1-4.8-2.6-7.3-3.7c-5.6-2.6-11.5-3.1-17.5-4
	c-1.8-0.3-3.6-0.2-5.4-0.5c-2.8-0.5-4-0.2-6.6,1.1c-2.1,1.1-3,2-4.3,4.2c-0.7,1.2-1.3,2.4-1.8,3.8c-1,3-2,7.6,0.1,10.4
	c1.9,2.5,4.7,4,7.8,2.2c4.6-2.7,8.2-8.7,9.5-13.7c0.7-2.8,0.5-6.2,0.4-9.1s-1.5-6.4-3.1-8.9c-1.7-2.7-3.7-4.8-5.8-7.1
	s-3.9-4.8-6.5-6.5c-1.8-1.2-3.9-2.8-5.9-3.7c-2.1-1-4.6-1.5-6.9-1.9c-6-1.1-11.7-2.4-17.5,0.3c-2,0.9-2.7,2.4-4.2,4
	c-1.6,1.7-3.1,3.4-4.5,5.2c-1.8,2.2-3.4,5-4.7,7.5c-0.8,1.5-0.8,3-1.4,4.6c-0.5,1.3-1,2.4-1.2,3.8c-0.8,4.3-0.3,9.9,1.6,13.8
	c0.8,1.5,2.1,2.5,3.8,2.6c0.9,0.1,2.6,0.2,3.3-0.4c0.9-0.8,0.9-2.5,1.2-3.6c0.4-1.4,1-2.5,1-4c0.1-2.1,0.4-5.2-0.3-7.2
	c-1.6-4.5-3.6-8.7-6.9-12.2c-2.9-3-6.7-5.7-10.6-7c-3-1-7.7-0.8-10.3,0.7c-1.8,1-3.4,2.3-4.7,3.9s-3,2.5-4.2,4.2
	c-2.4,3.9-3.6,8.3-5.2,12.5c-0.7,1.9-1.7,3.3-2.2,5.3c-0.5,2.3-1.3,4.7-1,7c0.3,2.2,1.8,4.9,3.9,5.8c0.9,0.4,2.3,1.3,3.4,1
	c2.6-0.8,2.9-4.9,2.8-7.2c-0.2-2.9-1.6-5.5-3.7-7.4c-2.1-1.8-5.2-1.8-7.9-1.5c-1.9,0.2-3.2,1.4-4.9,2.3c-2.6,1.3-6.5,3.3-7.7,6.2
	C30.9,83.5,30.7,83.9,30.6,84.4L30.6,84.4z"/>
</svg>
