<?xml version="1.0" encoding="utf-8"?>
<!-- Generator: Adobe Illustrator 24.3.0, SVG Export Plug-In . SVG Version: 6.00 Build 0)  -->
<svg version="1.1" id="Layer_1" xmlns="http://www.w3.org/2000/svg" xmlns:xlink="http://www.w3.org/1999/xlink" x="0px" y="0px"
	 width="219px" height="221.7px" viewBox="0 0 219 221.7" enable-background="new 0 0 219 221.7" xml:space="preserve">
<g id="босх_снежки_кружки">
</g>
<g id="босх_челики">
</g>
<g id="рефы">
</g>
<g id="эскиз">
</g>
<g id="низ">
</g>
<g id="пятна">
</g>
<g id="снежки">
</g>
<g id="снежки_шарики">
	<path fill="#FF7D3B" d="M156.3,11.9c-2.4-0.9-4.9-1.2-7.5-1.6c-1.2-0.2-1.6-0.4-2.6-1c-0.9-0.6-2-0.4-3-0.5c-0.7,0-1.4-0.3-2.1-0.5
		c-0.7-0.2-1.4-0.5-2.1-0.6c-0.7-0.2-1.5,0.1-2.1-0.1c-0.7-0.2-0.9-0.4-1.7-0.4c-0.7,0-1.4,0-2.1,0c-1.4,0-2.6,0.1-4-0.5
		c-1-0.4-2-0.8-3-1.2c-1.6-0.7-3-1.6-4.7-1c-2,0.6-4,0.5-6.1,0.5c-0.6,0-1.2,0.1-1.7-0.2c-0.4-0.2-0.8-0.4-1.3-0.4
		c-0.6,0-1.1,0-1.7,0c-0.5,0-0.9,0.2-1.5,0.2c-0.7,0-1.3,0.1-2,0.2c-1.1,0.3-2.3,0.5-3.4,0.7C103,5.7,102.6,6,102,6
		c-1.4,0-2.6,0.3-3.9,0.2c-0.7,0-1.3,0.3-2,0.5c-0.4,0.1-0.6,0.1-1,0.3c-0.5,0.2-0.8,0.1-1.2,0.2c-0.4,0.1-0.6,0.2-1,0.3
		c-0.4,0-0.8-0.1-1.2,0c-0.6,0.1-1.3,0-1.8,0.3c-0.2,0.1-0.3,0.3-0.5,0.5c-0.6,0.5-1.6,0.6-2.3,0.8c-0.7,0.1-1.6,0-2.3,0.2
		c-0.3,0.1-0.6,0.5-0.9,0.7c-0.3,0.1-0.5,0.2-0.8,0.3c-0.5,0.2-1,0.4-1.5,0.5c-0.9,0.3-1.9,0.7-2.7,1.2c-2.1,1.3-4.7,2.4-7,3.3
		c-1.4,0.6-2.7,1.3-4.1,1.8c-1.6,0.6-3.2,0.9-4.7,1.7c-1.9,1-4.1,1.5-6.2,2.2c-1.9,0.7-3.4,2.1-5.1,3.1c-2,1.2-4,2.4-6.2,3
		c-1.9,0.5-3.7,2.3-5.3,3.4c-1.5,1-3.2,1.8-4.5,3.1c-0.6,0.6-1.2,1-1.9,1.4c-1.1,0.7-1.5,1.3-2.2,2.4c-1.1,1.8-2.5,3.6-3.9,5.2
		c-0.6,0.7-0.9,1.5-1.3,2.2c-0.7,1.3-1.7,2.4-2.3,3.8c-1.2,2.4-2.6,4.8-4,7.1c-0.6,1.1-1.2,2.1-1.8,3.2c-0.5,1-1.3,1.7-1.9,2.6
		c-0.6,0.8-0.7,1.8-1.3,2.6c-0.6,0.6-1.1,0.9-1.4,1.8c-0.3,1-0.5,1.9-1,2.9c-0.5,0.9-0.6,2-1.1,2.9c-1.1,2.3-1.9,4.9-2.5,7.4
		c-0.3,1.4-0.5,2.8-0.9,4.2c-0.3,1-0.5,2.1-0.8,3.1c-0.4,1.2-1,2.2-1.3,3.4c-0.6,1.9-1.1,3.9-1.6,5.8C4.3,96.8,4,97.7,4,98.9
		c0,2.8-0.3,5.7,0,8.5c0.3,2.4,0.9,4.8,1.3,7.3c0.5,3.1,0.2,6.2,0.9,9.3c0.4,1.6,0.9,3.2,1.5,4.8c0.5,1.3,0.7,2.7,1.1,4.1
		c0.8,2.9,1.9,5.8,2.7,8.8c0.5,1.6,0.7,3.3,1.2,4.8c0.3,1.1,0.9,2.1,1.3,3.2c0.2,0.7,0.3,1.6,0.6,2.3c0.3,0.6,0.8,1.2,1.2,1.8
		c0.7,1.1,1.3,2.3,1.9,3.5c3.9,7.5,7.9,15,13.1,21.7c3.9,5,8.4,9.6,13,14.1c5,5,9.8,9.5,16.2,12.6c5.8,2.9,12.1,4.7,18.5,6
		c0.6,0.1,1.3,0.4,1.9,0.4c0.7,0.1,1.4-0.1,2.1,0c0.7,0.2,1.3,0.8,2,1c1.2,0.4,2.4,0.7,3.6,1.2s2.5,0.8,3.8,1c1.2,0.2,2.5,0,3.7,0.1
		c2.4,0.2,4.6,0.8,7,1.1c1.1,0.2,2.1,0.6,3.2,0.7c1,0,2,0,3,0c2.1,0,4.1,0,6.2,0c1.9,0,3.9,0.2,5.8-0.3c2.1-0.6,4-2,6.1-2.6
		c2.3-0.6,4.3-1,6.4-2.1c2.8-1.5,5.5-3.5,8.5-4.6c1.8-0.7,3.4-1.6,5.1-2.6c1.7-1,3.5-1.9,5.2-3c1.6-1,3.3-1.8,5-2.6
		c1-0.5,2.2-0.9,3.1-1.5c1.1-0.7,2.1-1.7,3.1-2.5c2.6-2.1,5.5-3.9,8-6.1c2.4-2.2,4.5-4.6,6.8-6.9c0.8-0.8,1.7-1.3,2.4-2.2
		c0.8-1.1,1.7-1.9,2.6-2.9c1.6-1.7,3.2-3.1,5.1-4.5c1.7-1.2,3.3-2.4,4.7-3.9c1.4-1.6,2.2-3.3,3.4-5c1.3-1.7,2.1-3.7,3.4-5.4
		c1.2-1.8,1.5-3.9,2.4-5.8c0.8-1.6,1.1-3.6,2.1-5.1c0.5-0.7,0.7-1.5,1.2-2.2c0.5-0.8,0.9-1.4,1.3-2.2c1.3-3.3,1.7-6.8,2.9-10.1
		c1.3-3.4,2.1-6.9,2.5-10.6c0.2-1.4,0.2-2.8,0.3-4.2c0.1-0.7,0.4-1.3,0.4-2s0-1.3,0-2c0-1.6,0.3-3.3,0.4-4.9
		c0.1-1.2,0.3-2.3,0.5-3.4c0.6-2.7,0.1-5.3,0.1-8c0-0.4,0-0.8,0-1.2c0-0.5-0.2-0.9-0.3-1.3c-0.1-0.8,0-1.7,0-2.4
		c0-0.6-0.1-1-0.2-1.5c-0.1-0.4,0-0.9,0-1.3c-0.2-1-0.6-2-0.8-3c-0.1-0.7-0.3-1.3-0.2-2c0-0.7-0.1-1.1-0.2-1.7
		c-0.1-1-0.3-1.9-0.5-2.9c-0.2-1.3-0.6-2.5-0.5-3.8c0-0.4-0.1-0.6-0.2-1c-0.1-0.4,0-0.8,0-1.2c-0.3-1.3-0.7-2.6-1-3.9
		c-0.3-1.4-0.7-2.8-1.2-4.1c-0.2-0.4-0.2-0.8-0.4-1.2c-0.2-0.3-0.3-0.6-0.4-1c-0.2-0.8-0.4-1.6-0.6-2.4c-0.5-1.5-0.9-3-1.5-4.5
		c-0.4-1.1-0.7-2.4-1.1-3.5c-0.8-2.3-2-4.4-3.3-6.4c-3.9-5.8-8.4-11.9-14.1-16.1c-5.4-4-9.3-10-15.5-12.7
		C166.6,16.2,161.5,13.8,156.3,11.9z"/>
	
		<radialGradient id="SVGID_1_" cx="-1668.0858" cy="1258.8031" r="148.0951" gradientTransform="matrix(-0.9985 5.541819e-02 3.673461e-02 0.6618 -1704.9688 -631.6315)" gradientUnits="userSpaceOnUse">
		<stop  offset="4.759216e-02" style="stop-color:#FFFAFC"/>
		<stop  offset="0.1812" style="stop-color:#FFF7F8;stop-opacity:0.8597"/>
		<stop  offset="0.3182" style="stop-color:#FFEFEC;stop-opacity:0.7157"/>
		<stop  offset="0.4569" style="stop-color:#FFE2D7;stop-opacity:0.57"/>
		<stop  offset="0.5967" style="stop-color:#FFCFBB;stop-opacity:0.423"/>
		<stop  offset="0.7374" style="stop-color:#FFB795;stop-opacity:0.2752"/>
		<stop  offset="0.8769" style="stop-color:#FF9B69;stop-opacity:0.1287"/>
		<stop  offset="0.9994" style="stop-color:#FF7D3B;stop-opacity:0"/>
	</radialGradient>
	<path fill="url(#SVGID_1_)" d="M156.3,11.9c-2.4-0.9-4.9-1.2-7.5-1.6c-1.2-0.2-1.6-0.4-2.6-1c-0.9-0.6-2-0.4-3-0.5
		c-0.7,0-1.4-0.3-2.1-0.5c-0.7-0.2-1.4-0.5-2.1-0.6c-0.7-0.2-1.5,0.1-2.1-0.1c-0.7-0.2-0.9-0.4-1.7-0.4c-0.7,0-1.4,0-2.1,0
		c-1.4,0-2.6,0.1-4-0.5c-1-0.4-2-0.8-3-1.2c-1.6-0.7-3-1.6-4.7-1c-2,0.6-4,0.5-6.1,0.5c-0.6,0-1.2,0.1-1.7-0.2
		c-0.4-0.2-0.8-0.4-1.3-0.4c-0.6,0-1.1,0-1.7,0c-0.5,0-0.9,0.2-1.5,0.2c-0.7,0-1.3,0.1-2,0.2c-1.1,0.3-2.3,0.5-3.4,0.7
		C103,5.7,102.6,6,102,6c-1.4,0-2.6,0.3-3.9,0.2c-0.7,0-1.3,0.3-2,0.5c-0.4,0.1-0.6,0.1-1,0.3c-0.5,0.2-0.8,0.1-1.2,0.2
		c-0.4,0.1-0.6,0.2-1,0.3c-0.4,0-0.8-0.1-1.2,0c-0.6,0.1-1.3,0-1.8,0.3c-0.2,0.1-0.3,0.3-0.5,0.5c-0.6,0.5-1.6,0.6-2.3,0.8
		c-0.7,0.1-1.6,0-2.3,0.2c-0.3,0.1-0.6,0.5-0.9,0.7c-0.3,0.1-0.5,0.2-0.8,0.3c-0.5,0.2-1,0.4-1.5,0.5c-0.9,0.3-1.9,0.7-2.7,1.2
		c-2.1,1.3-4.7,2.4-7,3.3c-1.4,0.6-2.7,1.3-4.1,1.8c-1.6,0.6-3.2,0.9-4.7,1.7c-1.9,1-4.1,1.5-6.2,2.2c-1.9,0.7-3.4,2.1-5.1,3.1
		c-2,1.2-4,2.4-6.2,3c-1.9,0.5-3.7,2.3-5.3,3.4c-1.5,1-3.2,1.8-4.5,3.1c-0.6,0.6-1.2,1-1.9,1.4c-1.1,0.7-1.5,1.3-2.2,2.4
		c-1.1,1.8-2.5,3.6-3.9,5.2c-0.6,0.7-0.9,1.5-1.3,2.2c-0.7,1.3-1.7,2.4-2.3,3.8c-1.2,2.4-2.6,4.8-4,7.1c-0.6,1.1-1.2,2.1-1.8,3.2
		c-0.5,1-1.3,1.7-1.9,2.6c-0.6,0.8-0.7,1.8-1.3,2.6c-0.6,0.6-1.1,0.9-1.4,1.8c-0.3,1-0.5,1.9-1,2.9c-0.5,0.9-0.6,2-1.1,2.9
		c-1.1,2.3-1.9,4.9-2.5,7.4c-0.3,1.4-0.5,2.8-0.9,4.2c-0.3,1-0.5,2.1-0.8,3.1c-0.4,1.2-1,2.2-1.3,3.4c-0.6,1.9-1.1,3.9-1.6,5.8
		C4.3,96.8,4,97.7,4,98.9c0,2.8-0.3,5.7,0,8.5c0.3,2.4,0.9,4.8,1.3,7.3c0.5,3.1,0.2,6.2,0.9,9.3c0.4,1.6,0.9,3.2,1.5,4.8
		c0.5,1.3,0.7,2.7,1.1,4.1c0.8,2.9,1.9,5.8,2.7,8.8c0.5,1.6,0.7,3.3,1.2,4.8c0.3,1.1,0.9,2.1,1.3,3.2c0.2,0.7,0.3,1.6,0.6,2.3
		c0.3,0.6,0.8,1.2,1.2,1.8c0.7,1.1,1.3,2.3,1.9,3.5c3.9,7.5,7.9,15,13.1,21.7c3.9,5,8.4,9.6,13,14.1c5,5,9.8,9.5,16.2,12.6
		c5.8,2.9,12.1,4.7,18.5,6c0.6,0.1,1.3,0.4,1.9,0.4c0.7,0.1,1.4-0.1,2.1,0c0.7,0.2,1.3,0.8,2,1c1.2,0.4,2.4,0.7,3.6,1.2
		s2.5,0.8,3.8,1c1.2,0.2,2.5,0,3.7,0.1c2.4,0.2,4.6,0.8,7,1.1c1.1,0.2,2.1,0.6,3.2,0.7c1,0,2,0,3,0c2.1,0,4.1,0,6.2,0
		c1.9,0,3.9,0.2,5.8-0.3c2.1-0.6,4-2,6.1-2.6c2.3-0.6,4.3-1,6.4-2.1c2.8-1.5,5.5-3.5,8.5-4.6c1.8-0.7,3.4-1.6,5.1-2.6
		c1.7-1,3.5-1.9,5.2-3c1.6-1,3.3-1.8,5-2.6c1-0.5,2.2-0.9,3.1-1.5c1.1-0.7,2.1-1.7,3.1-2.5c2.6-2.1,5.5-3.9,8-6.1
		c2.4-2.2,4.5-4.6,6.8-6.9c0.8-0.8,1.7-1.3,2.4-2.2c0.8-1.1,1.7-1.9,2.6-2.9c1.6-1.7,3.2-3.1,5.1-4.5c1.7-1.2,3.3-2.4,4.7-3.9
		c1.4-1.6,2.2-3.3,3.4-5c1.3-1.7,2.1-3.7,3.4-5.4c1.2-1.8,1.5-3.9,2.4-5.8c0.8-1.6,1.1-3.6,2.1-5.1c0.5-0.7,0.7-1.5,1.2-2.2
		c0.5-0.8,0.9-1.4,1.3-2.2c1.3-3.3,1.7-6.8,2.9-10.1c1.3-3.4,2.1-6.9,2.5-10.6c0.2-1.4,0.2-2.8,0.3-4.2c0.1-0.7,0.4-1.3,0.4-2
		s0-1.3,0-2c0-1.6,0.3-3.3,0.4-4.9c0.1-1.2,0.3-2.3,0.5-3.4c0.6-2.7,0.1-5.3,0.1-8c0-0.4,0-0.8,0-1.2c0-0.5-0.2-0.9-0.3-1.3
		c-0.1-0.8,0-1.7,0-2.4c0-0.6-0.1-1-0.2-1.5c-0.1-0.4,0-0.9,0-1.3c-0.2-1-0.6-2-0.8-3c-0.1-0.7-0.3-1.3-0.2-2c0-0.7-0.1-1.1-0.2-1.7
		c-0.1-1-0.3-1.9-0.5-2.9c-0.2-1.3-0.6-2.5-0.5-3.8c0-0.4-0.1-0.6-0.2-1c-0.1-0.4,0-0.8,0-1.2c-0.3-1.3-0.7-2.6-1-3.9
		c-0.3-1.4-0.7-2.8-1.2-4.1c-0.2-0.4-0.2-0.8-0.4-1.2c-0.2-0.3-0.3-0.6-0.4-1c-0.2-0.8-0.4-1.6-0.6-2.4c-0.5-1.5-0.9-3-1.5-4.5
		c-0.4-1.1-0.7-2.4-1.1-3.5c-0.8-2.3-2-4.4-3.3-6.4c-3.9-5.8-8.4-11.9-14.1-16.1c-5.4-4-9.3-10-15.5-12.7
		C166.6,16.2,161.5,13.8,156.3,11.9z"/>
	
		<radialGradient id="SVGID_2_" cx="247.9705" cy="20.0404" r="201.6887" gradientTransform="matrix(1 0 0 -1 0 224)" gradientUnits="userSpaceOnUse">
		<stop  offset="0.2922" style="stop-color:#FFB5D9"/>
		<stop  offset="0.4317" style="stop-color:#FFA6AF;stop-opacity:0.8028"/>
		<stop  offset="0.6184" style="stop-color:#FF957D;stop-opacity:0.5391"/>
		<stop  offset="0.7822" style="stop-color:#FF8859;stop-opacity:0.3077"/>
		<stop  offset="0.9149" style="stop-color:#FF8043;stop-opacity:0.1202"/>
		<stop  offset="1" style="stop-color:#FF7D3B;stop-opacity:0"/>
	</radialGradient>
	<path fill="url(#SVGID_2_)" d="M156.3,11.9c-2.4-0.9-4.9-1.2-7.5-1.6c-1.2-0.2-1.6-0.4-2.6-1c-0.9-0.6-2-0.4-3-0.5
		c-0.7,0-1.4-0.3-2.1-0.5c-0.7-0.2-1.4-0.5-2.1-0.6c-0.7-0.2-1.5,0.1-2.1-0.1c-0.7-0.2-0.9-0.4-1.7-0.4c-0.7,0-1.4,0-2.1,0
		c-1.4,0-2.6,0.1-4-0.5c-1-0.4-2-0.8-3-1.2c-1.6-0.7-3-1.6-4.7-1c-2,0.6-4,0.5-6.1,0.5c-0.6,0-1.2,0.1-1.7-0.2
		c-0.4-0.2-0.8-0.4-1.3-0.4c-0.6,0-1.1,0-1.7,0c-0.5,0-0.9,0.2-1.5,0.2c-0.7,0-1.3,0.1-2,0.2c-1.1,0.3-2.3,0.5-3.4,0.7
		C103,5.7,102.6,6,102,6c-1.4,0-2.6,0.3-3.9,0.2c-0.7,0-1.3,0.3-2,0.5c-0.4,0.1-0.6,0.1-1,0.3c-0.5,0.2-0.8,0.1-1.2,0.2
		c-0.4,0.1-0.6,0.2-1,0.3c-0.4,0-0.8-0.1-1.2,0c-0.6,0.1-1.3,0-1.8,0.3c-0.2,0.1-0.3,0.3-0.5,0.5c-0.6,0.5-1.6,0.6-2.3,0.8
		c-0.7,0.1-1.6,0-2.3,0.2c-0.3,0.1-0.6,0.5-0.9,0.7c-0.3,0.1-0.5,0.2-0.8,0.3c-0.5,0.2-1,0.4-1.5,0.5c-0.9,0.3-1.9,0.7-2.7,1.2
		c-2.1,1.3-4.7,2.4-7,3.3c-1.4,0.6-2.7,1.3-4.1,1.8c-1.6,0.6-3.2,0.9-4.7,1.7c-1.9,1-4.1,1.5-6.2,2.2c-1.9,0.7-3.4,2.1-5.1,3.1
		c-2,1.2-4,2.4-6.2,3c-1.9,0.5-3.7,2.3-5.3,3.4c-1.5,1-3.2,1.8-4.5,3.1c-0.6,0.6-1.2,1-1.9,1.4c-1.1,0.7-1.5,1.3-2.2,2.4
		c-1.1,1.8-2.5,3.6-3.9,5.2c-0.6,0.7-0.9,1.5-1.3,2.2c-0.7,1.3-1.7,2.4-2.3,3.8c-1.2,2.4-2.6,4.8-4,7.1c-0.6,1.1-1.2,2.1-1.8,3.2
		c-0.5,1-1.3,1.7-1.9,2.6c-0.6,0.8-0.7,1.8-1.3,2.6c-0.6,0.6-1.1,0.9-1.4,1.8c-0.3,1-0.5,1.9-1,2.9c-0.5,0.9-0.6,2-1.1,2.9
		c-1.1,2.3-1.9,4.9-2.5,7.4c-0.3,1.4-0.5,2.8-0.9,4.2c-0.3,1-0.5,2.1-0.8,3.1c-0.4,1.2-1,2.2-1.3,3.4c-0.6,1.9-1.1,3.9-1.6,5.8
		C4.3,96.8,4,97.7,4,98.9c0,2.8-0.3,5.7,0,8.5c0.3,2.4,0.9,4.8,1.3,7.3c0.5,3.1,0.2,6.2,0.9,9.3c0.4,1.6,0.9,3.2,1.5,4.8
		c0.5,1.3,0.7,2.7,1.1,4.1c0.8,2.9,1.9,5.8,2.7,8.8c0.5,1.6,0.7,3.3,1.2,4.8c0.3,1.1,0.9,2.1,1.3,3.2c0.2,0.7,0.3,1.6,0.6,2.3
		c0.3,0.6,0.8,1.2,1.2,1.8c0.7,1.1,1.3,2.3,1.9,3.5c3.9,7.5,7.9,15,13.1,21.7c3.9,5,8.4,9.6,13,14.1c5,5,9.8,9.5,16.2,12.6
		c5.8,2.9,12.1,4.7,18.5,6c0.6,0.1,1.3,0.4,1.9,0.4c0.7,0.1,1.4-0.1,2.1,0c0.7,0.2,1.3,0.8,2,1c1.2,0.4,2.4,0.7,3.6,1.2
		s2.5,0.8,3.8,1c1.2,0.2,2.5,0,3.7,0.1c2.4,0.2,4.6,0.8,7,1.1c1.1,0.2,2.1,0.6,3.2,0.7c1,0,2,0,3,0c2.1,0,4.1,0,6.2,0
		c1.9,0,3.9,0.2,5.8-0.3c2.1-0.6,4-2,6.1-2.6c2.3-0.6,4.3-1,6.4-2.1c2.8-1.5,5.5-3.5,8.5-4.6c1.8-0.7,3.4-1.6,5.1-2.6
		c1.7-1,3.5-1.9,5.2-3c1.6-1,3.3-1.8,5-2.6c1-0.5,2.2-0.9,3.1-1.5c1.1-0.7,2.1-1.7,3.1-2.5c2.6-2.1,5.5-3.9,8-6.1
		c2.4-2.2,4.5-4.6,6.8-6.9c0.8-0.8,1.7-1.3,2.4-2.2c0.8-1.1,1.7-1.9,2.6-2.9c1.6-1.7,3.2-3.1,5.1-4.5c1.7-1.2,3.3-2.4,4.7-3.9
		c1.4-1.6,2.2-3.3,3.4-5c1.3-1.7,2.1-3.7,3.4-5.4c1.2-1.8,1.5-3.9,2.4-5.8c0.8-1.6,1.1-3.6,2.1-5.1c0.5-0.7,0.7-1.5,1.2-2.2
		c0.5-0.8,0.9-1.4,1.3-2.2c1.3-3.3,1.7-6.8,2.9-10.1c1.3-3.4,2.1-6.9,2.5-10.6c0.2-1.4,0.2-2.8,0.3-4.2c0.1-0.7,0.4-1.3,0.4-2
		s0-1.3,0-2c0-1.6,0.3-3.3,0.4-4.9c0.1-1.2,0.3-2.3,0.5-3.4c0.6-2.7,0.1-5.3,0.1-8c0-0.4,0-0.8,0-1.2c0-0.5-0.2-0.9-0.3-1.3
		c-0.1-0.8,0-1.7,0-2.4c0-0.6-0.1-1-0.2-1.5c-0.1-0.4,0-0.9,0-1.3c-0.2-1-0.6-2-0.8-3c-0.1-0.7-0.3-1.3-0.2-2c0-0.7-0.1-1.1-0.2-1.7
		c-0.1-1-0.3-1.9-0.5-2.9c-0.2-1.3-0.6-2.5-0.5-3.8c0-0.4-0.1-0.6-0.2-1c-0.1-0.4,0-0.8,0-1.2c-0.3-1.3-0.7-2.6-1-3.9
		c-0.3-1.4-0.7-2.8-1.2-4.1c-0.2-0.4-0.2-0.8-0.4-1.2c-0.2-0.3-0.3-0.6-0.4-1c-0.2-0.8-0.4-1.6-0.6-2.4c-0.5-1.5-0.9-3-1.5-4.5
		c-0.4-1.1-0.7-2.4-1.1-3.5c-0.8-2.3-2-4.4-3.3-6.4c-3.9-5.8-8.4-11.9-14.1-16.1c-5.4-4-9.3-10-15.5-12.7
		C166.6,16.2,161.5,13.8,156.3,11.9z"/>
	<path fill="none" stroke="#FEFDEF" stroke-width="2" stroke-linejoin="round" stroke-miterlimit="10" d="M98.7,23.1
		c-0.8,0.2-1.5,0.4-2.3,0.7c-0.5,0.1-1,0-1.5,0.1c-0.4,0.1-0.6,0.3-1.1,0.4c-1.7,0.2-3.5-0.3-5.1,0.2c-0.4,0.1-0.8,0.5-1.3,0.5
		c-0.4,0.1-0.8,0-1.3,0.1c-0.8,0.2-1.6,0.3-2.3,0.7C82.9,26.3,82,26.7,81,27c-0.5,0.2-1.1,0.3-1.5,0.5s-0.8,0.6-1.3,0.9
		c-1,0.7-1.8,1.3-3,1.7c-0.9,0.3-1.6,0.8-2.4,1.4c-0.6,0.4-1.2,1-1.9,1.4c-0.7,0.4-1.4,0.5-2.1,0.9c-1.3,0.8-2.5,1.9-4,2.4
		c-2.4,0.8-4.5,2.4-6.8,3.4c-2,0.8-3.9,1.8-5.6,3.1c-0.6,0.5-1.5,0.6-2.1,1.1s-1.2,1.1-1.7,1.7c-1.4,1.3-2.6,2.7-3.9,4
		c-1,0.9-2.1,1.8-3,2.7c-1.2,1.2-2.1,2.7-3.3,3.9c-0.5,0.6-1,0.8-1.5,1.5c-0.6,0.9-1.1,1.8-1.7,2.6c-1.2,1.4-2.6,3.1-3.4,4.7
		c-1,2.1-2,4.2-3,6.3c-0.8,1.6-1.4,3.2-1.9,4.9c-0.3,1.2-0.9,2.2-1.6,3.3c-0.6,1-0.9,1.9-1.1,3c-0.5,1.9-1.1,3.7-1.6,5.6
		c-0.5,1.8-0.5,3.6-0.8,5.5c-0.3,2-0.2,3.9-0.5,5.9c-0.6,4.2-0.8,8.9,0.1,13.1c0.5,2.3,1,4.8,1.9,7c0.9,2.3,1.5,4.6,2.2,7
		c0.7,2.5,1.8,4.8,2.5,7.3c0.5,2,1.6,3.7,2.7,5.4c1.6,2.5,2.6,5.6,3.8,8.4c0.4,1,1,1.9,1.6,2.8c1.5,2.4,2.2,5.3,3,7.9
		c0.4,1.3,1.1,2.1,1.7,3.3c0.5,1,0.6,2.1,1.1,3.1c0.7,1.5,1.5,2.6,2.7,3.8c0.9,1,1.4,2.4,2.1,3.5c0.6,1,1.3,1.9,1.9,2.8
		c1.3,2,2.1,4,3.7,5.8c1.7,1.9,2.6,4.6,4.5,6.2c1.7,1.5,3.9,2.4,5.6,3.8c2.1,1.6,4.6,2.9,7,4.1c2,1,4.1,1.9,6.3,2.6
		c1.8,0.6,3.5,0.6,5.3,1.1c2.2,0.7,3.8,0.9,6.1,0.9c2.9,0,5.8,0.2,8.7,0c2.1-0.1,4.1-0.8,6.2-0.8c0.9,0,1.7,0.3,2.5,0.5
		c2.4,0.5,5.5-0.4,7.7-1.3c1.5-0.6,3.2-0.4,4.8-0.4c1.5,0,3.1-0.2,4.6-0.8c1.4-0.5,2.5-1.2,4-1.6c3-0.8,6.2-1.2,9.1-2.6
		c3.2-1.5,6.3-2.8,9.8-3.5c1.6-0.3,3.6-1,5-1.9c0.9-0.6,1.5-1.4,2.2-2.2c0.8-0.8,1.7-1.5,2.6-2.2c3.8-2.9,7.5-5.9,10.7-9.5
		c1.2-1.3,2.7-2.4,3.9-3.8c1.3-1.4,2.7-2.6,3.9-4c0.9-1,1.8-2.2,2.8-3.1c1.1-0.9,2.2-1.6,3.2-2.6s2-2.1,2.9-3.2
		c0.5-0.7,0.9-1.5,1.6-2.1c0.7-0.7,1.7-1,2.5-1.6c2.4-1.9,4.4-5.2,5.7-8c0.6-1.3,1.1-2.6,1.5-4s1.1-2.6,1.5-4c0.3-1,0.6-2,0.9-2.9
		c0.3-0.7,0.6-1.1,0.6-1.9c0.1-0.6,0.1-1.1,0.2-1.8c0.6-2.8,1.1-5.5,1.1-8.4c-0.1-4.4-0.2-8.7-0.2-13.1c0-1.1-0.4-2.1-0.4-3.2
		c0-1.4-0.3-2.7-0.4-4.1c-0.1-1.2-0.7-2.3-0.8-3.5c0-0.5,0.1-0.9,0-1.4c-0.1-0.7-0.4-1.3-0.4-2.1c0-1,0.1-2-0.1-3
		c-0.2-0.9-0.4-1.8-0.6-2.7c-0.4-1.7-0.5-3.4-1-5.1c-0.4-1.5-0.8-2.8-0.7-4.3c0.2-2.8-0.8-5.3-2.2-7.8c-0.6-1.1-0.9-2.3-1.3-3.4
		c-0.4-0.9-1-1.8-1.2-2.7c-0.3-1-0.6-2-1.1-2.9c-0.4-0.9-1.1-1.6-1.6-2.4c-0.5-0.9-1.1-1.8-1.7-2.6c-0.5-0.8-1-1.6-1.7-2.2
		c-2.9-2.3-5-5.3-7.6-8c-1.7-1.7-3.7-3.4-5.1-5.4c-2.4-3.4-5-6.6-8.3-9.3c-1.4-1.1-3.3-2.1-5-2.9c-1.6-0.8-3.3-1.1-4.9-1.9
		c-1.9-0.9-4.1-1.1-6.1-1.5c-2.1-0.4-4.2-0.9-6.3-1.2c-1.8-0.3-3.6-0.5-5.4-0.5c-0.9,0-1.9,0.1-2.9,0c-1.3,0-2.5-0.5-3.8-0.5
		s-2.6-0.1-3.9-0.1c-1.7-0.1-3.3,0.3-5,0.6c-1.9,0.4-3.6,0.1-5.4-0.5c-1.3-0.5-2.5-1.1-3.8-1.5c-1.2-0.4-2.4-0.2-3.7-0.2
		c-1,0-2,0-2.9,0.2c-0.5,0.2-0.9,0.1-1.4,0.2C99.7,22.7,99.3,23,98.7,23.1C98.8,23.1,98.8,23.1,98.7,23.1z"/>
</g>
<g id="мелочь">
</g>
<g id="персонажи_ок">
</g>
</svg>
