<?xml version="1.0" encoding="utf-8"?>
<!-- Generator: Adobe Illustrator 24.3.0, SVG Export Plug-In . SVG Version: 6.00 Build 0)  -->
<svg version="1.1" id="Layer_1" xmlns="http://www.w3.org/2000/svg" xmlns:xlink="http://www.w3.org/1999/xlink" x="0px" y="0px"
	 width="222px" height="206.6px" viewBox="0 0 222 206.6" enable-background="new 0 0 222 206.6" xml:space="preserve">
<g id="босх_снежки_кружки">
</g>
<g id="босх_челики">
</g>
<g id="рефы">
</g>
<g id="эскиз">
</g>
<g id="низ">
</g>
<g id="пятна">
</g>
<g id="снежки">
</g>
<g id="снежки_шарики">
	<path fill="#2879F9" d="M90,10.2c-3.5-0.2-7.1-0.5-10.4,0.6c-1.2,0.4-2.3,1.2-3.4,1.9c-5.4,3.1-11.8,4.7-17.5,7.2
		c-4.2,1.8-7.5,4-11.3,6.4c-3.3,2.1-6.9,3.5-10,6c-5,4-10.6,7.9-14.1,13.4c-3.1,4.9-5.6,10.2-8,15.4c-0.9,2-2.4,4.3-2.9,6.4
		c-0.3,1.4,0,2.5,0,3.8c-0.1,2.8-0.8,5.7-0.9,8.5c-0.2,3.7-1.2,7.2-1.6,10.8c-0.4,4.1-0.9,8.2-1.5,12.2c-0.8,5.6,0.5,11.3-0.1,16.9
		c-0.5,4.2-1.7,8.1-1.7,12.4c0,4.2,0.4,8,1.6,12c0.8,2.5,1.5,4.4,2.5,6.8c1.1,2.5,2.6,4.9,3.7,7.5c0.9,1.9,1.3,4.1,2.3,6
		c1.1,2.2,3,4.1,4.4,6.1c3.6,4.9,7.9,9.4,12.3,13.6c1.9,1.8,4.4,2.9,6.5,4.5c3.4,2.6,5.8,4.5,10.2,5.1c3,0.4,6.1,0,9.1,0.1
		c4.5,0.2,8.8,0.9,13.3,0.9c6.3,0,12.4,1.5,18.7,1.7c6.8,0.2,13,2,19.7,2.9c2.6,0.4,5,1.1,7.5,1.5c1.8,0.3,3.8,0.1,5.7,0.1
		c3.8,0,7.7-0.1,11.4-0.8c4.9-0.9,9.7-1.4,14.5-2.8c3-0.9,5.9-0.5,8.8-1.6c2.1-0.7,4.1-1.3,6.3-1.9c1.9-0.5,2.7-1.9,4.2-3
		c1.6-1.3,3.8-1.4,5.3-2.8c1.8-1.6,3.4-3.2,5.9-3.5c1.1-0.1,1.5,0.1,2.5-0.6c1-0.7,1.9-1.8,2.9-2.5c3.7-2.8,5.2-6.8,8-10.4
		c1.6-2.2,3-4.5,4.8-6.5c2.8-3.1,5.7-5.9,8-9.3c1.8-2.6,3.5-5.3,5.2-8c3.6-5.9,3-13.6,4.1-20.2c1.4-8,0.4-16.7-2.7-24.3
		c-1.5-3.8-1.9-7.9-3.1-11.8c-0.7-2.2-1.8-4.1-2.2-6.3c-0.5-2.6-1.1-5.2-1.9-7.7c-0.7-2.2-0.9-4.1-1.3-6.3c-0.4-2.4-2.2-4.7-2.5-7.2
		c-0.4-3.3-1.1-6.8-3-9.7c-0.9-1.4-1.3-3.2-2-4.7c-0.8-1.7-1.8-3-2.7-4.6c-0.7-1.1-1.3-2.4-1.7-3.6c-0.5-1.6-1.5-3.1-2.4-4.7
		c-1.6-3.2-3.6-6.4-5.6-9.4c-1.3-1.9-2-4.2-3.6-5.9c-0.7-0.7-1.6-1.1-2.2-1.7c-0.7-0.7-1-1.7-1.7-2.4c-1.2-1.3-2.9-2.2-4.3-3.3
		c-1.5-1.3-3.5-1.2-5.3-1.6c-2.2-0.5-4-2.3-6.1-3c-2.3-0.8-4.9-1-7.2-1.5c-2.4-0.5-4.9,0-7.2-0.6c-2.1-0.6-3.4-1.5-5.8-1.2
		c-2.1,0.3-4,1.6-6.1,1.9c-1.7,0.3-6.2,2.4-7.6,2.4c-1.8-0.1-3.9,0.5-5.7,0.5c-2,0.1-4,0-6-0.1c-3-0.1-6-0.3-8.9-0.3
		c-4.9,0-9.7,0.2-14.6,0.1C91.8,10.3,90.9,10.2,90,10.2z"/>
	
		<radialGradient id="SVGID_1_" cx="225.3007" cy="187.9589" r="168.8391" gradientTransform="matrix(1 0 0 -1 0 208)" gradientUnits="userSpaceOnUse">
		<stop  offset="0.1659" style="stop-color:#1C5935"/>
		<stop  offset="0.9969" style="stop-color:#2879F9;stop-opacity:0"/>
	</radialGradient>
	<path fill="url(#SVGID_1_)" d="M90,10.2c-3.5-0.2-7.1-0.5-10.4,0.6c-1.2,0.4-2.3,1.2-3.4,1.9c-5.4,3.1-11.8,4.7-17.5,7.2
		c-4.2,1.8-7.5,4-11.3,6.4c-3.3,2.1-6.9,3.5-10,6c-5,4-10.6,7.9-14.1,13.4c-3.1,4.9-5.6,10.2-8,15.4c-0.9,2-2.4,4.3-2.9,6.4
		c-0.3,1.4,0,2.5,0,3.8c-0.1,2.8-0.8,5.7-0.9,8.5c-0.2,3.7-1.2,7.2-1.6,10.8c-0.4,4.1-0.9,8.2-1.5,12.2c-0.8,5.6,0.5,11.3-0.1,16.9
		c-0.5,4.2-1.7,8.1-1.7,12.4c0,4.2,0.4,8,1.6,12c0.8,2.5,1.5,4.4,2.5,6.8c1.1,2.5,2.6,4.9,3.7,7.5c0.9,1.9,1.3,4.1,2.3,6
		c1.1,2.2,3,4.1,4.4,6.1c3.6,4.9,7.9,9.4,12.3,13.6c1.9,1.8,4.4,2.9,6.5,4.5c3.4,2.6,5.8,4.5,10.2,5.1c3,0.4,6.1,0,9.1,0.1
		c4.5,0.2,8.8,0.9,13.3,0.9c6.3,0,12.4,1.5,18.7,1.7c6.8,0.2,13,2,19.7,2.9c2.6,0.4,5,1.1,7.5,1.5c1.8,0.3,3.8,0.1,5.7,0.1
		c3.8,0,7.7-0.1,11.4-0.8c4.9-0.9,9.7-1.4,14.5-2.8c3-0.9,5.9-0.5,8.8-1.6c2.1-0.7,4.1-1.3,6.3-1.9c1.9-0.5,2.7-1.9,4.2-3
		c1.6-1.3,3.8-1.4,5.3-2.8c1.8-1.6,3.4-3.2,5.9-3.5c1.1-0.1,1.5,0.1,2.5-0.6c1-0.7,1.9-1.8,2.9-2.5c3.7-2.8,5.2-6.8,8-10.4
		c1.6-2.2,3-4.5,4.8-6.5c2.8-3.1,5.7-5.9,8-9.3c1.8-2.6,3.5-5.3,5.2-8c3.6-5.9,3-13.6,4.1-20.2c1.4-8,0.4-16.7-2.7-24.3
		c-1.5-3.8-1.9-7.9-3.1-11.8c-0.7-2.2-1.8-4.1-2.2-6.3c-0.5-2.6-1.1-5.2-1.9-7.7c-0.7-2.2-0.9-4.1-1.3-6.3c-0.4-2.4-2.2-4.7-2.5-7.2
		c-0.4-3.3-1.1-6.8-3-9.7c-0.9-1.4-1.3-3.2-2-4.7c-0.8-1.7-1.8-3-2.7-4.6c-0.7-1.1-1.3-2.4-1.7-3.6c-0.5-1.6-1.5-3.1-2.4-4.7
		c-1.6-3.2-3.6-6.4-5.6-9.4c-1.3-1.9-2-4.2-3.6-5.9c-0.7-0.7-1.6-1.1-2.2-1.7c-0.7-0.7-1-1.7-1.7-2.4c-1.2-1.3-2.9-2.2-4.3-3.3
		c-1.5-1.3-3.5-1.2-5.3-1.6c-2.2-0.5-4-2.3-6.1-3c-2.3-0.8-4.9-1-7.2-1.5c-2.4-0.5-4.9,0-7.2-0.6c-2.1-0.6-3.4-1.5-5.8-1.2
		c-2.1,0.3-4,1.6-6.1,1.9c-1.7,0.3-6.2,2.4-7.6,2.4c-1.8-0.1-3.9,0.5-5.7,0.5c-2,0.1-4,0-6-0.1c-3-0.1-6-0.3-8.9-0.3
		c-4.9,0-9.7,0.2-14.6,0.1C91.8,10.3,90.9,10.2,90,10.2z"/>
	
		<radialGradient id="SVGID_2_" cx="-27.7228" cy="168.3044" r="186.619" gradientTransform="matrix(1 0 0 -1 0 208)" gradientUnits="userSpaceOnUse">
		<stop  offset="0.1659" style="stop-color:#1C5935"/>
		<stop  offset="0.9969" style="stop-color:#2879F9;stop-opacity:0"/>
	</radialGradient>
	<path fill="url(#SVGID_2_)" d="M90,10.2c-3.5-0.2-7.1-0.5-10.4,0.6c-1.2,0.4-2.3,1.2-3.4,1.9c-5.4,3.1-11.8,4.7-17.5,7.2
		c-4.2,1.8-7.5,4-11.3,6.4c-3.3,2.1-6.9,3.5-10,6c-5,4-10.6,7.9-14.1,13.4c-3.1,4.9-5.6,10.2-8,15.4c-0.9,2-2.4,4.3-2.9,6.4
		c-0.3,1.4,0,2.5,0,3.8c-0.1,2.8-0.8,5.7-0.9,8.5c-0.2,3.7-1.2,7.2-1.6,10.8c-0.4,4.1-0.9,8.2-1.5,12.2c-0.8,5.6,0.5,11.3-0.1,16.9
		c-0.5,4.2-1.7,8.1-1.7,12.4c0,4.2,0.4,8,1.6,12c0.8,2.5,1.5,4.4,2.5,6.8c1.1,2.5,2.6,4.9,3.7,7.5c0.9,1.9,1.3,4.1,2.3,6
		c1.1,2.2,3,4.1,4.4,6.1c3.6,4.9,7.9,9.4,12.3,13.6c1.9,1.8,4.4,2.9,6.5,4.5c3.4,2.6,5.8,4.5,10.2,5.1c3,0.4,6.1,0,9.1,0.1
		c4.5,0.2,8.8,0.9,13.3,0.9c6.3,0,12.4,1.5,18.7,1.7c6.8,0.2,13,2,19.7,2.9c2.6,0.4,5,1.1,7.5,1.5c1.8,0.3,3.8,0.1,5.7,0.1
		c3.8,0,7.7-0.1,11.4-0.8c4.9-0.9,9.7-1.4,14.5-2.8c3-0.9,5.9-0.5,8.8-1.6c2.1-0.7,4.1-1.3,6.3-1.9c1.9-0.5,2.7-1.9,4.2-3
		c1.6-1.3,3.8-1.4,5.3-2.8c1.8-1.6,3.4-3.2,5.9-3.5c1.1-0.1,1.5,0.1,2.5-0.6c1-0.7,1.9-1.8,2.9-2.5c3.7-2.8,5.2-6.8,8-10.4
		c1.6-2.2,3-4.5,4.8-6.5c2.8-3.1,5.7-5.9,8-9.3c1.8-2.6,3.5-5.3,5.2-8c3.6-5.9,3-13.6,4.1-20.2c1.4-8,0.4-16.7-2.7-24.3
		c-1.5-3.8-1.9-7.9-3.1-11.8c-0.7-2.2-1.8-4.1-2.2-6.3c-0.5-2.6-1.1-5.2-1.9-7.7c-0.7-2.2-0.9-4.1-1.3-6.3c-0.4-2.4-2.2-4.7-2.5-7.2
		c-0.4-3.3-1.1-6.8-3-9.7c-0.9-1.4-1.3-3.2-2-4.7c-0.8-1.7-1.8-3-2.7-4.6c-0.7-1.1-1.3-2.4-1.7-3.6c-0.5-1.6-1.5-3.1-2.4-4.7
		c-1.6-3.2-3.6-6.4-5.6-9.4c-1.3-1.9-2-4.2-3.6-5.9c-0.7-0.7-1.6-1.1-2.2-1.7c-0.7-0.7-1-1.7-1.7-2.4c-1.2-1.3-2.9-2.2-4.3-3.3
		c-1.5-1.3-3.5-1.2-5.3-1.6c-2.2-0.5-4-2.3-6.1-3c-2.3-0.8-4.9-1-7.2-1.5c-2.4-0.5-4.9,0-7.2-0.6c-2.1-0.6-3.4-1.5-5.8-1.2
		c-2.1,0.3-4,1.6-6.1,1.9c-1.7,0.3-6.2,2.4-7.6,2.4c-1.8-0.1-3.9,0.5-5.7,0.5c-2,0.1-4,0-6-0.1c-3-0.1-6-0.3-8.9-0.3
		c-4.9,0-9.7,0.2-14.6,0.1C91.8,10.3,90.9,10.2,90,10.2z"/>
	
		<radialGradient id="SVGID_3_" cx="194.4764" cy="-9.7742" r="156.7676" gradientTransform="matrix(1 0 0 -1 0 208)" gradientUnits="userSpaceOnUse">
		<stop  offset="0.1659" style="stop-color:#1C5935"/>
		<stop  offset="0.9969" style="stop-color:#2879F9;stop-opacity:0"/>
	</radialGradient>
	<path fill="url(#SVGID_3_)" d="M90,10.2c-3.5-0.2-7.1-0.5-10.4,0.6c-1.2,0.4-2.3,1.2-3.4,1.9c-5.4,3.1-11.8,4.7-17.5,7.2
		c-4.2,1.8-7.5,4-11.3,6.4c-3.3,2.1-6.9,3.5-10,6c-5,4-10.6,7.9-14.1,13.4c-3.1,4.9-5.6,10.2-8,15.4c-0.9,2-2.4,4.3-2.9,6.4
		c-0.3,1.4,0,2.5,0,3.8c-0.1,2.8-0.8,5.7-0.9,8.5c-0.2,3.7-1.2,7.2-1.6,10.8c-0.4,4.1-0.9,8.2-1.5,12.2c-0.8,5.6,0.5,11.3-0.1,16.9
		c-0.5,4.2-1.7,8.1-1.7,12.4c0,4.2,0.4,8,1.6,12c0.8,2.5,1.5,4.4,2.5,6.8c1.1,2.5,2.6,4.9,3.7,7.5c0.9,1.9,1.3,4.1,2.3,6
		c1.1,2.2,3,4.1,4.4,6.1c3.6,4.9,7.9,9.4,12.3,13.6c1.9,1.8,4.4,2.9,6.5,4.5c3.4,2.6,5.8,4.5,10.2,5.1c3,0.4,6.1,0,9.1,0.1
		c4.5,0.2,8.8,0.9,13.3,0.9c6.3,0,12.4,1.5,18.7,1.7c6.8,0.2,13,2,19.7,2.9c2.6,0.4,5,1.1,7.5,1.5c1.8,0.3,3.8,0.1,5.7,0.1
		c3.8,0,7.7-0.1,11.4-0.8c4.9-0.9,9.7-1.4,14.5-2.8c3-0.9,5.9-0.5,8.8-1.6c2.1-0.7,4.1-1.3,6.3-1.9c1.9-0.5,2.7-1.9,4.2-3
		c1.6-1.3,3.8-1.4,5.3-2.8c1.8-1.6,3.4-3.2,5.9-3.5c1.1-0.1,1.5,0.1,2.5-0.6c1-0.7,1.9-1.8,2.9-2.5c3.7-2.8,5.2-6.8,8-10.4
		c1.6-2.2,3-4.5,4.8-6.5c2.8-3.1,5.7-5.9,8-9.3c1.8-2.6,3.5-5.3,5.2-8c3.6-5.9,3-13.6,4.1-20.2c1.4-8,0.4-16.7-2.7-24.3
		c-1.5-3.8-1.9-7.9-3.1-11.8c-0.7-2.2-1.8-4.1-2.2-6.3c-0.5-2.6-1.1-5.2-1.9-7.7c-0.7-2.2-0.9-4.1-1.3-6.3c-0.4-2.4-2.2-4.7-2.5-7.2
		c-0.4-3.3-1.1-6.8-3-9.7c-0.9-1.4-1.3-3.2-2-4.7c-0.8-1.7-1.8-3-2.7-4.6c-0.7-1.1-1.3-2.4-1.7-3.6c-0.5-1.6-1.5-3.1-2.4-4.7
		c-1.6-3.2-3.6-6.4-5.6-9.4c-1.3-1.9-2-4.2-3.6-5.9c-0.7-0.7-1.6-1.1-2.2-1.7c-0.7-0.7-1-1.7-1.7-2.4c-1.2-1.3-2.9-2.2-4.3-3.3
		c-1.5-1.3-3.5-1.2-5.3-1.6c-2.2-0.5-4-2.3-6.1-3c-2.3-0.8-4.9-1-7.2-1.5c-2.4-0.5-4.9,0-7.2-0.6c-2.1-0.6-3.4-1.5-5.8-1.2
		c-2.1,0.3-4,1.6-6.1,1.9c-1.7,0.3-6.2,2.4-7.6,2.4c-1.8-0.1-3.9,0.5-5.7,0.5c-2,0.1-4,0-6-0.1c-3-0.1-6-0.3-8.9-0.3
		c-4.9,0-9.7,0.2-14.6,0.1C91.8,10.3,90.9,10.2,90,10.2z"/>
	<path fill="none" stroke="#FF7D3B" stroke-width="3" stroke-miterlimit="10" d="M90,10.2c-3.5-0.2-7.1-0.5-10.4,0.6
		c-1.2,0.4-2.3,1.2-3.4,1.9c-5.4,3.1-11.8,4.7-17.5,7.2c-4.2,1.8-7.5,4-11.3,6.4c-3.3,2.1-6.9,3.5-10,6c-5,4-10.6,7.9-14.1,13.4
		c-3.1,4.9-5.6,10.2-8,15.4c-0.9,2-2.4,4.3-2.9,6.4c-0.3,1.4,0,2.5,0,3.8c-0.1,2.8-0.8,5.7-0.9,8.5c-0.2,3.7-1.2,7.2-1.6,10.8
		c-0.4,4.1-0.9,8.2-1.5,12.2c-0.8,5.6,0.5,11.3-0.1,16.9c-0.5,4.2-1.7,8.1-1.7,12.4c0,4.2,0.4,8,1.6,12c0.8,2.5,1.5,4.4,2.5,6.8
		c1.1,2.5,2.6,4.9,3.7,7.5c0.9,1.9,1.3,4.1,2.3,6c1.1,2.2,3,4.1,4.4,6.1c3.6,4.9,7.9,9.4,12.3,13.6c1.9,1.8,4.4,2.9,6.5,4.5
		c3.4,2.6,5.8,4.5,10.2,5.1c3,0.4,6.1,0,9.1,0.1c4.5,0.2,8.8,0.9,13.3,0.9c6.3,0,12.4,1.5,18.7,1.7c6.8,0.2,13,2,19.7,2.9
		c2.6,0.4,5,1.1,7.5,1.5c1.8,0.3,3.8,0.1,5.7,0.1c3.8,0,7.7-0.1,11.4-0.8c4.9-0.9,9.7-1.4,14.5-2.8c3-0.9,5.9-0.5,8.8-1.6
		c2.1-0.7,4.1-1.3,6.3-1.9c1.9-0.5,2.7-1.9,4.2-3c1.6-1.3,3.8-1.4,5.3-2.8c1.8-1.6,3.4-3.2,5.9-3.5c1.1-0.1,1.5,0.1,2.5-0.6
		c1-0.7,1.9-1.8,2.9-2.5c3.7-2.8,5.2-6.8,8-10.4c1.6-2.2,3-4.5,4.8-6.5c2.8-3.1,5.7-5.9,8-9.3c1.8-2.6,3.5-5.3,5.2-8
		c3.6-5.9,3-13.6,4.1-20.2c1.4-8,0.4-16.7-2.7-24.3c-1.5-3.8-1.9-7.9-3.1-11.8c-0.7-2.2-1.8-4.1-2.2-6.3c-0.5-2.6-1.1-5.2-1.9-7.7
		c-0.7-2.2-0.9-4.1-1.3-6.3c-0.4-2.4-2.2-4.7-2.5-7.2c-0.4-3.3-1.1-6.8-3-9.7c-0.9-1.4-1.3-3.2-2-4.7c-0.8-1.7-1.8-3-2.7-4.6
		c-0.7-1.1-1.3-2.4-1.7-3.6c-0.5-1.6-1.5-3.1-2.4-4.7c-1.6-3.2-3.6-6.4-5.6-9.4c-1.3-1.9-2-4.2-3.6-5.9c-0.7-0.7-1.6-1.1-2.2-1.7
		c-0.7-0.7-1-1.7-1.7-2.4c-1.2-1.3-2.9-2.2-4.3-3.3c-1.5-1.3-3.5-1.2-5.3-1.6c-2.2-0.5-4-2.3-6.1-3c-2.3-0.8-4.9-1-7.2-1.5
		c-2.4-0.5-4.9,0-7.2-0.6c-2.1-0.6-3.4-1.5-5.8-1.2c-2.1,0.3-4,1.6-6.1,1.9c-1.7,0.3-6.2,2.4-7.6,2.4c-1.8-0.1-3.9,0.5-5.7,0.5
		c-2,0.1-4,0-6-0.1c-3-0.1-6-0.3-8.9-0.3c-4.9,0-9.7,0.2-14.6,0.1C91.8,10.3,90.9,10.2,90,10.2z"/>
</g>
<g id="мелочь">
</g>
<g id="персонажи_ок">
</g>
</svg>
