<?xml version="1.0" encoding="utf-8"?>
<!-- Generator: Adobe Illustrator 24.3.0, SVG Export Plug-In . SVG Version: 6.00 Build 0)  -->
<svg version="1.1" id="Layer_1" xmlns="http://www.w3.org/2000/svg" xmlns:xlink="http://www.w3.org/1999/xlink" x="0px" y="0px"
	 width="228px" height="224.7px" viewBox="0 0 228 224.7" enable-background="new 0 0 228 224.7" xml:space="preserve">
<g id="a">
</g>
<g id="b">
</g>
<g id="c">
</g>
<g id="d">
</g>
<g id="e">
</g>
<g id="f">
</g>
<g id="g">
</g>
<g id="h">
	<path fill="#FEFDEF" d="M53.6,24.6c-1.1,0.6-2.1,1.3-3.2,2c-2,1.3-3.2,3.4-5,5c-2,1.7-2.9,3.3-4,5.8c-3.2,8.1-9.3,14.1-13.6,21.7
		c-2.5,4.4-4.5,9.2-6.7,13.8c-1.9,4.1-4.8,8.5-5.7,12.9c-0.7,3.4-1.1,6.8-2.2,10.2c-0.9,3-2.7,5.8-3,8.9c-0.8,6.6,0.5,13.3-0.7,19.8
		c-0.4,2.1-0.8,4-0.5,6.2c0.4,2.9,1.6,5.6,2.7,8.3c2.7,6.8,4.1,14,7,20.7c2.5,5.7,5.6,10.6,8,16.4c1.8,4.4,6,8.4,9.4,11.7
		c3.2,3.2,6.3,5.5,10.2,7.7c1.7,0.9,3.3,2,5.1,2.7c2.1,0.8,3.1,0.8,4.8,2.5c1.4,1.3,3.3,1.3,5,2.3c0.6,0.4,1.6,1.2,2.2,1.4
		c1.2,0.4,2.2,0.4,3.4,1s2.3,1.2,3.6,1.7c3.2,1.2,6.3,2.6,9.4,3.9c4,1.8,8.4,3.7,12.8,4.4c3.4,0.6,7.1,0.1,10.4,0.1
		c7.5,0,14.7,0.4,22-1.3c5.5-1.3,11.4-0.7,16.7-2.4c3.2-1,6.5-1.5,9.6-2.8s6.5-2.2,9.8-3.2c6.3-1.9,12.5-3.5,18.4-6.8
		c5.7-3.2,10.8-7.2,16.4-10.6c3.4-2.1,7.3-4.7,9.3-8.4c1.1-2.1,1.6-4.5,2.7-6.7c1.3-2.5,2.6-4.9,3.7-7.5c2.4-5.8,4.1-11.4,5.1-17.6
		c0.5-2.9,0.2-5.7,0.4-8.6c0.2-4.2,1.5-8.3,1.8-12.5c0.3-4,0.1-8.1,0.1-12.1c0-3.2,0.4-6.5-0.1-9.6c-0.6-3.5-1.4-6.8-1.9-10.3
		c-0.4-3.4-0.7-6.8-1.3-10.1c-2.1-10.6-7.1-20.6-12.6-29.9c-2.2-3.6-6.1-7.3-9.4-10c-3.3-2.7-5.8-5.7-9.2-8.4
		c-1.7-1.4-2.4-3-3.8-4.7c-1.2-1.3-2.7-2-4.1-3.2c-3.2-2.6-5.8-6-9.2-8.2c-1.6-1.1-3.2-2.4-5-3.2s-3.7-1.1-5.5-2
		c-2.8-1.4-5.7-3.1-8.9-3.5c-3.4-0.3-6.9,0-10.3,0s-5.9-0.4-9-1c-2.9-0.6-5.6-1.1-8.3-1.7c-2.5-0.6-4.7-0.9-7.3-0.9
		c-3,0-5.5,0.8-8.2,1.6c-2.6,0.8-6.4,1.3-8.6,2.9c-4.6,3.4-9.3,6.3-15.3,6.5c-4.1,0.1-7.9-0.7-11.9-1c-3.9-0.3-7.2,0.9-10.5,3
		C56.7,22.8,55.1,23.7,53.6,24.6L53.6,24.6z"/>
	
		<radialGradient id="SVGID_1_" cx="24.37" cy="227.89" r="255.75" gradientTransform="matrix(1 0 0 -1 0 226)" gradientUnits="userSpaceOnUse">
		<stop  offset="0.17" style="stop-color:#1C5935"/>
		<stop  offset="1" style="stop-color:#FFFFFF;stop-opacity:0"/>
	</radialGradient>
	<path fill="url(#SVGID_1_)" d="M53.6,24.6c-1.1,0.6-2.1,1.3-3.2,2c-2,1.3-3.2,3.4-5,5c-2,1.7-2.9,3.3-4,5.8
		c-3.2,8.1-9.3,14.1-13.6,21.7c-2.5,4.4-4.5,9.2-6.7,13.8c-1.9,4.1-4.8,8.5-5.7,12.9c-0.7,3.4-1.1,6.8-2.2,10.2
		c-0.9,3-2.7,5.8-3,8.9c-0.8,6.6,0.5,13.3-0.7,19.8c-0.4,2.1-0.8,4-0.5,6.2c0.4,2.9,1.6,5.6,2.7,8.3c2.7,6.8,4.1,14,7,20.7
		c2.5,5.7,5.6,10.6,8,16.4c1.8,4.4,6,8.4,9.4,11.7c3.2,3.2,6.3,5.5,10.2,7.7c1.7,0.9,3.3,2,5.1,2.7c2.1,0.8,3.1,0.8,4.8,2.5
		c1.4,1.3,3.3,1.3,5,2.3c0.6,0.4,1.6,1.2,2.2,1.4c1.2,0.4,2.2,0.4,3.4,1s2.3,1.2,3.6,1.7c3.2,1.2,6.3,2.6,9.4,3.9
		c4,1.8,8.4,3.7,12.8,4.4c3.4,0.6,7.1,0.1,10.4,0.1c7.5,0,14.7,0.4,22-1.3c5.5-1.3,11.4-0.7,16.7-2.4c3.2-1,6.5-1.5,9.6-2.8
		s6.5-2.2,9.8-3.2c6.3-1.9,12.5-3.5,18.4-6.8c5.7-3.2,10.8-7.2,16.4-10.6c3.4-2.1,7.3-4.7,9.3-8.4c1.1-2.1,1.6-4.5,2.7-6.7
		c1.3-2.5,2.6-4.9,3.7-7.5c2.4-5.8,4.1-11.4,5.1-17.6c0.5-2.9,0.2-5.7,0.4-8.6c0.2-4.2,1.5-8.3,1.8-12.5c0.3-4,0.1-8.1,0.1-12.1
		c0-3.2,0.4-6.5-0.1-9.6c-0.6-3.5-1.4-6.8-1.9-10.3c-0.4-3.4-0.7-6.8-1.3-10.1c-2.1-10.6-7.1-20.6-12.6-29.9
		c-2.2-3.6-6.1-7.3-9.4-10c-3.3-2.7-5.8-5.7-9.2-8.4c-1.7-1.4-2.4-3-3.8-4.7c-1.2-1.3-2.7-2-4.1-3.2c-3.2-2.6-5.8-6-9.2-8.2
		c-1.6-1.1-3.2-2.4-5-3.2s-3.7-1.1-5.5-2c-2.8-1.4-5.7-3.1-8.9-3.5c-3.4-0.3-6.9,0-10.3,0s-5.9-0.4-9-1c-2.9-0.6-5.6-1.1-8.3-1.7
		c-2.5-0.6-4.7-0.9-7.3-0.9c-3,0-5.5,0.8-8.2,1.6c-2.6,0.8-6.4,1.3-8.6,2.9c-4.6,3.4-9.3,6.3-15.3,6.5c-4.1,0.1-7.9-0.7-11.9-1
		c-3.9-0.3-7.2,0.9-10.5,3C56.7,22.8,55.1,23.7,53.6,24.6L53.6,24.6z"/>
	<path fill="none" stroke="#97C8FD" stroke-width="9" stroke-linecap="round" stroke-linejoin="round" d="M53.6,24.6
		c-1.1,0.6-2.1,1.3-3.2,2c-2,1.3-3.2,3.4-5,5c-2,1.7-2.9,3.3-4,5.8c-3.2,8.1-9.3,14.1-13.6,21.7c-2.5,4.4-4.5,9.2-6.7,13.8
		c-1.9,4.1-4.8,8.5-5.7,12.9c-0.7,3.4-1.1,6.8-2.2,10.2c-0.9,3-2.7,5.8-3,8.9c-0.8,6.6,0.5,13.3-0.7,19.8c-0.4,2.1-0.8,4-0.5,6.2
		c0.4,2.9,1.6,5.6,2.7,8.3c2.7,6.8,4.1,14,7,20.7c2.5,5.7,5.6,10.6,8,16.4c1.8,4.4,6,8.4,9.4,11.7c3.2,3.2,6.3,5.5,10.2,7.7
		c1.7,0.9,3.3,2,5.1,2.7c2.1,0.8,3.1,0.8,4.8,2.5c1.4,1.3,3.3,1.3,5,2.3c0.6,0.4,1.6,1.2,2.2,1.4c1.2,0.4,2.2,0.4,3.4,1
		s2.3,1.2,3.6,1.7c3.2,1.2,6.3,2.6,9.4,3.9c4,1.8,8.4,3.7,12.8,4.4c3.4,0.6,7.1,0.1,10.4,0.1c7.5,0,14.7,0.4,22-1.3
		c5.5-1.3,11.4-0.7,16.7-2.4c3.2-1,6.5-1.5,9.6-2.8s6.5-2.2,9.8-3.2c6.3-1.9,12.5-3.5,18.4-6.8c5.7-3.2,10.8-7.2,16.4-10.6
		c3.4-2.1,7.3-4.7,9.3-8.4c1.1-2.1,1.6-4.5,2.7-6.7c1.3-2.5,2.6-4.9,3.7-7.5c2.4-5.8,4.1-11.4,5.1-17.6c0.5-2.9,0.2-5.7,0.4-8.6
		c0.2-4.2,1.5-8.3,1.8-12.5c0.3-4,0.1-8.1,0.1-12.1c0-3.2,0.4-6.5-0.1-9.6c-0.6-3.5-1.4-6.8-1.9-10.3c-0.4-3.4-0.7-6.8-1.3-10.1
		c-2.1-10.6-7.1-20.6-12.6-29.9c-2.2-3.6-6.1-7.3-9.4-10c-3.3-2.7-5.8-5.7-9.2-8.4c-1.7-1.4-2.4-3-3.8-4.7c-1.2-1.3-2.7-2-4.1-3.2
		c-3.2-2.6-5.8-6-9.2-8.2c-1.6-1.1-3.2-2.4-5-3.2s-3.7-1.1-5.5-2c-2.8-1.4-5.7-3.1-8.9-3.5c-3.4-0.3-6.9,0-10.3,0s-5.9-0.4-9-1
		c-2.9-0.6-5.6-1.1-8.3-1.7c-2.5-0.6-4.7-0.9-7.3-0.9c-3,0-5.5,0.8-8.2,1.6c-2.6,0.8-6.4,1.3-8.6,2.9c-4.6,3.4-9.3,6.3-15.3,6.5
		c-4.1,0.1-7.9-0.7-11.9-1c-3.9-0.3-7.2,0.9-10.5,3C56.7,22.8,55.1,23.7,53.6,24.6L53.6,24.6z"/>
</g>
<g id="j">
</g>
<g id="k">
</g>
</svg>
