<?xml version="1.0" encoding="utf-8"?>
<!-- Generator: Adobe Illustrator 24.3.0, SVG Export Plug-In . SVG Version: 6.00 Build 0)  -->
<svg version="1.1" id="Layer_1" xmlns="http://www.w3.org/2000/svg" xmlns:xlink="http://www.w3.org/1999/xlink" x="0px" y="0px"
	 width="219px" height="226.3px" viewBox="0 0 219 226.3" enable-background="new 0 0 219 226.3" xml:space="preserve">
<g id="a">
</g>
<g id="b">
</g>
<g id="c">
</g>
<g id="d">
</g>
<g id="e">
</g>
<g id="f">
</g>
<g id="g">
</g>
<g id="h">
	<path fill="#97C8FD" d="M56,21c-1.7,0.7-3.3,1.5-5,2.3c-0.9,0.5-1.9,0.7-2.7,1.4c-0.3,0.2-0.4,0.6-0.7,0.8
		c-0.9,0.6-2.2,0.8-3.1,1.4c-0.8,0.5-1.5,1.1-2.2,1.8c-1.1,1-2.4,1.5-3.7,2.3c-2,1.3-3.6,3.1-5.6,4.4c-1.8,1.2-3.8,2.4-5.4,3.9
		c-1.9,1.8-3,4-4.6,6.1c-1.7,2.2-3.3,4.3-4.9,6.5c-1.7,2.3-3.2,4.5-4.3,7.2c-1,2.5-2,5-3.1,7.4c-0.8,1.8-1.2,3.8-2.1,5.6
		C7.8,74,7.4,76.4,7,78.6c-0.4,2.1-0.8,4.2-1.1,6.3c-0.1,1-0.4,1.9-0.5,2.9c-0.1,1.2,0.1,2.5,0.1,3.8c-0.1,0.8-0.4,1.6-0.5,2.4
		c-0.1,1.1,0,2.2,0,3.2c0,2.2,0,4.3,0,6.5c0,1.7-0.5,2.6-0.5,4.4c0,1.7,0,3.4,0,5.1c0,3-0.4,6.4,0.2,9.3c1.3,5.9,1.1,12.4,3.2,18.2
		c0.4,1.3,1.1,2.4,1.5,3.7c0.5,1.5,0.6,3.2,1,4.7c0.7,2.7,2,5.3,2.9,8c1,2.9,2.9,5.2,4.4,7.8c0.6,1.1,1,2.3,1.6,3.4
		c0.9,1.9,1.5,3.2,3.2,4.6c1.6,1.3,2.9,3.1,4.1,4.8c1.9,2.6,3.6,5.3,5.9,7.7c2.6,2.9,5.3,5.1,8.4,7.4c2.5,1.9,5,4.6,7.8,6.1
		c3.4,1.8,6.2,4.7,9.6,6.3c2.5,1.1,4.7,3.1,7.2,4.1c0.5,0.2,1,0.3,1.5,0.6c0.9,0.5,1.5,1.4,2.4,1.9c1.9,1.1,3.9,2.1,6.1,2.8
		c3.7,1.3,7.6,1.9,11.4,2.6c2.2,0.4,4.4,0.4,6.6,0.8c2.1,0.4,4,0.2,6,1.2c0.9,0.4,2,1.3,2.9,1.5c0.6,0.2,1.3-0.1,1.9,0.1
		c0.7,0.2,1.1,0.4,1.9,0.4c1.4,0,2.6,0.4,4,0.5c1.5,0,2.7-0.5,4.2-0.5c1.2,0,2.4,0,3.6,0c1.3,0,2.5-0.5,3.8-0.5c1.2,0,2.4,0.1,3.6,0
		c1.3-0.1,2.4-0.9,3.7-1c1.2-0.1,2.7,0,3.7-0.8c0.4-0.3,0.5-0.7,0.9-0.9c0.6-0.3,1.3-0.2,1.9-0.3c0.8-0.1,1.6-0.5,2.3-0.8
		c1.7-0.7,3.7-0.9,5.5-1.4c2-0.6,3.9-0.6,5.7-1.6c1.7-1,3.5-1.6,5.3-2.4c1.2-0.6,2.3-0.9,3.5-1.4c1.5-0.5,2.2-1.7,3.5-2.5
		c1.1-0.7,2.5-1.1,3.5-1.9c0.7-0.6,1.2-1.5,1.9-2.2c0.4-0.4,0.9-0.8,1.3-1.3c0.5-0.6,0.8-1.3,1.4-1.8s1.3-0.9,1.9-1.4
		c1.1-1,1.7-2.2,2.8-3.1c0.9-0.7,2.2-1,3.1-1.8c1-1,1.9-2.6,2.8-3.7c0.3-0.4,0.9-1.2,1.3-1.5c0.4-0.3,0.6-0.2,1-0.5
		c1.1-0.7,2-2.2,2.8-3.2c0.2-0.3,0.5-0.8,0.8-1.1c0.3-0.2,0.7-0.2,1-0.4c0.5-0.4,0.9-1.1,1.4-1.4c0.8-0.6,1.1-0.6,1.7-1.5
		c0.6-0.9,1.1-1.9,1.7-2.8c0.8-1.4,2.1-2.5,3.1-3.8c0.5-0.6,0.7-1.4,1.1-2.1c0.6-1.1,1.4-2,1.9-3.1c0.9-1.9,2.4-3.8,3.7-5.4
		s2.5-3.1,3.3-5.1c0.9-2,1.6-4.1,2.8-6c0.9-1.5,1.5-3.1,2.1-4.8c0.6-1.6,1.4-3,1.9-4.6c1.1-3.6,1.9-7.5,2.1-11.2
		c0.1-2.1,0.5-4,0.5-6.1c0-1.9,0.5-3.7,0.5-5.6c0-3.4,0-6.8,0-10.2c0-1-0.2-1.9-0.4-2.8c-0.4-1.8-0.4-3.5-0.8-5.3
		c-0.4-1.8-0.6-3.4-0.6-5.3c0-0.8,0.1-1.6,0-2.4c-0.1-0.9-0.6-1.7-0.9-2.5c-0.2-0.8-0.4-1.7-0.6-2.4s0.2-1.7,0-2.5
		c-0.2-1-0.8-1.9-0.9-3c-0.1-0.7-0.4-1.2-0.5-1.9c-0.1-0.5,0.1-1.1,0-1.6c-0.3-1.3-1.2-2.4-1.6-3.6c-0.6-1.5-1.1-3.1-1.6-4.6
		c-0.8-2.2-1.4-4.3-1.8-6.6c-0.9-5.2-3.3-9.7-4.9-14.6c-0.7-2.1-1.9-4.8-3.1-6.6s-3.3-2.8-4.8-4.3c-1.6-1.6-2.3-4-3.9-5.5
		c-1.3-1.3-3.4-2.1-4.9-3c-1.9-1.2-3.6-2.7-5.3-4c-1.3-1-2.9-1.3-4.1-2.5c-0.4-0.4-1-0.7-1.4-1.2c-0.7-0.6-1.1-1.4-1.9-2
		c-0.4-0.3-0.9-0.6-1.3-1c-0.6-0.5-1.3-0.9-1.8-1.4c-0.2-0.2-0.4-0.5-0.6-0.7c-0.3-0.4-0.6-0.4-1-0.6c-0.5-0.3-0.9-0.8-1.5-1.1
		c-0.3-0.2-0.6-0.3-0.9-0.5c-0.3-0.2-0.4-0.4-0.7-0.6c-0.6-0.4-1.2-0.7-1.8-1.1s-1-1-1.6-1.4c-1.2-0.8-2.5-1.6-3.9-2.1
		c-1.3-0.5-2.8-0.1-4.1-0.7s-2.3-1.2-3.7-1.4c-0.6-0.1-1.3-0.2-1.9-0.5c-0.5-0.2-0.9-0.4-1.4-0.7c-0.9-0.4-1.9-0.3-2.8-0.5
		c-1.1-0.2-2.3-0.3-3.4-0.3c-1.1,0-2.1,0.2-3.1-0.2c-1.6-0.6-3.3-0.7-5-0.7c-0.4,0-0.9,0.1-1.2,0c-0.8-0.2-1.5-0.5-2.3-0.3
		c-0.3,0.1-0.6,0.2-0.9,0.2c-1.1,0.2-2.2-0.3-3.2-0.6c-1.5-0.4-3.2-0.2-4.7-0.2c-3.4,0-6.8-0.1-10.2,0c-1.8,0-3-0.7-4.7-0.8
		c-1.9-0.1-4.2-0.2-6.1,0.2c-1.6,0.3-3.5,0.9-4.9,1.4c-0.7,0.2-0.8,0.7-1.5,0.8c-0.9,0.2-1.8,0.1-2.8,0.3c-3.1,0.8-6.3,2.7-9.2,3.4
		c-1.9,0.5-3.4,1.6-5.1,2.5c-1.6,0.9-3.2,0.3-4.9,0.9c-1,0.4-1.9,1.1-2.9,1.6c-2.3,1.1-4.1,2.9-6.5,3.9C57.9,20.2,57,20.6,56,21
		L56,21z"/>
	<path fill="none" stroke="#2879F9" stroke-width="5" stroke-linejoin="round" d="M56.2,44.1c-0.8,0-1.7-0.1-2.5,0.2
		c-1.9,0.5-3.4,0.5-5.1,1.5c-1.1,0.6-1,0.6-1.8,1.6c-0.4,0.6-1,1-1.5,1.6c-0.7,1-1.2,2.3-2,3.2c-0.4,0.5-0.9,0.6-1.4,0.9
		c-2.5,1.9-4.4,5.6-6,8.3c-2.9,5-4,10.4-6,15.7c-1.6,4.3-2.5,8.9-3.2,13.4c-0.8,4.9-1.4,9.7-1.4,14.7c0,4.9,1.5,10,2.9,14.7
		c0.6,2.2,1.8,4.2,2.4,6.5c0.8,2.9,1.5,5.8,2.4,8.7c1.8,5.5,2.7,11.4,3.7,17c0.9,5,2.2,10,5.3,14.1c0.8,1.1,1.4,2.2,2.3,3.2
		c1,1.1,2.3,2,3.3,3c2.1,2.2,4.5,4.1,6.7,6.1c1.2,1.1,2.4,1.8,3.4,3c0.8,1,1.4,1.8,2.4,2.6s1.8,1.5,2.8,2.3c1,0.9,2.2,1.1,3.2,1.9
		c3.6,2.8,8,4.8,12.6,5.8c6.7,1.5,13.8,0.9,20.6,0.9c4.4,0,8.9-0.1,13.4,0c2,0,3-0.7,4.8-1.4c2.2-0.9,4.4-1.8,6.5-2.7
		c1.7-0.7,3.8-1.1,5.5-1.5c2.9-0.7,6.1-0.4,9-1.1c4.3-1.1,8.6-3.8,11.7-6.9c2.2-2.2,4.3-4.5,6.3-6.9s4.4-4.2,6.3-6.5
		c3-3.5,5.9-7.5,8.5-11.4c1.4-2.1,3-4.3,4-6.6c1.1-2.4,1.7-5,2.8-7.4c1.2-2.6,2.7-5,3.8-7.7c0.8-1.9,1.5-4.1,2.5-5.8
		c2.4-4.4,5.5-9.4,6.6-14.3c1.1-4.6,1.4-9.4,1.4-14.2c0-4,0.4-8.2-0.6-12c-1.2-4.6-1-9.4-3.6-13.5c-0.6-0.9-0.9-2-1.6-2.9
		c-0.7-0.8-1.6-1.4-2.3-2.3c-0.7-0.9-0.9-2-1.6-2.8s-1.8-1.9-2.6-2.6c-1.2-1-2.6-1.6-3.6-2.8c-1.2-1.5-1.8-3.3-3-4.8
		c-2-2.8-4.4-4.8-6.8-7.1c-0.8-0.7-1.4-1.7-2.2-2.4c-1.1-0.9-2.6-1.5-4-2c-3.2-1.2-6.5-2.2-9.7-3.3c-2.5-0.8-4.9-3-7.4-4.3
		c-1.2-0.6-1.9-1.2-2.9-2.1c-1.1-1-2.3-1.4-3.5-1.9c-0.7-0.3-1.6-0.4-2.3-0.6c-0.5-0.2-1-0.6-1.6-0.7c-0.7-0.2-1.5,0.1-2.3,0
		c-1-0.2-1.6-0.5-2.6-0.6c-1.9-0.1-3.5-0.7-5.4-0.7c-1.6,0-3.2,0-4.8,0c-3,0-7-0.7-9.8,0.1c-0.5,0.1-0.7,0.4-1.4,0.5
		c-0.7,0.1-1.5-0.1-2.2,0c-1.3,0.3-3,1.4-4.2,2c-0.6,0.3-1,0.8-1.6,1.1s-0.9,0.4-1.6,0.8c-1.6,0.8-2.9,2.2-4.5,2.5s-3.4-0.1-5,0
		s-3.3,0.9-4.9,1.2c-1,0.2-1.9,0-2.9,0.2c-0.9,0.2-1.4,0.5-2.4,0.5c-1.1,0-2.2-0.1-3.3,0s-1.9,0.6-2.9,0.7c-1.5,0.2-2.4,0.3-3.8,0.7
		c-1.7,0.5-3.4,1.8-5.2,1.6c-0.8-0.1-1.3-0.4-2.1-0.2c-1.1,0.2-2.1,0.8-3.2,1C56.8,44.1,56.5,44.1,56.2,44.1L56.2,44.1z"/>
</g>
<g id="i">
</g>
<g id="j">
</g>
</svg>
