<?xml version="1.0" encoding="utf-8"?>
<!-- Generator: Adobe Illustrator 24.3.0, SVG Export Plug-In . SVG Version: 6.00 Build 0)  -->
<svg version="1.1" id="Layer_1" xmlns="http://www.w3.org/2000/svg" xmlns:xlink="http://www.w3.org/1999/xlink" x="0px" y="0px"
	 width="211.9px" height="217px" viewBox="0 0 211.9 217" enable-background="new 0 0 211.9 217" xml:space="preserve">
<g id="a">
</g>
<g id="b">
</g>
<g id="c">
</g>
<g id="d">
</g>
<g id="e">
</g>
<g id="f">
</g>
<g id="g">
</g>
<g id="h">
	<path fill="#FFB5D9" d="M43.6,32c-0.1,0-0.2,0.1-0.2,0.1c-1.7,0.8-3,2.4-4.8,3.3c-1.1,0.6-3,1.5-3.8,2.6c-2.9,4-5.4,8.5-7.9,12.8
		c-3,5-6,9.9-8.5,15.2c-2.9,5.9-5,12.3-6.5,18.8c-1.7,7.1-3.2,14.1-4.1,21.4c-0.7,6-0.4,12-0.5,18.1c0,5.5,0.4,10.6,1.5,15.9
		c0.4,2,1,3.8,1.6,5.7c1.2,4.1,1.7,8.3,3.1,12.3c1.7,5.1,4,9.6,7.3,13.7c2.9,3.6,5.8,7.3,8.9,10.8c3.3,3.7,7,6.9,10.6,10.2
		c4.7,4.1,9.7,6.5,15.2,9c4.5,2,9.1,3.3,13.7,4.6c4.4,1.3,8.7,3.2,13.3,3.3c9.9,0.1,19.8-0.1,29.6,0c4.3,0,8.4-0.5,12.7-1
		c1.4-0.2,2.8-0.3,4.2-0.5c1.9-0.3,3.6-1.2,5.4-1.9c4.8-1.8,9.9-2.4,14.8-4.2c6.4-2.3,12.4-5.2,18.3-8.8c2.8-1.7,5.8-3.4,8.6-5
		c1.5-0.8,2.8-1.1,4-2.3s2.3-2.4,3.7-3.3c2-1.4,3.9-3.1,5.3-5.2c1.7-2.4,2.9-5.8,4.2-8.5c1.6-3.5,3-7.1,4.2-10.8
		c1.5-4.5,3.3-8.6,3.8-13.4c0.4-3.6,0.8-7.2,1.4-10.8s1.5-6.7,1.7-10.3c0.4-6.8,0.6-13.6,0.6-20.4c0-7.6,0.2-15.3-2.4-22.4
		c-2.1-5.9-4.3-11.3-8.2-16c-2.8-3.3-5.8-6.3-8.6-9.6c-1.4-1.7-2.6-3.6-3.6-5.7c-0.8-1.8-2.2-2.4-3.3-3.9c-1.2-1.6-2.1-3.2-3-5.1
		c-0.8-1.5-1.8-2.3-2.8-3.6c-0.9-1.2-1.6-2.7-2.5-3.8c-0.5-0.6-1-1-1.4-1.6c-0.4-0.8-0.5-1.5-1.1-2.3C163,23,157.5,18,150.6,14.7
		c-5-2.4-10.2-5.3-15.6-6.6c-2.8-0.7-5.5-0.7-8.4-0.7h-4.1c-1.4,0-3.6-0.4-5,0.1c-1.1,0.4-1.7,1-3,1c-1.2,0-2.4-0.1-3.5,0
		c-2.3,0.1-4.6,1.1-6.8,1.7c-0.6,0.1-1.1-0.1-1.7,0c-0.6,0.1-1.1,0.4-1.7,0.6c-1.1,0.2-2.1,0.2-3.2,0.5c-2.1,0.7-4.2,0.9-6.4,1.3
		c-1.2,0.2-2.3,0.9-3.6,1c-0.3,0-0.7-0.1-1,0c-0.7,0.1-0.9,0.4-1.5,0.6c-0.3,0.1-0.9-0.1-1.1-0.1c-1.2,0.1-2.4,0.5-3.5,0.9
		c-1.6,0.6-3.1,1.4-4.7,2.1c-1.4,0.6-3.1,0.7-4.4,1.4c-1,0.5-2,1-3,1.4c-1.9,0.8-3.7,2-5.6,2.9c-0.9,0.4-1.7,0.7-2.5,1
		c-3.2,1-6.2,3-9.3,4.4c-1.4,0.6-3.3,0-4.6,0.7S44.9,31.3,43.6,32L43.6,32z"/>
	
		<radialGradient id="SVGID_1_" cx="178.34" cy="302.3486" r="117.61" gradientTransform="matrix(1 0 0 -1.12 0 397.13)" gradientUnits="userSpaceOnUse">
		<stop  offset="0.3" style="stop-color:#FF7D3B"/>
		<stop  offset="1" style="stop-color:#FFFFFF;stop-opacity:0"/>
	</radialGradient>
	<path fill="url(#SVGID_1_)" d="M43.6,32c-0.1,0-0.2,0.1-0.2,0.1c-1.7,0.8-3,2.4-4.8,3.3c-1.1,0.6-3,1.5-3.8,2.6
		c-2.9,4-5.4,8.5-7.9,12.8c-3,5-6,9.9-8.5,15.2c-2.9,5.9-5,12.3-6.5,18.8c-1.7,7.1-3.2,14.1-4.1,21.4c-0.7,6-0.4,12-0.5,18.1
		c0,5.5,0.4,10.6,1.5,15.9c0.4,2,1,3.8,1.6,5.7c1.2,4.1,1.7,8.3,3.1,12.3c1.7,5.1,4,9.6,7.3,13.7c2.9,3.6,5.8,7.3,8.9,10.8
		c3.3,3.7,7,6.9,10.6,10.2c4.7,4.1,9.7,6.5,15.2,9c4.5,2,9.1,3.3,13.7,4.6c4.4,1.3,8.7,3.2,13.3,3.3c9.9,0.1,19.8-0.1,29.6,0
		c4.3,0,8.4-0.5,12.7-1c1.4-0.2,2.8-0.3,4.2-0.5c1.9-0.3,3.6-1.2,5.4-1.9c4.8-1.8,9.9-2.4,14.8-4.2c6.4-2.3,12.4-5.2,18.3-8.8
		c2.8-1.7,5.8-3.4,8.6-5c1.5-0.8,2.8-1.1,4-2.3c1.2-1.2,2.3-2.4,3.7-3.3c2-1.4,3.9-3.1,5.3-5.2c1.7-2.4,2.9-5.8,4.2-8.5
		c1.6-3.5,3-7.1,4.2-10.8c1.5-4.5,3.3-8.6,3.8-13.4c0.4-3.6,0.8-7.2,1.4-10.8c0.6-3.4,1.5-6.7,1.7-10.3c0.4-6.8,0.6-13.6,0.6-20.4
		c0-7.6,0.2-15.3-2.4-22.4c-2.1-5.9-4.3-11.3-8.2-16c-2.8-3.3-5.8-6.3-8.6-9.6c-1.4-1.7-2.6-3.6-3.6-5.7c-0.8-1.8-2.2-2.4-3.3-3.9
		c-1.2-1.6-2.1-3.2-3-5.1c-0.8-1.5-1.8-2.3-2.8-3.6c-0.9-1.2-1.6-2.7-2.5-3.8c-0.5-0.6-1-1-1.4-1.6c-0.4-0.8-0.5-1.5-1.1-2.3
		C163,23,157.5,18,150.6,14.7c-5-2.4-10.2-5.3-15.6-6.6c-2.8-0.7-5.5-0.7-8.4-0.7h-4.1c-1.4,0-3.6-0.4-5,0.1c-1.1,0.4-1.7,1-3,1
		c-1.2,0-2.4-0.1-3.5,0c-2.3,0.1-4.6,1.1-6.8,1.7c-0.6,0.1-1.1-0.1-1.7,0c-0.6,0.1-1.1,0.4-1.7,0.6c-1.1,0.2-2.1,0.2-3.2,0.5
		c-2.1,0.7-4.2,0.9-6.4,1.3c-1.2,0.2-2.3,0.9-3.6,1c-0.3,0-0.7-0.1-1,0c-0.7,0.1-0.9,0.4-1.5,0.6c-0.3,0.1-0.9-0.1-1.1-0.1
		c-1.2,0.1-2.4,0.5-3.5,0.9c-1.6,0.6-3.1,1.4-4.7,2.1c-1.4,0.6-3.1,0.7-4.4,1.4c-1,0.5-2,1-3,1.4c-1.9,0.8-3.7,2-5.6,2.9
		c-0.9,0.4-1.7,0.7-2.5,1c-3.2,1-6.2,3-9.3,4.4c-1.4,0.6-3.3,0-4.6,0.7S44.9,31.3,43.6,32L43.6,32z"/>
	
		<radialGradient id="SVGID_2_" cx="-21.13" cy="114.87" r="160.65" gradientTransform="matrix(1 0 0 -1 0 218)" gradientUnits="userSpaceOnUse">
		<stop  offset="0.3" style="stop-color:#FF7D3B"/>
		<stop  offset="1" style="stop-color:#FFFFFF;stop-opacity:0"/>
	</radialGradient>
	<path fill="url(#SVGID_2_)" d="M43.6,32c-0.1,0-0.2,0.1-0.2,0.1c-1.7,0.8-3,2.4-4.8,3.3c-1.1,0.6-3,1.5-3.8,2.6
		c-2.9,4-5.4,8.5-7.9,12.8c-3,5-6,9.9-8.5,15.2c-2.9,5.9-5,12.3-6.5,18.8c-1.7,7.1-3.2,14.1-4.1,21.4c-0.7,6-0.4,12-0.5,18.1
		c0,5.5,0.4,10.6,1.5,15.9c0.4,2,1,3.8,1.6,5.7c1.2,4.1,1.7,8.3,3.1,12.3c1.7,5.1,4,9.6,7.3,13.7c2.9,3.6,5.8,7.3,8.9,10.8
		c3.3,3.7,7,6.9,10.6,10.2c4.7,4.1,9.7,6.5,15.2,9c4.5,2,9.1,3.3,13.7,4.6c4.4,1.3,8.7,3.2,13.3,3.3c9.9,0.1,19.8-0.1,29.6,0
		c4.3,0,8.4-0.5,12.7-1c1.4-0.2,2.8-0.3,4.2-0.5c1.9-0.3,3.6-1.2,5.4-1.9c4.8-1.8,9.9-2.4,14.8-4.2c6.4-2.3,12.4-5.2,18.3-8.8
		c2.8-1.7,5.8-3.4,8.6-5c1.5-0.8,2.8-1.1,4-2.3c1.2-1.2,2.3-2.4,3.7-3.3c2-1.4,3.9-3.1,5.3-5.2c1.7-2.4,2.9-5.8,4.2-8.5
		c1.6-3.5,3-7.1,4.2-10.8c1.5-4.5,3.3-8.6,3.8-13.4c0.4-3.6,0.8-7.2,1.4-10.8c0.6-3.4,1.5-6.7,1.7-10.3c0.4-6.8,0.6-13.6,0.6-20.4
		c0-7.6,0.2-15.3-2.4-22.4c-2.1-5.9-4.3-11.3-8.2-16c-2.8-3.3-5.8-6.3-8.6-9.6c-1.4-1.7-2.6-3.6-3.6-5.7c-0.8-1.8-2.2-2.4-3.3-3.9
		c-1.2-1.6-2.1-3.2-3-5.1c-0.8-1.5-1.8-2.3-2.8-3.6c-0.9-1.2-1.6-2.7-2.5-3.8c-0.5-0.6-1-1-1.4-1.6c-0.4-0.8-0.5-1.5-1.1-2.3
		C163,23,157.5,18,150.6,14.7c-5-2.4-10.2-5.3-15.6-6.6c-2.8-0.7-5.5-0.7-8.4-0.7h-4.1c-1.4,0-3.6-0.4-5,0.1c-1.1,0.4-1.7,1-3,1
		c-1.2,0-2.4-0.1-3.5,0c-2.3,0.1-4.6,1.1-6.8,1.7c-0.6,0.1-1.1-0.1-1.7,0c-0.6,0.1-1.1,0.4-1.7,0.6c-1.1,0.2-2.1,0.2-3.2,0.5
		c-2.1,0.7-4.2,0.9-6.4,1.3c-1.2,0.2-2.3,0.9-3.6,1c-0.3,0-0.7-0.1-1,0c-0.7,0.1-0.9,0.4-1.5,0.6c-0.3,0.1-0.9-0.1-1.1-0.1
		c-1.2,0.1-2.4,0.5-3.5,0.9c-1.6,0.6-3.1,1.4-4.7,2.1c-1.4,0.6-3.1,0.7-4.4,1.4c-1,0.5-2,1-3,1.4c-1.9,0.8-3.7,2-5.6,2.9
		c-0.9,0.4-1.7,0.7-2.5,1c-3.2,1-6.2,3-9.3,4.4c-1.4,0.6-3.3,0-4.6,0.7S44.9,31.3,43.6,32L43.6,32z"/>
	<path fill="none" stroke="#97C8FD" stroke-width="6" stroke-linecap="round" stroke-linejoin="round" d="M43.6,32
		c-0.1,0-0.2,0.1-0.2,0.1c-1.7,0.8-3,2.4-4.8,3.3c-1.1,0.6-3,1.5-3.8,2.6c-2.9,4-5.4,8.5-7.9,12.8c-3,5-6,9.9-8.5,15.2
		c-2.9,5.9-5,12.3-6.5,18.8c-1.7,7.1-3.2,14.1-4.1,21.4c-0.7,6-0.4,12-0.5,18.1c0,5.5,0.4,10.6,1.5,15.9c0.4,2,1,3.8,1.6,5.7
		c1.2,4.1,1.7,8.3,3.1,12.3c1.7,5.1,4,9.6,7.3,13.7c2.9,3.6,5.8,7.3,8.9,10.8c3.3,3.7,7,6.9,10.6,10.2c4.7,4.1,9.7,6.5,15.2,9
		c4.5,2,9.1,3.3,13.7,4.6c4.4,1.3,8.7,3.2,13.3,3.3c9.9,0.1,19.8-0.1,29.6,0c4.3,0,8.4-0.5,12.7-1c1.4-0.2,2.8-0.3,4.2-0.5
		c1.9-0.3,3.6-1.2,5.4-1.9c4.8-1.8,9.9-2.4,14.8-4.2c6.4-2.3,12.4-5.2,18.3-8.8c2.8-1.7,5.8-3.4,8.6-5c1.5-0.8,2.8-1.1,4-2.3
		s2.3-2.4,3.7-3.3c2-1.4,3.9-3.1,5.3-5.2c1.7-2.4,2.9-5.8,4.2-8.5c1.6-3.5,3-7.1,4.2-10.8c1.5-4.5,3.3-8.6,3.8-13.4
		c0.4-3.6,0.8-7.2,1.4-10.8s1.5-6.7,1.7-10.3c0.4-6.8,0.6-13.6,0.6-20.4c0-7.6,0.2-15.3-2.4-22.4c-2.1-5.9-4.3-11.3-8.2-16
		c-2.8-3.3-5.8-6.3-8.6-9.6c-1.4-1.7-2.6-3.6-3.6-5.7c-0.8-1.8-2.2-2.4-3.3-3.9c-1.2-1.6-2.1-3.2-3-5.1c-0.8-1.5-1.8-2.3-2.8-3.6
		c-0.9-1.2-1.6-2.7-2.5-3.8c-0.5-0.6-1-1-1.4-1.6c-0.4-0.8-0.5-1.5-1.1-2.3C163,23,157.5,18,150.6,14.7c-5-2.4-10.2-5.3-15.6-6.6
		c-2.8-0.7-5.5-0.7-8.4-0.7h-4.1c-1.4,0-3.6-0.4-5,0.1c-1.1,0.4-1.7,1-3,1c-1.2,0-2.4-0.1-3.5,0c-2.3,0.1-4.6,1.1-6.8,1.7
		c-0.6,0.1-1.1-0.1-1.7,0c-0.6,0.1-1.1,0.4-1.7,0.6c-1.1,0.2-2.1,0.2-3.2,0.5c-2.1,0.7-4.2,0.9-6.4,1.3c-1.2,0.2-2.3,0.9-3.6,1
		c-0.3,0-0.7-0.1-1,0c-0.7,0.1-0.9,0.4-1.5,0.6c-0.3,0.1-0.9-0.1-1.1-0.1c-1.2,0.1-2.4,0.5-3.5,0.9c-1.6,0.6-3.1,1.4-4.7,2.1
		c-1.4,0.6-3.1,0.7-4.4,1.4c-1,0.5-2,1-3,1.4c-1.9,0.8-3.7,2-5.6,2.9c-0.9,0.4-1.7,0.7-2.5,1c-3.2,1-6.2,3-9.3,4.4
		c-1.4,0.6-3.3,0-4.6,0.7S44.9,31.3,43.6,32L43.6,32z"/>
</g>
<g id="k">
</g>
<g id="l">
</g>
</svg>
