<?xml version="1.0" encoding="utf-8"?>
<!-- Generator: Adobe Illustrator 24.3.0, SVG Export Plug-In . SVG Version: 6.00 Build 0)  -->
<svg version="1.1" id="Layer_1" xmlns="http://www.w3.org/2000/svg" xmlns:xlink="http://www.w3.org/1999/xlink" x="0px" y="0px"
	 width="219px" height="219.8px" viewBox="0 0 219 219.8" enable-background="new 0 0 219 219.8" xml:space="preserve">
<g id="босх_снежки_кружки">
</g>
<g id="босх_челики">
</g>
<g id="рефы">
</g>
<g id="эскиз">
</g>
<g id="низ">
</g>
<g id="пятна">
</g>
<g id="снежки">
</g>
<g id="снежки_шарики">
	<path fill="#FFB5D9" d="M63.3,17.8c-0.2,0.1-0.3,0.3-0.5,0.4c-1.6,1.6-2.5,2.3-4.7,3.3c-3.7,1.9-6.9,3.5-10.1,6.1
		c-2.3,1.8-4.3,2.4-6.1,4.7c-1.5,1.9-3.5,3.6-5.2,5.5c-1.3,1.3-2.4,2.2-3.6,3.7c-0.8,1.1-1.6,2-2.4,3.1c-2.1,3.1-4,6.1-6.5,9.1
		c-2.4,2.9-4.3,5.9-6.1,9.2c-1.6,3-3.7,5.6-5.2,8.6c-1.7,3.4-3.4,6.8-4.6,10.4c-0.6,1.8-0.7,3.8-1.3,5.6c0,0.5-0.5,0.3-0.6,0.6
		c-0.7,1.7-1.1,3.6-1.6,5.4c-1.2,4.5-2.3,9.2-2.4,13.9C2.2,114.3,2,121.7,3,128.5c1.2,8.3,2.1,17.8,5.9,25.4c1.5,3,3.2,6,4.8,9
		s3.7,5.7,5.6,8.6c3.2,5,6.9,9.7,10.4,14.5c2,2.7,4.5,4.5,7.2,6.4c3.2,2.3,6.7,4.5,10.2,6.3c3.1,1.5,6.3,2.9,9.2,4.7
		c3.6,2.1,7.2,3.2,11.1,4.5c3.1,1.1,6.3,1.5,9.4,2.3c3.5,0.9,6.9,1,10.4,1.7c1.7,0.3,3.3,1.1,5,1.3c1.4,0.2,2.8,0.3,4.2,0.5
		c3.7,0.5,7.4,0.1,11,0.6c6,0.8,12,0.6,18,1.3c1.8,0.2,3.5,0.3,5.4,0.1c2.9-0.4,6.2-0.5,8.9-1.5c2.6-0.9,4.9-2.6,7.5-3.5
		c1.6-0.5,3.2-0.8,4.8-1.3c2.4-0.7,3.7-1.3,5.5-3.1c1.5-1.5,2.8-2.4,4.7-3.3c2-1,3.5-2.4,5.3-3.7c1.8-1.4,3.6-2.3,5.7-3.3
		c2-1,3.4-2.8,5.5-3.6c2-0.7,3.9-1.2,5.7-2.5c1.2-0.9,1.9-2.2,2.9-3.3c0.7-0.7,1.5-1.1,2.2-1.7c1.2-1.2,2.2-3.1,3.3-4.5
		c3.1-3.8,5-8.6,7.1-13c1.3-2.8,1.9-5.5,3.5-8.2c2.7-4.6,3.1-9.9,4.9-14.8c2.1-5.7,2.1-12.5,3-18.4c0.9-6,1.1-12.2,1.1-18.3
		c0-6.2-1.4-12.2-1.5-18.4c-0.1-2.3-0.6-4.8-1.6-6.9c-1.2-2.6-1.6-5.3-2.7-7.9c-1.3-2.8-2.3-5-2.9-8c-0.7-2.9-2.4-5-3.7-7.6
		c-2.5-4.8-4.8-9.9-7.8-14.4c-2.4-3.5-5.4-6.5-8.2-9.6c-2.2-2.5-5.5-4.7-8.3-6.5c-3-1.8-6.1-3.9-9.4-5.1c-1.3-0.5-2.7-0.5-3.9-1.1
		s-2.4-1.6-3.5-2.3c-2.5-1.7-5.1-3.3-7.6-5c-2.9-2-5.8-3.9-9-5.5c-3.6-1.8-7.8-2.7-11.8-3.6c-3.7-0.8-7.9-0.4-11.7-0.4
		c-4,0-7.8-1.4-12-0.6c-2.2,0.4-4,1.4-6.3,1.4c-1.3,0-2.7-0.1-4.1,0c-2.2,0.1-4.7,0.6-6.9,1.2c-2.6,0.7-5.2,1.2-7.9,1.8
		C79.7,10,78,10.3,76.1,11c-3,1.2-5.9,1.8-8.6,4.1C66.2,16.3,64.6,16.7,63.3,17.8z"/>
	
		<radialGradient id="SVGID_1_" cx="164.917" cy="-29.2751" r="201.159" gradientTransform="matrix(1 0 0 -1 0 222)" gradientUnits="userSpaceOnUse">
		<stop  offset="0" style="stop-color:#FF7D3B"/>
		<stop  offset="0.1374" style="stop-color:#FF7F40;stop-opacity:0.8621"/>
		<stop  offset="0.2994" style="stop-color:#FF844E;stop-opacity:0.6997"/>
		<stop  offset="0.4737" style="stop-color:#FF8C66;stop-opacity:0.5248"/>
		<stop  offset="0.6568" style="stop-color:#FF9887;stop-opacity:0.3412"/>
		<stop  offset="0.8447" style="stop-color:#FFA7B1;stop-opacity:0.1526"/>
		<stop  offset="0.9969" style="stop-color:#FFB5D9;stop-opacity:0"/>
	</radialGradient>
	<path fill="url(#SVGID_1_)" d="M63.3,17.8c-0.2,0.1-0.3,0.3-0.5,0.4c-1.6,1.6-2.5,2.3-4.7,3.3c-3.7,1.9-6.9,3.5-10.1,6.1
		c-2.3,1.8-4.3,2.4-6.1,4.7c-1.5,1.9-3.5,3.6-5.2,5.5c-1.3,1.3-2.4,2.2-3.6,3.7c-0.8,1.1-1.6,2-2.4,3.1c-2.1,3.1-4,6.1-6.5,9.1
		c-2.4,2.9-4.3,5.9-6.1,9.2c-1.6,3-3.7,5.6-5.2,8.6c-1.7,3.4-3.4,6.8-4.6,10.4c-0.6,1.8-0.7,3.8-1.3,5.6c0,0.5-0.5,0.3-0.6,0.6
		c-0.7,1.7-1.1,3.6-1.6,5.4c-1.2,4.5-2.3,9.2-2.4,13.9C2.2,114.3,2,121.7,3,128.5c1.2,8.3,2.1,17.8,5.9,25.4c1.5,3,3.2,6,4.8,9
		s3.7,5.7,5.6,8.6c3.2,5,6.9,9.7,10.4,14.5c2,2.7,4.5,4.5,7.2,6.4c3.2,2.3,6.7,4.5,10.2,6.3c3.1,1.5,6.3,2.9,9.2,4.7
		c3.6,2.1,7.2,3.2,11.1,4.5c3.1,1.1,6.3,1.5,9.4,2.3c3.5,0.9,6.9,1,10.4,1.7c1.7,0.3,3.3,1.1,5,1.3c1.4,0.2,2.8,0.3,4.2,0.5
		c3.7,0.5,7.4,0.1,11,0.6c6,0.8,12,0.6,18,1.3c1.8,0.2,3.5,0.3,5.4,0.1c2.9-0.4,6.2-0.5,8.9-1.5c2.6-0.9,4.9-2.6,7.5-3.5
		c1.6-0.5,3.2-0.8,4.8-1.3c2.4-0.7,3.7-1.3,5.5-3.1c1.5-1.5,2.8-2.4,4.7-3.3c2-1,3.5-2.4,5.3-3.7c1.8-1.4,3.6-2.3,5.7-3.3
		c2-1,3.4-2.8,5.5-3.6c2-0.7,3.9-1.2,5.7-2.5c1.2-0.9,1.9-2.2,2.9-3.3c0.7-0.7,1.5-1.1,2.2-1.7c1.2-1.2,2.2-3.1,3.3-4.5
		c3.1-3.8,5-8.6,7.1-13c1.3-2.8,1.9-5.5,3.5-8.2c2.7-4.6,3.1-9.9,4.9-14.8c2.1-5.7,2.1-12.5,3-18.4c0.9-6,1.1-12.2,1.1-18.3
		c0-6.2-1.4-12.2-1.5-18.4c-0.1-2.3-0.6-4.8-1.6-6.9c-1.2-2.6-1.6-5.3-2.7-7.9c-1.3-2.8-2.3-5-2.9-8c-0.7-2.9-2.4-5-3.7-7.6
		c-2.5-4.8-4.8-9.9-7.8-14.4c-2.4-3.5-5.4-6.5-8.2-9.6c-2.2-2.5-5.5-4.7-8.3-6.5c-3-1.8-6.1-3.9-9.4-5.1c-1.3-0.5-2.7-0.5-3.9-1.1
		s-2.4-1.6-3.5-2.3c-2.5-1.7-5.1-3.3-7.6-5c-2.9-2-5.8-3.9-9-5.5c-3.6-1.8-7.8-2.7-11.8-3.6c-3.7-0.8-7.9-0.4-11.7-0.4
		c-4,0-7.8-1.4-12-0.6c-2.2,0.4-4,1.4-6.3,1.4c-1.3,0-2.7-0.1-4.1,0c-2.2,0.1-4.7,0.6-6.9,1.2c-2.6,0.7-5.2,1.2-7.9,1.8
		C79.7,10,78,10.3,76.1,11c-3,1.2-5.9,1.8-8.6,4.1C66.2,16.3,64.6,16.7,63.3,17.8z"/>
	
		<radialGradient id="SVGID_2_" cx="244.2708" cy="195.523" r="179.8449" gradientTransform="matrix(1 0 0 -1 0 222)" gradientUnits="userSpaceOnUse">
		<stop  offset="0" style="stop-color:#FF7D3B"/>
		<stop  offset="0.1374" style="stop-color:#FF7F40;stop-opacity:0.8621"/>
		<stop  offset="0.2994" style="stop-color:#FF844E;stop-opacity:0.6997"/>
		<stop  offset="0.4737" style="stop-color:#FF8C66;stop-opacity:0.5248"/>
		<stop  offset="0.6568" style="stop-color:#FF9887;stop-opacity:0.3412"/>
		<stop  offset="0.8447" style="stop-color:#FFA7B1;stop-opacity:0.1526"/>
		<stop  offset="0.9969" style="stop-color:#FFB5D9;stop-opacity:0"/>
	</radialGradient>
	<path fill="url(#SVGID_2_)" d="M63.3,17.8c-0.2,0.1-0.3,0.3-0.5,0.4c-1.6,1.6-2.5,2.3-4.7,3.3c-3.7,1.9-6.9,3.5-10.1,6.1
		c-2.3,1.8-4.3,2.4-6.1,4.7c-1.5,1.9-3.5,3.6-5.2,5.5c-1.3,1.3-2.4,2.2-3.6,3.7c-0.8,1.1-1.6,2-2.4,3.1c-2.1,3.1-4,6.1-6.5,9.1
		c-2.4,2.9-4.3,5.9-6.1,9.2c-1.6,3-3.7,5.6-5.2,8.6c-1.7,3.4-3.4,6.8-4.6,10.4c-0.6,1.8-0.7,3.8-1.3,5.6c0,0.5-0.5,0.3-0.6,0.6
		c-0.7,1.7-1.1,3.6-1.6,5.4c-1.2,4.5-2.3,9.2-2.4,13.9C2.2,114.3,2,121.7,3,128.5c1.2,8.3,2.1,17.8,5.9,25.4c1.5,3,3.2,6,4.8,9
		s3.7,5.7,5.6,8.6c3.2,5,6.9,9.7,10.4,14.5c2,2.7,4.5,4.5,7.2,6.4c3.2,2.3,6.7,4.5,10.2,6.3c3.1,1.5,6.3,2.9,9.2,4.7
		c3.6,2.1,7.2,3.2,11.1,4.5c3.1,1.1,6.3,1.5,9.4,2.3c3.5,0.9,6.9,1,10.4,1.7c1.7,0.3,3.3,1.1,5,1.3c1.4,0.2,2.8,0.3,4.2,0.5
		c3.7,0.5,7.4,0.1,11,0.6c6,0.8,12,0.6,18,1.3c1.8,0.2,3.5,0.3,5.4,0.1c2.9-0.4,6.2-0.5,8.9-1.5c2.6-0.9,4.9-2.6,7.5-3.5
		c1.6-0.5,3.2-0.8,4.8-1.3c2.4-0.7,3.7-1.3,5.5-3.1c1.5-1.5,2.8-2.4,4.7-3.3c2-1,3.5-2.4,5.3-3.7c1.8-1.4,3.6-2.3,5.7-3.3
		c2-1,3.4-2.8,5.5-3.6c2-0.7,3.9-1.2,5.7-2.5c1.2-0.9,1.9-2.2,2.9-3.3c0.7-0.7,1.5-1.1,2.2-1.7c1.2-1.2,2.2-3.1,3.3-4.5
		c3.1-3.8,5-8.6,7.1-13c1.3-2.8,1.9-5.5,3.5-8.2c2.7-4.6,3.1-9.9,4.9-14.8c2.1-5.7,2.1-12.5,3-18.4c0.9-6,1.1-12.2,1.1-18.3
		c0-6.2-1.4-12.2-1.5-18.4c-0.1-2.3-0.6-4.8-1.6-6.9c-1.2-2.6-1.6-5.3-2.7-7.9c-1.3-2.8-2.3-5-2.9-8c-0.7-2.9-2.4-5-3.7-7.6
		c-2.5-4.8-4.8-9.9-7.8-14.4c-2.4-3.5-5.4-6.5-8.2-9.6c-2.2-2.5-5.5-4.7-8.3-6.5c-3-1.8-6.1-3.9-9.4-5.1c-1.3-0.5-2.7-0.5-3.9-1.1
		s-2.4-1.6-3.5-2.3c-2.5-1.7-5.1-3.3-7.6-5c-2.9-2-5.8-3.9-9-5.5c-3.6-1.8-7.8-2.7-11.8-3.6c-3.7-0.8-7.9-0.4-11.7-0.4
		c-4,0-7.8-1.4-12-0.6c-2.2,0.4-4,1.4-6.3,1.4c-1.3,0-2.7-0.1-4.1,0c-2.2,0.1-4.7,0.6-6.9,1.2c-2.6,0.7-5.2,1.2-7.9,1.8
		C79.7,10,78,10.3,76.1,11c-3,1.2-5.9,1.8-8.6,4.1C66.2,16.3,64.6,16.7,63.3,17.8z"/>
	<path fill="none" stroke="#FF7D3B" stroke-width="4" stroke-linecap="round" stroke-linejoin="round" stroke-miterlimit="10" d="
		M106.2,35.9c-1.1-0.3-2.2-0.6-3.3-0.9c-2.6-0.7-5.2,0.2-7.9,0.3c-2.4,0.1-4.6,0-6.8,1.1c-2,1-4.2,1.6-6,3c-2,1.6-3.5,3.6-5.1,5.6
		c-1.5,1.9-2.5,4.2-3.7,6.3c-0.8,1.5-1.5,3.1-2.3,4.6c-0.6,1-1.3,2-2.1,2.9c-0.7,0.9-1.4,1.8-2.1,2.8c-0.6,0.9-1.1,1.8-1.8,2.6
		c-0.2,0.3-0.4,0.6-0.6,0.9c-1,1.2-2.5,2.1-3.7,3.1c-1.2,0.9-2.2,1.7-3.5,2.4c-1.2,0.6-2.4,1.1-3.5,1.8c-0.8,0.5-1.5,1.1-2.4,1.5
		c-1.2,0.6-2.4,0.8-3.6,1.3c-2.4,1-4.8,1.7-7,3c-2.4,1.3-4.2,2.7-5.9,4.9c-3.4,4.5-4.9,9.6-7.2,14.6c-1.9,4.1-1.8,9.6-1,14
		c0.8,4.1,2.1,7.9,4.2,11.5c0.9,1.4,1.9,2.8,3.2,3.8c1.6,1.4,2.9,3,4.4,4.5c2.9,2.8,6,5.5,8.6,8.6c1.4,1.7,2.8,3.8,3.6,5.9
		c1,2.8,2.1,5.8,2.6,8.7c0.7,3.5,2.2,6.7,3.4,10.1c0.8,2.2,1.5,4.3,2.9,6.2c1.7,2.2,3.7,4.7,5.9,6.5c1.3,1.1,3,1.9,4.4,2.7
		s2.8,1.8,4.2,2.4c2.3,1,4.8,1.7,7.1,2.7c0.6,0.3,1.3,0.6,2,0.7c1,0.1,2-0.2,2.9-0.4c1.2-0.2,2.5,0,3.7-0.2c0.8-0.1,1.4-0.4,2.2-0.6
		c1.6-0.5,3.2-1.1,4.9-1.5c1.8-0.3,3.3-0.9,4.8-1.8c1.5-0.9,2.8-1.9,4.4-2.5c1.2-0.5,2.3-0.6,3.6-0.8c1.3-0.2,2.4-0.4,3.7-0.4
		c2.5,0,5.2-0.2,7.7,0c1.4,0.1,2.7,0.7,4.1,1c1.3,0.3,2.6,0.5,3.9,0.6c0.5,0.1,1,0.3,1.5,0.4c0.5,0.1,1.1,0.1,1.6,0.3
		c0.9,0.3,1.8,0.9,2.7,1.1c1.6,0.4,3.2,0.7,4.8,1.3c0.6,0.2,1.3,0.5,1.9,0.6c0.6,0.1,1.3,0,1.9,0c0.7,0,1-0.1,1.6-0.3
		c0.4-0.2,0.9-0.2,1.3-0.3c0.9-0.2,1.5-0.9,2.1-1.5c0.7-0.7,1.6-1,2.5-1.5c0.6-0.4,0.8-0.6,1.3-1.1c0.4-0.4,0.8-0.6,1.2-0.9
		c0.4-0.4,0.6-0.9,1-1.2c0.5-0.4,1-0.6,1.4-1c1.1-1,1.7-1.9,2.6-3.1c0.3-0.4,0.4-1,0.7-1.3c0.3-0.4,0.6-0.6,0.9-1.2
		c0.4-1,0.6-2.1,1-3.1c0.6-1.2,0.9-2.7,1.1-4.1c0.5-2.7,1.4-5.6,1.6-8.4c0.1-2,0.3-4,0.3-6c0-1.1,0.3-2.2,0.5-3.3
		c0.2-1.2,0.7-2.2,1.1-3.4c0.2-0.7,0.6-1.3,0.9-1.9c0.3-0.7,0.4-1.4,0.7-2c0.2-0.6,0.6-1.1,0.9-1.7c0.3-0.5,0.4-1.2,0.8-1.7
		c0.4-0.7,1.1-1,1.5-1.6c0.3-0.4,0.6-0.8,1-1.1c0.8-0.6,1.6-1.2,2.3-1.9c2.1-2.2,4.2-4.7,5.8-7.4c0.6-0.9,0.9-1.9,1.4-2.9
		c0.5-0.9,1.1-1.6,1.7-2.5c0.8-1.2,1.3-2.5,2-3.8c0.5-1,1.1-1.9,1.6-3c0.4-1,0.6-2.2,0.7-3.2c0.3-1.7,0.6-3.5,0.9-5.2
		c0.2-1.2,0.8-2.3,1-3.5c0.2-1,0.1-2,0.1-3c0-0.8,0.1-1.7-0.1-2.5c-0.3-2-1.2-3.9-1.3-5.9c0-0.7-0.3-1.7-0.6-2.4
		c-0.4-0.9-0.8-1.9-1.3-2.8c-0.6-1-1.3-2-1.9-3c-0.6-1-1.2-1.8-1.9-2.7c-1.3-1.4-2.1-3-3.5-4.3c-0.7-0.7-1.4-1.4-2.1-2.2
		c-0.7-0.8-1.6-1.5-2.5-2.1s-2-0.9-3-1.4c-1.2-0.6-2.4-1.3-3.7-1.8c-2.7-1.1-5.5-1.8-8.3-2.7c-1.1-0.4-2.1-0.5-3.2-0.7
		c-1.2-0.2-2.3-0.6-3.5-0.7c-2.1-0.3-4.3,0.3-6.3-0.1c-0.9-0.2-1.8-0.2-2.7-0.4c-1.1-0.3-2.1-0.6-3.2-0.8c-2.8-0.7-5-2-7.4-3.5
		c-1.4-0.8-2.8-1.9-4-2.9c-1.3-1-2.5-1.9-3.5-3.1c-1-1.3-2.4-2.1-3.5-3.3c-1-1.1-2-2.1-3.2-3c-1.1-0.9-2.3-1.9-3.5-2.7
		c-1.2-0.7-2.2-1.7-3.4-2.4C109.5,37,107.9,36.4,106.2,35.9z"/>
</g>
<g id="мелочь">
</g>
<g id="персонажи_ок">
</g>
</svg>
