<?xml version="1.0" encoding="utf-8"?>
<!-- Generator: Adobe Illustrator 24.3.0, SVG Export Plug-In . SVG Version: 6.00 Build 0)  -->
<svg version="1.1" id="Layer_1" xmlns="http://www.w3.org/2000/svg" xmlns:xlink="http://www.w3.org/1999/xlink" x="0px" y="0px"
	 width="244px" height="244.6px" viewBox="0 0 244 244.6" enable-background="new 0 0 244 244.6" xml:space="preserve">
<g id="a">
</g>
<g id="b">
</g>
<g id="c">
</g>
<g id="d">
</g>
<g id="e">
</g>
<g id="f">
</g>
<g id="g">
</g>
<g id="h">
	<path fill="#97C8FD" d="M71.9,34.5c-0.9,0.2-1.8,0.4-2.8,0.8c-1,0.5-1.9,1.1-2.9,1.6c-2.8,1.4-5.9,2.9-8.6,4.6
		c-2.2,1.4-4.1,2.9-6.4,4c-4.7,2.2-8.4,7.3-12,10.9C37.4,58.2,35.5,60,34,62c-1.4,2-2.3,4.3-3.4,6.5c-1.2,2.3-2.3,4.5-3.5,6.9
		c-1,2.1-1.6,4.2-2.6,6.3c-1.2,2.6-2.6,5.3-3.8,7.9c-1,2.3-1.3,5-2.3,7.4c-1.2,3-2,6.9-1.6,10.1c0.1,1,0.5,1.9,0.8,2.9
		c0.8,2.7,0.4,5.7,0.4,8.5c0,1.8-0.5,2.7-0.5,4.6c0,2.4,0.4,4.6,0.1,7c-0.3,2.1-0.6,4.2-0.2,6.4c0.7,3.6,2.2,7.9,3.9,11.1
		c2.1,4,4.3,8.1,5.6,12.4c1.4,4.5,3.7,8.3,5.4,12.6c1.2,3,2.3,5.9,4,8.6c1.8,2.9,4,5.6,6.3,8.1c0.8,0.9,1.8,1.4,2.6,2.2
		c0.9,0.9,1.6,2,2.6,2.9c1.6,1.5,3.4,2.9,5,4.4c1.2,1.1,2.2,2.4,3.6,3.5c1.2,1,2.6,1.7,3.9,2.7c2.1,1.6,4.2,3.2,6.3,4.9
		c1.9,1.5,3.5,3.1,5.6,4.4c1.7,1.2,3.5,1.8,5.3,2.9c2.8,1.6,5.4,3,8.5,3.8c2.4,0.6,3.5,1.4,5,3.3c3.3,4,9.4,3.2,14,3.2
		c5.4,0,10.9,0.4,16-1c1-0.3,1.9-0.1,2.9-0.2c0.8-0.2,1.4-0.4,2.3-0.5c1.1,0,2.3,0.2,3.3,0c0.8-0.1,1.5-0.5,2.3-0.6
		c2.9-0.5,5.9-0.6,8.8-1.1c1.7-0.3,3.5-0.8,5.3-1.2c2.6-0.6,5.3-1.2,7.9-1.9c2.2-0.5,4.3-1.1,6.4-1.7c1.9-0.6,3.6-0.7,5.6-1
		c1-0.1,2.4-0.4,3.3-0.6c0.9-0.2,1.4-0.7,2.3-1.1c1.6-0.7,3.2-1,4.9-1.2c0.7-0.1,1.2-0.4,1.9-0.5s1.4,0.1,1.9,0
		c1.6-0.3,3.2-1.7,4.7-2.3c1.3-0.5,2.4-0.9,3.4-1.8c0.9-0.8,1.6-1.5,2.6-2.2c1.6-1.1,3.2-2.3,4.9-3.4c3.1-2.1,5.8-4.2,8.4-6.9
		c1.7-1.7,3.4-3.1,4.7-5.2c1.5-2.3,3.2-4.6,4.9-6.9c3-4,6.1-8.6,7.8-13.3c0.7-1.9,1.6-3.9,1.6-6c0-1.7,0.4-3.4,0.7-5.1
		c0.8-5.6,1.7-11.2,2.6-16.7c0.3-1.9,0.6-3.9,0.7-5.8c0.2-2.5,0.3-5.5-0.2-7.9c-1-5.6-0.4-11.7-0.4-17.4c0-6.6,0.2-13.3,0-19.9
		c-0.1-3.3-1-6.9-1.9-10.2c-0.9-3.6-2-7.2-4-10.4c-1-1.7-2.3-3.2-3.1-5.1c-0.6-1.4-1.2-2.9-2-4.3c-0.5-1-1.1-2.2-1.7-3.2
		c-0.5-0.8-1.2-1.2-1.6-2c-1-1.7-1.6-3.5-3-5s-2.9-2.7-4-4.4c-1.1-1.7-2.3-3.1-3.4-4.8c-2.6-3.8-7.7-6.4-11.3-9.1
		c-2.7-2-4.9-4.8-7.6-6.8c-1.3-0.9-2.7-1.6-4-2.4s-2.5-1.8-4-2.2c-1.7-0.4-3.4-0.9-5.1-1.3s-3.4-0.4-5.1-0.7
		c-2.7-0.5-5.2-1.6-7.9-2.2c-2.4-0.5-4.8-1.2-7.1-1.8c-1.4-0.3-2.5-1.2-3.9-1.5c-1.3-0.3-2.8-0.1-4.1-0.1c-2.1,0-4.1,0.6-6.3,0.6
		c-3.2,0-6.2,0.1-9.2,1.1c-3.3,1.1-6.7,2.1-10.1,2.8c-2.5,0.5-5.1-0.4-7.5,0.2c-2.5,0.6-5,1.9-7.5,2.8c-3.1,1.1-6.3,1.7-9.2,3.3
		c-3.1,1.6-6.8,2.5-10.1,3.6c-3,1-5.8,1.7-8.7,2.9C72.6,34.3,72.2,34.4,71.9,34.5L71.9,34.5z"/>
	
		<radialGradient id="SVGID_1_" cx="121.9788" cy="123.7522" r="105.2628" fx="215.4113" fy="75.2709" gradientTransform="matrix(1 0 0 -1 0 246)" gradientUnits="userSpaceOnUse">
		<stop  offset="0.42" style="stop-color:#2879F9"/>
		<stop  offset="0.48" style="stop-color:#2C7BF9;stop-opacity:0.98"/>
		<stop  offset="0.56" style="stop-color:#3883F9;stop-opacity:0.92"/>
		<stop  offset="0.63" style="stop-color:#4D90FA;stop-opacity:0.83"/>
		<stop  offset="0.71" style="stop-color:#69A2FA;stop-opacity:0.69"/>
		<stop  offset="0.8" style="stop-color:#8EB9FB;stop-opacity:0.52"/>
		<stop  offset="0.89" style="stop-color:#BBD5FD;stop-opacity:0.31"/>
		<stop  offset="0.97" style="stop-color:#F0F5FE;stop-opacity:7.000000e-02"/>
		<stop  offset="1" style="stop-color:#FFFFFF;stop-opacity:0"/>
	</radialGradient>
	<path fill="url(#SVGID_1_)" d="M71.9,34.5c-0.9,0.2-1.8,0.4-2.8,0.8c-1,0.5-1.9,1.1-2.9,1.6c-2.8,1.4-5.9,2.9-8.6,4.6
		c-2.2,1.4-4.1,2.9-6.4,4c-4.7,2.2-8.4,7.3-12,10.9C37.4,58.2,35.5,60,34,62c-1.4,2-2.3,4.3-3.4,6.5c-1.2,2.3-2.3,4.5-3.5,6.9
		c-1,2.1-1.6,4.2-2.6,6.3c-1.2,2.6-2.6,5.3-3.8,7.9c-1,2.3-1.3,5-2.3,7.4c-1.2,3-2,6.9-1.6,10.1c0.1,1,0.5,1.9,0.8,2.9
		c0.8,2.7,0.4,5.7,0.4,8.5c0,1.8-0.5,2.7-0.5,4.6c0,2.4,0.4,4.6,0.1,7c-0.3,2.1-0.6,4.2-0.2,6.4c0.7,3.6,2.2,7.9,3.9,11.1
		c2.1,4,4.3,8.1,5.6,12.4c1.4,4.5,3.7,8.3,5.4,12.6c1.2,3,2.3,5.9,4,8.6c1.8,2.9,4,5.6,6.3,8.1c0.8,0.9,1.8,1.4,2.6,2.2
		c0.9,0.9,1.6,2,2.6,2.9c1.6,1.5,3.4,2.9,5,4.4c1.2,1.1,2.2,2.4,3.6,3.5c1.2,1,2.6,1.7,3.9,2.7c2.1,1.6,4.2,3.2,6.3,4.9
		c1.9,1.5,3.5,3.1,5.6,4.4c1.7,1.2,3.5,1.8,5.3,2.9c2.8,1.6,5.4,3,8.5,3.8c2.4,0.6,3.5,1.4,5,3.3c3.3,4,9.4,3.2,14,3.2
		c5.4,0,10.9,0.4,16-1c1-0.3,1.9-0.1,2.9-0.2c0.8-0.2,1.4-0.4,2.3-0.5c1.1,0,2.3,0.2,3.3,0c0.8-0.1,1.5-0.5,2.3-0.6
		c2.9-0.5,5.9-0.6,8.8-1.1c1.7-0.3,3.5-0.8,5.3-1.2c2.6-0.6,5.3-1.2,7.9-1.9c2.2-0.5,4.3-1.1,6.4-1.7c1.9-0.6,3.6-0.7,5.6-1
		c1-0.1,2.4-0.4,3.3-0.6c0.9-0.2,1.4-0.7,2.3-1.1c1.6-0.7,3.2-1,4.9-1.2c0.7-0.1,1.2-0.4,1.9-0.5s1.4,0.1,1.9,0
		c1.6-0.3,3.2-1.7,4.7-2.3c1.3-0.5,2.4-0.9,3.4-1.8c0.9-0.8,1.6-1.5,2.6-2.2c1.6-1.1,3.2-2.3,4.9-3.4c3.1-2.1,5.8-4.2,8.4-6.9
		c1.7-1.7,3.4-3.1,4.7-5.2c1.5-2.3,3.2-4.6,4.9-6.9c3-4,6.1-8.6,7.8-13.3c0.7-1.9,1.6-3.9,1.6-6c0-1.7,0.4-3.4,0.7-5.1
		c0.8-5.6,1.7-11.2,2.6-16.7c0.3-1.9,0.6-3.9,0.7-5.8c0.2-2.5,0.3-5.5-0.2-7.9c-1-5.6-0.4-11.7-0.4-17.4c0-6.6,0.2-13.3,0-19.9
		c-0.1-3.3-1-6.9-1.9-10.2c-0.9-3.6-2-7.2-4-10.4c-1-1.7-2.3-3.2-3.1-5.1c-0.6-1.4-1.2-2.9-2-4.3c-0.5-1-1.1-2.2-1.7-3.2
		c-0.5-0.8-1.2-1.2-1.6-2c-1-1.7-1.6-3.5-3-5s-2.9-2.7-4-4.4c-1.1-1.7-2.3-3.1-3.4-4.8c-2.6-3.8-7.7-6.4-11.3-9.1
		c-2.7-2-4.9-4.8-7.6-6.8c-1.3-0.9-2.7-1.6-4-2.4s-2.5-1.8-4-2.2c-1.7-0.4-3.4-0.9-5.1-1.3s-3.4-0.4-5.1-0.7
		c-2.7-0.5-5.2-1.6-7.9-2.2c-2.4-0.5-4.8-1.2-7.1-1.8c-1.4-0.3-2.5-1.2-3.9-1.5c-1.3-0.3-2.8-0.1-4.1-0.1c-2.1,0-4.1,0.6-6.3,0.6
		c-3.2,0-6.2,0.1-9.2,1.1c-3.3,1.1-6.7,2.1-10.1,2.8c-2.5,0.5-5.1-0.4-7.5,0.2c-2.5,0.6-5,1.9-7.5,2.8c-3.1,1.1-6.3,1.7-9.2,3.3
		c-3.1,1.6-6.8,2.5-10.1,3.6c-3,1-5.8,1.7-8.7,2.9C72.6,34.3,72.2,34.4,71.9,34.5L71.9,34.5z"/>
	<path fill="none" stroke="#FF7D3B" stroke-width="25" stroke-linejoin="round" d="M71.9,34.5c-0.9,0.2-1.8,0.4-2.8,0.8
		c-1,0.5-1.9,1.1-2.9,1.6c-2.8,1.4-5.9,2.9-8.6,4.6c-2.2,1.4-4.1,2.9-6.4,4c-4.7,2.2-8.4,7.3-12,10.9C37.4,58.2,35.5,60,34,62
		c-1.4,2-2.3,4.3-3.4,6.5c-1.2,2.3-2.3,4.5-3.5,6.9c-1,2.1-1.6,4.2-2.6,6.3c-1.2,2.6-2.6,5.3-3.8,7.9c-1,2.3-1.3,5-2.3,7.4
		c-1.2,3-2,6.9-1.6,10.1c0.1,1,0.5,1.9,0.8,2.9c0.8,2.7,0.4,5.7,0.4,8.5c0,1.8-0.5,2.7-0.5,4.6c0,2.4,0.4,4.6,0.1,7
		c-0.3,2.1-0.6,4.2-0.2,6.4c0.7,3.6,2.2,7.9,3.9,11.1c2.1,4,4.3,8.1,5.6,12.4c1.4,4.5,3.7,8.3,5.4,12.6c1.2,3,2.3,5.9,4,8.6
		c1.8,2.9,4,5.6,6.3,8.1c0.8,0.9,1.8,1.4,2.6,2.2c0.9,0.9,1.6,2,2.6,2.9c1.6,1.5,3.4,2.9,5,4.4c1.2,1.1,2.2,2.4,3.6,3.5
		c1.2,1,2.6,1.7,3.9,2.7c2.1,1.6,4.2,3.2,6.3,4.9c1.9,1.5,3.5,3.1,5.6,4.4c1.7,1.2,3.5,1.8,5.3,2.9c2.8,1.6,5.4,3,8.5,3.8
		c2.4,0.6,3.5,1.4,5,3.3c3.3,4,9.4,3.2,14,3.2c5.4,0,10.9,0.4,16-1c1-0.3,1.9-0.1,2.9-0.2c0.8-0.2,1.4-0.4,2.3-0.5
		c1.1,0,2.3,0.2,3.3,0c0.8-0.1,1.5-0.5,2.3-0.6c2.9-0.5,5.9-0.6,8.8-1.1c1.7-0.3,3.5-0.8,5.3-1.2c2.6-0.6,5.3-1.2,7.9-1.9
		c2.2-0.5,4.3-1.1,6.4-1.7c1.9-0.6,3.6-0.7,5.6-1c1-0.1,2.4-0.4,3.3-0.6c0.9-0.2,1.4-0.7,2.3-1.1c1.6-0.7,3.2-1,4.9-1.2
		c0.7-0.1,1.2-0.4,1.9-0.5s1.4,0.1,1.9,0c1.6-0.3,3.2-1.7,4.7-2.3c1.3-0.5,2.4-0.9,3.4-1.8c0.9-0.8,1.6-1.5,2.6-2.2
		c1.6-1.1,3.2-2.3,4.9-3.4c3.1-2.1,5.8-4.2,8.4-6.9c1.7-1.7,3.4-3.1,4.7-5.2c1.5-2.3,3.2-4.6,4.9-6.9c3-4,6.1-8.6,7.8-13.3
		c0.7-1.9,1.6-3.9,1.6-6c0-1.7,0.4-3.4,0.7-5.1c0.8-5.6,1.7-11.2,2.6-16.7c0.3-1.9,0.6-3.9,0.7-5.8c0.2-2.5,0.3-5.5-0.2-7.9
		c-1-5.6-0.4-11.7-0.4-17.4c0-6.6,0.2-13.3,0-19.9c-0.1-3.3-1-6.9-1.9-10.2c-0.9-3.6-2-7.2-4-10.4c-1-1.7-2.3-3.2-3.1-5.1
		c-0.6-1.4-1.2-2.9-2-4.3c-0.5-1-1.1-2.2-1.7-3.2c-0.5-0.8-1.2-1.2-1.6-2c-1-1.7-1.6-3.5-3-5s-2.9-2.7-4-4.4
		c-1.1-1.7-2.3-3.1-3.4-4.8c-2.6-3.8-7.7-6.4-11.3-9.1c-2.7-2-4.9-4.8-7.6-6.8c-1.3-0.9-2.7-1.6-4-2.4s-2.5-1.8-4-2.2
		c-1.7-0.4-3.4-0.9-5.1-1.3s-3.4-0.4-5.1-0.7c-2.7-0.5-5.2-1.6-7.9-2.2c-2.4-0.5-4.8-1.2-7.1-1.8c-1.4-0.3-2.5-1.2-3.9-1.5
		c-1.3-0.3-2.8-0.1-4.1-0.1c-2.1,0-4.1,0.6-6.3,0.6c-3.2,0-6.2,0.1-9.2,1.1c-3.3,1.1-6.7,2.1-10.1,2.8c-2.5,0.5-5.1-0.4-7.5,0.2
		c-2.5,0.6-5,1.9-7.5,2.8c-3.1,1.1-6.3,1.7-9.2,3.3c-3.1,1.6-6.8,2.5-10.1,3.6c-3,1-5.8,1.7-8.7,2.9C72.6,34.3,72.2,34.4,71.9,34.5
		L71.9,34.5z"/>
</g>
<g id="j">
</g>
<g id="k">
</g>
</svg>
